<svg xmlns="http://www.w3.org/2000/svg">
<defs>
<font id="HelveticaNeueLTW1G-Blk" horiz-adv-x="630" >
  <font-face 
    font-family="HelveticaNeueLT W1G 95 Blk"
    font-weight="900"
    font-stretch="normal"
    units-per-em="1000"
    panose-1="2 11 9 4 2 2 2 2 2 4"
    ascent="714"
    descent="-286"
    x-height="519"
    cap-height="714"
    bbox="-165 -248 1126 959"
    underline-thickness="50"
    underline-position="-50"
    unicode-range="U+000D-U+FB04"
  />
<missing-glyph horiz-adv-x="512" 
d="M0 0v718h512v-718h-512zM50 50h412v617h-412v-617zM225 234l-2 17q0 56 13 81q15 28 46 59q31 29 40.5 46t9.5 37q0 36 -22.5 60.5t-53.5 24.5q-71 0 -82 -95l-50 8q7 69 43 103t92 34q54 0 89 -36t35 -95q0 -34 -13 -60t-50 -60q-37 -33 -43 -52q-6 -20 -6 -72h-46z
M222 117v67h56v-67h-56z" />
    <glyph glyph-name="IJ" unicode="IJ" horiz-adv-x="935" 
d="M57 0v714h220v-714h-220zM348 240v60h198v-41q0 -22 0.5 -33t3.5 -27.5t9 -24.5t17.5 -14.5t28.5 -6.5q53 0 53 83v478h220v-457q0 -145 -65.5 -209.5t-202.5 -64.5q-132 0 -197 68t-65 189z" />
    <glyph glyph-name="ij" unicode="ij" horiz-adv-x="624" 
d="M256 714v-139h-198v139h198zM58 0v519h198v-519h-198zM565 714v-139h-198v139h198zM279 -168v158h33q31 0 43 13.5t12 50.5v465h198v-484q0 -69 -8.5 -106.5t-37.5 -61.5q-40 -35 -147 -35h-93z" />
    <glyph glyph-name="napostrophe" unicode="&#x22;n" horiz-adv-x="830" 
d="M236 0v519h191v-66h2q56 79 169 79q75 0 126.5 -45.5t51.5 -130.5v-356h-198v272q0 52 -12.5 77t-52.5 25q-79 0 -79 -100v-274h-198zM197 714v-164q0 -92 -37 -145t-147 -70v87q80 9 82 94h-82v198h184z" />
    <glyph glyph-name="f_f" unicode="ff" horiz-adv-x="754" 
d="M452 0v397h-167v-397h-198v397h-81v122h81q-6 99 41 146q30 30 68.5 39.5t104.5 9.5q50 0 79 -4v-135q-32 6 -48 6q-29 0 -41 -13.5t-10 -48.5h171q-6 99 41 146q30 30 68.5 39.5t104.5 9.5q18 0 48 -2t41 -2v-136q-37 7 -48 7q-36 0 -49.5 -13t-11.5 -49h104v-122h-100
v-397h-198z" />
    <glyph glyph-name="fi" unicode="fi" horiz-adv-x="704" 
d="M645 714v-139h-198v139h198zM87 0v397h-81v122h81q-6 99 41 146q30 30 68.5 39.5t104.5 9.5q18 0 48 -2t41 -2v-136q-37 7 -48 7q-36 0 -49.5 -13t-11.5 -49h104v-122h-100v-397h-198zM447 0v519h198v-519h-198z" />
    <glyph glyph-name="fl" unicode="fl" horiz-adv-x="704" 
d="M447 0v714h198v-714h-198zM87 0v397h-81v122h81q-6 99 41 146q30 30 68.5 39.5t104.5 9.5q18 0 48 -2t41 -2v-136q-21 7 -48 7q-36 0 -49.5 -13t-11.5 -49h104v-122h-100v-397h-198z" />
    <glyph glyph-name="f_f_i" unicode="ffi" horiz-adv-x="1069" 
d="M452 0v397h-167v-397h-198v397h-81v122h81q-6 99 41 146q30 30 68.5 39.5t104.5 9.5q50 0 79 -4v-135q-32 6 -48 6q-29 0 -41 -13.5t-10 -48.5h171q-6 99 41 146q30 30 68.5 39.5t104.5 9.5q18 0 48 -2t41 -2v-136q-37 7 -48 7q-36 0 -49.5 -13t-11.5 -49h104v-122h-100
v-397h-198zM1010 714v-139h-198v139h198zM812 0v519h198v-519h-198z" />
    <glyph glyph-name="f_f_l" unicode="ffl" horiz-adv-x="1069" 
d="M452 0v397h-167v-397h-198v397h-81v122h81q-6 99 41 146q30 30 68.5 39.5t104.5 9.5q50 0 79 -4v-135q-32 6 -48 6q-29 0 -41 -13.5t-10 -48.5h171q-6 99 41 146q30 30 68.5 39.5t104.5 9.5q18 0 48 -2t41 -2v-136q-37 7 -48 7q-36 0 -49.5 -13t-11.5 -49h104v-122h-100
v-397h-198zM812 0v714h198v-714h-198z" />
    <glyph glyph-name=".notdef" horiz-adv-x="512" 
d="M0 0v718h512v-718h-512zM50 50h412v617h-412v-617zM225 234l-2 17q0 56 13 81q15 28 46 59q31 29 40.5 46t9.5 37q0 36 -22.5 60.5t-53.5 24.5q-71 0 -82 -95l-50 8q7 69 43 103t92 34q54 0 89 -36t35 -95q0 -34 -13 -60t-50 -60q-37 -33 -43 -52q-6 -20 -6 -72h-46z
M222 117v67h56v-67h-56z" />
    <glyph glyph-name=".null" horiz-adv-x="500" 
 />
    <glyph glyph-name="nonmarkingreturn" horiz-adv-x="333" 
 />
    <glyph glyph-name="CR" unicode="&#xd;" horiz-adv-x="0" 
 />
    <glyph glyph-name="space" unicode=" " horiz-adv-x="334" 
 />
    <glyph glyph-name="exclam" unicode="!" horiz-adv-x="315" 
d="M109 257l-56 289v168h208v-168l-55 -289h-97zM53 0v198h208v-198h-208z" />
    <glyph glyph-name="quotedbl" unicode="&#x22;" horiz-adv-x="519" 
d="M290 335v379h153v-379h-153zM77 335v379h153v-379h-153z" />
    <glyph glyph-name="numbersign" unicode="#" horiz-adv-x="668" 
d="M121 0l26 185h-86l16 117h86l13 96h-85l16 117h85l25 181h133l-25 -181h71l25 181h133l-25 -181h78l-16 -117h-78l-13 -96h77l-16 -117h-77l-26 -185h-133l26 185h-71l-26 -185h-133zM296 302h71l13 96h-71z" />
    <glyph glyph-name="dollar" unicode="$" horiz-adv-x="668" 
d="M14 238h214q0 -91 83 -97v141q-4 1 -36 9.5t-50 15.5q-95 33 -139 72t-44 118q0 59 24 105.5t64 73.5t86 41t95 14v80h52v-80q73 0 131 -23.5t95.5 -77.5t37.5 -132h-191q-4 38 -18.5 52t-54.5 23v-112q94 -20 154 -45.5t89 -58t38.5 -64.5t9.5 -79q0 -43 -16 -82
t-49 -73.5t-91.5 -55t-134.5 -20.5v-99h-52v99q-76 0 -134 21t-92 57.5t-51.5 81t-19.5 95.5zM311 473v100q-71 0 -71 -46q0 -40 71 -54zM363 141q83 7 83 61q0 24 -19.5 38t-63.5 28v-127z" />
    <glyph glyph-name="percent" unicode="%" horiz-adv-x="1019" 
d="M245 -26l410 748h110l-410 -748h-110zM243 324q-88 0 -132 51.5t-44 138.5t44 138.5t132 51.5t132 -51.5t44 -138.5t-44 -138.5t-132 -51.5zM243 411q16 0 26.5 8.5t14 27t4.5 31t1 36.5t-1 36.5t-4.5 31t-14 27t-26.5 8.5t-26.5 -8.5t-14 -27t-4.5 -31t-1 -36.5t1 -36.5
t4.5 -31t14 -27t26.5 -8.5zM601 182q0 87 44 138.5t132 51.5t132 -51.5t44 -138.5t-44 -138.5t-132 -51.5t-132 51.5t-44 138.5zM731 182q0 -24 1 -36.5t4.5 -31t14 -27t26.5 -8.5t26.5 8.5t14 27t4.5 31t1 36.5t-1 36.5t-4.5 31t-14 27t-26.5 8.5t-26.5 -8.5t-14 -27
t-4.5 -31t-1 -36.5z" />
    <glyph glyph-name="ampersand" unicode="&#x26;" horiz-adv-x="741" 
d="M36 215q0 118 159 201q-56 61 -56 130q0 82 63.5 133.5t148.5 51.5q104 0 166.5 -46.5t62.5 -138.5q0 -57 -38 -106.5t-93 -77.5l55 -68q22 29 26 54h165q-19 -107 -84 -173l146 -175h-234l-40 50q-85 -67 -204 -67q-104 0 -173.5 64.5t-69.5 167.5zM353 476q23 11 40 31
t17 43q0 20 -13.5 34t-34.5 14q-20 0 -36.5 -13.5t-16.5 -35.5q0 -24 44 -73zM226 208q0 -28 20.5 -47.5t47.5 -19.5q39 0 84 43l-83 101q-69 -38 -69 -77z" />
    <glyph glyph-name="quotesingle" unicode="'" horiz-adv-x="296" 
d="M72 335v379h153v-379h-153z" />
    <glyph glyph-name="parenleft" unicode="(" horiz-adv-x="315" 
d="M150 -168q-108 220 -108 446q0 241 108 453h171q-89 -219 -89 -453q0 -219 89 -446h-171z" />
    <glyph glyph-name="parenright" unicode=")" horiz-adv-x="315" 
d="M-6 -168q89 199 89 446q0 123 -20.5 226t-68.5 227h173q106 -212 106 -453q0 -123 -25 -224.5t-81 -221.5h-173z" />
    <glyph glyph-name="asterisk" unicode="*" horiz-adv-x="463" 
d="M150 303l-90 71l85 105l-128 41l36 105l125 -43v132h110v-132l121 43l38 -105l-128 -41l80 -105l-90 -71l-79 114z" />
    <glyph glyph-name="plus" unicode="+" horiz-adv-x="600" 
d="M48 176v153h176v176h153v-176h176v-153h-176v-176h-153v176h-176z" />
    <glyph glyph-name="comma" unicode="," horiz-adv-x="334" 
d="M63 0v198h208v-157q0 -169 -122 -210q-36 -12 -86 -12v87q36 3 61.5 30t27.5 64h-89z" />
    <glyph glyph-name="hyphen" unicode="-" horiz-adv-x="407" 
d="M47 185v164h313v-164h-313z" />
    <glyph glyph-name="period" unicode="." horiz-adv-x="334" 
d="M63 0v198h208v-198h-208z" />
    <glyph glyph-name="slash" unicode="/" horiz-adv-x="426" 
d="M-1 -17l280 748h152l-280 -748h-152z" />
    <glyph glyph-name="zero" unicode="0" horiz-adv-x="668" 
d="M334 -8q-40 0 -79.5 11t-79 37.5t-69.5 66t-49 102t-19 139.5t19 139.5t49 102t69.5 66t78.5 37.5t79 11t79.5 -11t79.5 -37.5t70 -66t49 -102t19 -139.5t-19 -139.5t-49 -102t-69.5 -66t-79 -37.5t-79.5 -11zM333 145q107 0 107 203t-105 203q-30 0 -51 -14.5t-31.5 -34
t-16.5 -51t-7 -52.5t-1 -51q0 -23 1 -40.5t4 -44t10 -45t18 -36.5t29.5 -27.5t42.5 -9.5z" />
    <glyph glyph-name="one" unicode="1" horiz-adv-x="668" 
d="M279 0v401h-163v144q53 -2 97 11.5t76 49t34 90.5h164v-696h-208z" />
    <glyph glyph-name="two" unicode="2" horiz-adv-x="668" 
d="M35 0q-6 97 50 172q12 17 26 32.5t34.5 31.5t32 26t39.5 27.5t36 23t41.5 25.5t37.5 22q1 1 16 9.5t19 11.5l16.5 12t17.5 14.5t12 15t10 19t3 19.5q0 85 -84 85q-110 0 -105 -143h-188q-8 142 72 221.5t223 79.5q131 0 207.5 -55.5t76.5 -163.5q0 -43 -14.5 -80
t-34.5 -62t-55 -51.5t-62.5 -42l-71 -39.5t-67.5 -39v-1h315v-170h-603z" />
    <glyph glyph-name="three" unicode="3" horiz-adv-x="668" 
d="M34 264h190q-2 -56 27 -83q26 -31 83 -31q93 0 93 78q0 72 -93 72q-33 0 -58 -5v136q5 0 15 -1.5t20.5 -2t22.5 -0.5q95 0 95 63q0 30 -27.5 45.5t-63.5 15.5q-42 0 -70 -23t-26 -64h-188q1 117 87 182q79 58 203 58q72 0 127 -19t84.5 -48.5t43.5 -58t14 -53.5
q0 -41 -9.5 -71t-23 -44t-27 -22t-23.5 -10l-9 -2v-2q0 -1 11.5 -4.5t28.5 -12t34 -24t28.5 -47.5t11.5 -75q0 -35 -14.5 -70.5t-45.5 -70t-91 -56.5t-141 -22q-89 0 -152.5 24t-93.5 56t-45.5 75t-17.5 68t0 49z" />
    <glyph glyph-name="four" unicode="4" horiz-adv-x="668" 
d="M30 138v188l318 370h199v-388h94v-170h-94v-138h-208v138h-309zM169 308h170v195z" />
    <glyph glyph-name="five" unicode="5" horiz-adv-x="668" 
d="M16 219h197q6 -30 28 -46q29 -23 79 -23q45 0 75.5 26t30.5 67q0 45 -27 71t-73 26q-71 0 -101 -45h-186l72 401h478v-170h-324l-20 -92l2 -2q55 41 152 41q99 0 163 -59.5t64 -176.5q0 -109 -82.5 -177t-229.5 -68q-73 0 -129.5 17t-88.5 42.5t-51.5 58t-25.5 59.5
t-3 50z" />
    <glyph glyph-name="six" unicode="6" horiz-adv-x="668" 
d="M43 323q0 172 80 276.5t234 104.5q115 0 180 -46.5t82 -147.5h-183q-7 22 -29 38q-19 12 -54 12q-53 0 -83.5 -42t-37.5 -101q59 54 161 54t167.5 -60.5t65.5 -161.5q0 -124 -79 -190.5t-207 -66.5q-149 0 -223 95t-74 236zM245 246q0 -42 26.5 -69t68.5 -27q44 0 73 28
t29 68q0 38 -28 65t-74 27q-41 0 -68 -26.5t-27 -65.5z" />
    <glyph glyph-name="seven" unicode="7" horiz-adv-x="668" 
d="M170 0q0 84 38 203.5t104 213.5q55 79 85 109h-333v170h537v-162q-210 -195 -210 -523v-11h-221z" />
    <glyph glyph-name="eight" unicode="8" horiz-adv-x="668" 
d="M24 212q0 131 139 153v2q-108 29 -108 146q0 54 26.5 93.5t70 59.5t88.5 29t93 9q137 0 209.5 -55t72.5 -136q0 -54 -29.5 -94.5t-79.5 -51.5v-2q59 -6 98 -48t39 -105q0 -59 -28 -103.5t-74.5 -69t-99 -36t-108.5 -11.5q-60 0 -112 11t-98 35t-72.5 68.5t-26.5 105.5z
M332 420q105 0 105 73q0 78 -104 78q-100 0 -100 -78q0 -39 28.5 -56t70.5 -17zM222 213q0 -41 33 -59t78 -18t78.5 18t33.5 59q0 90 -110 90q-113 0 -113 -90z" />
    <glyph glyph-name="nine" unicode="9" horiz-adv-x="668" 
d="M48 183h183q6 -24 31 -37q20 -10 48 -10q98 0 125 140l-2 2q-62 -55 -156 -55q-106 0 -171 58t-65 163q0 121 84.5 190.5t208.5 69.5q74 0 131.5 -27t92 -73.5t52 -105t17.5 -125.5q0 -172 -81 -276.5t-236 -104.5q-104 0 -175.5 47t-86.5 144zM325 356q42 0 71 26t29 67
q0 42 -28 69.5t-70 27.5q-41 0 -71.5 -28t-30.5 -68t30 -67t70 -27z" />
    <glyph glyph-name="colon" unicode=":" horiz-adv-x="334" 
d="M63 321v198h208v-198h-208zM63 0v198h208v-198h-208z" />
    <glyph glyph-name="semicolon" unicode=";" horiz-adv-x="334" 
d="M63 321v198h208v-198h-208zM63 0v198h208v-157q0 -169 -122 -210q-36 -12 -86 -12v87q37 2 62 30t27 64h-89z" />
    <glyph glyph-name="less" unicode="&#x3c;" horiz-adv-x="600" 
d="M48 189v126l505 198v-161l-272 -99l272 -100v-161z" />
    <glyph glyph-name="equal" unicode="=" horiz-adv-x="600" 
d="M48 297v153h505v-153h-505zM48 56v153h505v-153h-505z" />
    <glyph glyph-name="greater" unicode="&#x3e;" horiz-adv-x="600" 
d="M48 -8v161l272 99l-272 100v161l505 -197v-126z" />
    <glyph glyph-name="question" unicode="?" horiz-adv-x="574" 
d="M182 256q-1 10 -1 38q0 98 71 138q2 1 26 12t34 17t21.5 19.5t11.5 29.5q0 51 -58 51q-34 0 -50 -24.5t-13 -60.5h-209q3 49 19.5 92.5t48 81t85.5 59.5t125 22q70 0 122.5 -19t82 -51t44.5 -66t17 -70q0 -20 -2 -37t-8 -31t-10 -24.5t-15.5 -21t-16.5 -16.5t-20 -15
t-19.5 -11.5t-22.5 -11.5l-22 -11q-34 -18 -45 -36.5t-11 -53.5h-185zM170 0v198h208v-198h-208z" />
    <glyph glyph-name="at" unicode="@" horiz-adv-x="800" 
d="M24 356q0 175 111 275t282 100q164 0 261 -84.5t97 -213.5q0 -66 -21.5 -120t-52.5 -85.5t-68.5 -53t-67.5 -29.5t-52 -8q-53 0 -57 50h-2q-33 -50 -101 -50q-75 0 -120.5 52t-45.5 129q0 100 59.5 168.5t148.5 68.5q79 0 122 -59l10 41h95l-47 -239q-4 -15 -4 -32
q0 -24 14 -24q32 0 59.5 41t27.5 119q0 113 -70.5 169.5t-187.5 56.5q-123 0 -205 -77.5t-82 -194.5q0 -122 82.5 -196t200.5 -74q125 0 204 57h114q-108 -160 -318 -160q-166 0 -276 105t-110 268zM320 334q0 -30 18.5 -52.5t47.5 -22.5q39 0 67 30t28 68q0 33 -20.5 54.5
t-51.5 21.5q-36 0 -62.5 -30t-26.5 -69z" />
    <glyph glyph-name="A" unicode="A" horiz-adv-x="722" 
d="M-8 0l263 714h215l260 -714h-228l-30 102h-227l-32 -102h-221zM293 255h135l-64 220h-2z" />
    <glyph glyph-name="B" unicode="B" horiz-adv-x="741" 
d="M57 0v714h391q67 0 114.5 -17t70.5 -45.5t33 -57t10 -59.5q0 -92 -88 -140q124 -41 124 -178q0 -101 -74.5 -159t-175.5 -58h-405zM277 436h116q38 0 56.5 13t18.5 46q0 49 -75 49h-116v-108zM277 170h129q86 0 86 68q0 65 -77 65h-138v-133z" />
    <glyph glyph-name="C" unicode="C" horiz-adv-x="759" 
d="M36 357q0 169 99 271.5t263 102.5q146 -1 227.5 -73.5t95.5 -209.5h-214q-20 105 -115 105q-71 0 -103.5 -56.5t-32.5 -139.5t32.5 -139.5t103.5 -56.5q52 0 78 31t38 88h216q0 -117 -89 -207t-237 -90q-169 0 -265.5 105.5t-96.5 268.5z" />
    <glyph glyph-name="D" unicode="D" horiz-adv-x="778" 
d="M57 0v714h361q85 0 149.5 -30t101 -81.5t54 -112.5t17.5 -132q0 -170 -91.5 -264t-273.5 -94h-318zM277 183h86q39 0 68.5 12.5t46 30.5t26.5 43.5t13 47t3 44.5q0 18 -2.5 35.5t-12.5 43.5t-27.5 44.5t-51.5 32.5t-79 14h-70v-348z" />
    <glyph glyph-name="E" unicode="E" horiz-adv-x="704" 
d="M57 0v714h591v-183h-371v-89h337v-170h-337v-89h382v-183h-602z" />
    <glyph glyph-name="F" unicode="F" 
d="M57 0v714h552v-183h-332v-89h285v-170h-285v-272h-220z" />
    <glyph glyph-name="G" unicode="G" horiz-adv-x="778" 
d="M36 350q0 79 21.5 144t56.5 108t81 73t94.5 43t98.5 13q136 0 220.5 -69.5t108.5 -197.5h-211q-6 39 -35.5 64t-68.5 25q-40 0 -69.5 -15.5t-43.5 -36t-22 -53t-9.5 -53t-1.5 -50.5q0 -23 4 -45.5t15 -48t28 -45t46.5 -32.5t67.5 -13q41 0 73.5 20.5t40.5 58.5h-97v153
h292v-393h-139l-7 73q-69 -90 -203 -90q-154 0 -247.5 105t-93.5 262z" />
    <glyph glyph-name="H" unicode="H" horiz-adv-x="759" 
d="M57 0v714h220v-248h206v248h220v-714h-220v283h-206v-283h-220z" />
    <glyph glyph-name="I" unicode="I" horiz-adv-x="333" 
d="M57 0v714h220v-714h-220z" />
    <glyph glyph-name="J" unicode="J" horiz-adv-x="611" 
d="M25 240v60h198v-41q0 -22 0.5 -33t3.5 -27.5t9 -24.5t17.5 -14.5t28.5 -6.5q53 0 53 83v478h220v-457q0 -145 -65.5 -209.5t-202.5 -64.5q-132 0 -197 68t-65 189z" />
    <glyph glyph-name="K" unicode="K" horiz-adv-x="778" 
d="M63 0v714h220v-246h2l196 246h271l-259 -279l301 -435h-274l-176 278l-61 -67v-211h-220z" />
    <glyph glyph-name="L" unicode="L" 
d="M57 0v714h220v-531h316v-183h-536z" />
    <glyph glyph-name="M" unicode="M" horiz-adv-x="944" 
d="M56 0v714h313l102 -420h2l102 420h313v-714h-208v458h-2l-124 -458h-164l-124 458h-2v-458h-208z" />
    <glyph glyph-name="N" unicode="N" horiz-adv-x="759" 
d="M58 0v714h225l208 -382h2v382h208v-714h-214l-219 390h-2v-390h-208z" />
    <glyph glyph-name="O" unicode="O" horiz-adv-x="796" 
d="M36 357q0 165 100 269.5t262 104.5t262 -104.5t100 -269.5t-100 -269.5t-262 -104.5t-262 104.5t-100 269.5zM256 357q0 -56 14 -97t36.5 -61t45 -29t46.5 -9t46.5 9t45 29t36.5 61t14 97t-14 97t-36.5 61t-45 29t-46.5 9t-46.5 -9t-45 -29t-36.5 -61t-14 -97z" />
    <glyph glyph-name="P" unicode="P" horiz-adv-x="704" 
d="M57 0v714h368q69 0 122.5 -23.5t82.5 -61t43 -78t14 -81.5q0 -125 -76 -189.5t-204 -64.5h-130v-216h-220zM277 531v-145h85q27 0 43 2t35.5 8.5t29 23t9.5 42.5q0 31 -16.5 47t-35.5 19t-52 3h-98z" />
    <glyph glyph-name="Q" unicode="Q" horiz-adv-x="796" 
d="M762 20l-99 -98l-96 99q-61 -38 -169 -38q-162 0 -262 104.5t-100 269.5t100 269.5t262 104.5t262 -104.5t100 -269.5q0 -148 -83 -250zM367 227l99 96l60 -61q14 40 14 95q0 56 -14 97t-36.5 61t-45 29t-46.5 9t-46.5 -9t-45 -29t-36.5 -61t-14 -97t14 -97t36.5 -61
t45 -29t46.5 -9q16 0 29 4z" />
    <glyph glyph-name="R" unicode="R" horiz-adv-x="741" 
d="M57 0v714h419q99 0 166 -53.5t67 -150.5q0 -60 -27.5 -110t-79.5 -69q45 -17 72 -64t33 -114q0 -6 2 -33t3.5 -45.5t6.5 -41t12 -33.5h-220q-12 40 -18 110q-2 26 -4 41t-8 36.5t-16 33t-28 20t-43 8.5h-117v-249h-220zM277 544v-142h115q97 0 97 71q0 36 -24.5 53.5
t-84.5 17.5h-103z" />
    <glyph glyph-name="S" unicode="S" horiz-adv-x="667" 
d="M12 240h220q0 -25 8 -47q19 -52 105 -52q35 0 63 15t28 50q0 26 -28 40t-126 42q-113 32 -154 56q-88 51 -88 151q0 116 83.5 176t204.5 60q128 0 211 -56t87 -177h-208q5 37 -26 57q-26 18 -65 18q-30 0 -54.5 -10.5t-24.5 -37.5q1 -14 11.5 -25.5t35.5 -21t43 -14.5
t59 -15l58 -14q44 -13 75 -26.5t62.5 -37t47.5 -59.5t16 -83q0 -67 -28.5 -116.5t-77 -76.5t-104.5 -40t-120 -13q-30 0 -64 4.5t-80.5 20.5t-82.5 42.5t-61.5 75.5t-25.5 114z" />
    <glyph glyph-name="T" unicode="T" horiz-adv-x="668" 
d="M224 0v531h-200v183h620v-183h-200v-531h-220z" />
    <glyph glyph-name="U" unicode="U" horiz-adv-x="759" 
d="M705 714v-438q0 -149 -80 -221t-245 -72t-245.5 72t-80.5 221v438h220v-389q0 -30 0.5 -45.5t6 -42t16 -40.5t32 -25t52.5 -11q30 0 50.5 11t31 25t16 40t6 42t0.5 46v389h220z" />
    <glyph glyph-name="V" unicode="V" horiz-adv-x="648" 
d="M665 714l-223 -714h-246l-213 714h222l117 -433h2l115 433h226z" />
    <glyph glyph-name="W" unicode="W" horiz-adv-x="963" 
d="M970 714l-200 -714h-214l-77 435h-2l-75 -435h-215l-194 714h216l87 -441h2l86 441h194l84 -447h2l89 447h217z" />
    <glyph glyph-name="X" unicode="X" horiz-adv-x="741" 
d="M-12 0l258 380l-235 334h258l108 -194l106 194h244l-229 -336l255 -378h-265l-122 213l-126 -213h-252z" />
    <glyph glyph-name="Y" unicode="Y" horiz-adv-x="667" 
d="M221 0v263l-251 451h243l119 -263l124 263h241l-256 -451v-263h-220z" />
    <glyph glyph-name="Z" unicode="Z" horiz-adv-x="685" 
d="M24 0v172l332 359h-313v183h603v-160l-335 -371h351v-183h-638z" />
    <glyph glyph-name="bracketleft" unicode="[" horiz-adv-x="407" 
d="M38 -168v899h332v-153h-154v-593h154v-153h-332z" />
    <glyph glyph-name="backslash" unicode="\" horiz-adv-x="426" 
d="M147 731l280 -748h-152l-280 748h152z" />
    <glyph glyph-name="bracketright" unicode="]" horiz-adv-x="407" 
d="M370 731v-899h-332v153h154v593h-154v153h332z" />
    <glyph glyph-name="asciicircum" unicode="^" horiz-adv-x="600" 
d="M65 331l174 365h122l174 -365h-153l-82 189l-82 -189h-153z" />
    <glyph glyph-name="underscore" unicode="_" horiz-adv-x="500" 
d="M0 -125v50h500v-50h-500z" />
    <glyph glyph-name="grave" unicode="`" horiz-adv-x="278" 
d="M105 572l-171 149h208l100 -149h-137z" />
    <glyph glyph-name="a" unicode="a" horiz-adv-x="611" 
d="M560 329v-213q0 -82 24 -116h-202q-9 26 -7 49h-2q-56 -62 -167 -62q-80 0 -131.5 39.5t-51.5 117.5q0 39 15.5 69t37.5 46t57 28t62 16l65.5 9.5t55.5 8.5q16 3 26.5 7t19 14t8.5 25q0 24 -19 36t-46 12q-40 0 -57 -16t-17 -37h-184q1 42 18 74t42.5 49.5t62 28.5
t70 14.5t74.5 3.5q52 0 92 -6.5t65.5 -15.5t43.5 -27t26.5 -31.5t13 -39.5t5 -39.5t0.5 -43.5zM370 185v48q-20 -10 -78 -25q-37 -9 -52 -20t-15 -36q0 -19 18 -33.5t44 -14.5q35 0 58 20.5t25 60.5z" />
    <glyph glyph-name="b" unicode="b" horiz-adv-x="648" 
d="M54 0v714h198v-252h2q49 70 142 70q50 0 89.5 -16.5t63.5 -43t40 -62.5t22 -72.5t6 -75.5q0 -69 -23 -130t-74 -103t-121 -42q-45 0 -77.5 12t-45.5 24.5t-29 33.5h-2v-57h-191zM419 260q0 128 -87 128t-87 -128q0 -129 87 -129t87 129z" />
    <glyph glyph-name="c" unicode="c" horiz-adv-x="611" 
d="M577 322h-188q-3 33 -22 49q-20 17 -50 17q-51 0 -69 -35.5t-18 -93.5q0 -37 5.5 -62.5t25.5 -45.5t56 -20q31 0 52.5 22t24.5 54h189q-14 -103 -88 -161.5t-182 -58.5q-119 0 -200 75.5t-81 196.5t81 197t200 76q109 0 182 -53.5t82 -156.5z" />
    <glyph glyph-name="d" unicode="d" horiz-adv-x="648" 
d="M594 714v-714h-191v57h-2q-16 -21 -29 -33.5t-45.5 -24.5t-77.5 -12q-70 0 -121 42t-74 103t-23 130q0 39 6 75.5t22 72.5t40 62.5t63.5 43t89.5 16.5q93 0 142 -70h2v252h198zM403 260q0 128 -87 128t-87 -128q0 -129 87 -129t87 129z" />
    <glyph glyph-name="e" unicode="e" 
d="M601 215h-380q4 -47 29.5 -74t71.5 -27q59 0 83 37h185q-29 -81 -101.5 -122.5t-165.5 -41.5q-128 0 -209.5 72t-81.5 199q0 116 76.5 195t197.5 79q295 0 295 -317zM222 318h189q0 37 -24.5 62t-62.5 25q-88 0 -102 -87z" />
    <glyph glyph-name="f" unicode="f" horiz-adv-x="389" 
d="M87 0v397h-81v122h81q-6 99 41 146q30 30 68.5 39.5t104.5 9.5q18 0 48 -2t41 -2v-136q-37 7 -48 7q-36 0 -49.5 -13t-11.5 -49h104v-122h-100v-397h-198z" />
    <glyph glyph-name="g" unicode="g" 
d="M583 519v-452q0 -37 -4.5 -66.5t-21 -65t-44.5 -59.5t-79 -40.5t-121 -16.5q-248 0 -271 173h196q1 -1 5 -7.5t6 -10.5q24 -38 58 -38q30 0 48.5 22t24 46.5t5.5 50.5v48h-2q-49 -72 -139 -72q-109 0 -165.5 71t-56.5 182q0 106 59 177t166 71q103 0 136 -76h2v63h198z
M220 285q0 -53 20.5 -90t68.5 -37q26 0 43 11t25 32t10.5 40t2.5 45q0 45 -22 73.5t-64 28.5q-41 0 -62.5 -29.5t-21.5 -73.5z" />
    <glyph glyph-name="h" unicode="h" horiz-adv-x="648" 
d="M54 0v714h198v-251h2q57 69 162 69q75 0 126.5 -45.5t51.5 -130.5v-356h-198v272q0 52 -12.5 77t-52.5 25q-79 0 -79 -100v-274h-198z" />
    <glyph glyph-name="i" unicode="i" horiz-adv-x="315" 
d="M256 714v-139h-198v139h198zM58 0v519h198v-519h-198z" />
    <glyph glyph-name="j" unicode="j" horiz-adv-x="315" 
d="M256 714v-139h-198v139h198zM-30 -168v158h33q31 0 43 13.5t12 50.5v465h198v-484q0 -69 -8.5 -106.5t-37.5 -61.5q-40 -35 -147 -35h-93z" />
    <glyph glyph-name="k" unicode="k" horiz-adv-x="611" 
d="M58 0v714h198v-345l126 150h224l-185 -196l214 -323h-238l-106 188l-35 -38v-150h-198z" />
    <glyph glyph-name="l" unicode="l" horiz-adv-x="315" 
d="M58 0v714h198v-714h-198z" />
    <glyph glyph-name="m" unicode="m" horiz-adv-x="963" 
d="M53 0v519h191v-69h2q55 82 170 82q44 0 83.5 -21.5t56.5 -59.5q1 1 8.5 10.5t20.5 20.5t32 22.5t49.5 19.5t66.5 8q92 0 135 -52t43 -124v-356h-198v281q0 45 -12 69t-53 24q-67 0 -67 -93v-281h-198v281q0 45 -12 69t-53 24q-67 0 -67 -93v-281h-198z" />
    <glyph glyph-name="n" unicode="n" horiz-adv-x="648" 
d="M54 0v519h191v-66h2q56 79 169 79q75 0 126.5 -45.5t51.5 -130.5v-356h-198v272q0 52 -12.5 77t-52.5 25q-79 0 -79 -100v-274h-198z" />
    <glyph glyph-name="o" unicode="o" 
d="M598 260q0 -116 -72.5 -194.5t-210.5 -78.5t-210.5 78.5t-72.5 194.5t72.5 194t210.5 78t210.5 -78t72.5 -194zM400 260q0 128 -85 128t-85 -128q0 -129 85 -129t85 129z" />
    <glyph glyph-name="p" unicode="p" horiz-adv-x="648" 
d="M54 -168v687h191v-57h2q16 21 29 33.5t45.5 24.5t77.5 12q70 0 121 -42t74 -103t23 -130q0 -39 -6 -75.5t-22 -72.5t-40 -62.5t-63.5 -43t-89.5 -16.5q-93 0 -142 70h-2v-225h-198zM245 259q0 -128 87 -128t87 128q0 129 -87 129t-87 -129z" />
    <glyph glyph-name="q" unicode="q" horiz-adv-x="648" 
d="M594 519v-687h-198v225h-2q-49 -70 -142 -70q-50 0 -89.5 16.5t-63.5 43t-40 62.5t-22 72.5t-6 75.5q0 69 23 130t74 103t121 42q45 0 77.5 -12t45.5 -24.5t29 -33.5h2v57h191zM403 259q0 129 -87 129t-87 -129q0 -128 87 -128t87 128z" />
    <glyph glyph-name="r" unicode="r" horiz-adv-x="444" 
d="M54 0v519h190v-83h2q25 49 59.5 72.5t86.5 23.5q26 0 58 -8v-175q-37 13 -78 13q-61 0 -90.5 -37.5t-29.5 -119.5v-205h-198z" />
    <glyph glyph-name="s" unicode="s" horiz-adv-x="574" 
d="M534 368h-180q-1 24 -23 39q-18 15 -44 15q-60 0 -60 -40q0 -17 23 -27q15 -6 77 -17.5t97 -22.5q124 -39 124 -145q0 -52 -23 -89t-62.5 -57t-83.5 -28.5t-95 -8.5q-66 0 -121.5 17t-96 60t-41.5 106h189q2 -27 24 -46q16 -15 53 -15q24 0 45.5 10t21.5 30q0 23 -20 33
t-89 22q-113 19 -162.5 57.5t-49.5 105.5q0 47 23 81t61 51t78 25t83 8q46 0 86.5 -7.5t79 -24.5t61.5 -51t25 -81z" />
    <glyph glyph-name="t" unicode="t" horiz-adv-x="407" 
d="M292 677v-158h106v-122h-106v-181q0 -38 12 -53.5t49 -15.5q23 0 45 3v-150q-20 0 -62.5 -3t-64.5 -3q-38 0 -64.5 4.5t-54.5 19t-43 47.5t-15 84v248h-88v122h88v158h198z" />
    <glyph glyph-name="u" unicode="u" horiz-adv-x="648" 
d="M594 519v-519h-191v66h-2q-56 -79 -169 -79q-75 0 -126.5 45.5t-51.5 130.5v356h198v-272q0 -52 12 -77t53 -25q79 0 79 100v274h198z" />
    <glyph glyph-name="v" unicode="v" horiz-adv-x="556" 
d="M566 519l-172 -519h-234l-170 519h209l81 -316h2l82 316h202z" />
    <glyph glyph-name="w" unicode="w" horiz-adv-x="870" 
d="M878 519l-165 -519h-203l-75 319h-2l-77 -319h-203l-162 519h206l77 -321h2l66 321h185l69 -321h4l72 321h206z" />
    <glyph glyph-name="x" unicode="x" horiz-adv-x="556" 
d="M-14 0l181 273l-163 246h218l57 -103l58 103h212l-163 -246l184 -273h-218l-76 127l-73 -127h-217z" />
    <glyph glyph-name="y" unicode="y" horiz-adv-x="556" 
d="M571 519l-188 -526q-33 -93 -81.5 -127t-156.5 -34h-110v158h78q47 0 47 42q0 18 -46 141l-129 346h212l83 -298h2l84 298h205z" />
    <glyph glyph-name="z" unicode="z" horiz-adv-x="556" 
d="M17 0v153l243 222h-221v144h475v-152l-237 -223h258v-144h-518z" />
    <glyph glyph-name="braceleft" unicode="{" horiz-adv-x="407" 
d="M369 731v-153h-35q-51 0 -51 -61v-145q0 -82 -119 -90v-2q18 -1 30.5 -2.5t31 -8t29.5 -16t19.5 -28t8.5 -43.5v-136q0 -61 58 -61h28v-153h-114q-53 0 -97.5 33.5t-44.5 94.5v180q0 26 -17.5 42t-33.5 19.5t-33 3.5v153q17 0 33 3t33.5 16.5t17.5 37.5v188
q0 61 44.5 94.5t97.5 33.5h114z" />
    <glyph glyph-name="bar" unicode="|" horiz-adv-x="222" 
d="M35 -214v1000h153v-1000h-153z" />
    <glyph glyph-name="braceright" unicode="}" horiz-adv-x="407" 
d="M38 -168v153h28q58 0 58 61v145q0 82 119 90v2q-19 1 -30.5 2.5t-30.5 7.5t-30 15.5t-19.5 28.5t-8.5 44v136q0 61 -58 61h-28v153h114q53 0 97.5 -33.5t44.5 -94.5v-180q0 -27 17 -42.5t33 -19t34 -3.5v-153q-84 0 -84 -57v-188q0 -61 -44.5 -94.5t-97.5 -33.5h-114z
" />
    <glyph glyph-name="asciitilde" unicode="~" horiz-adv-x="600" 
d="M495 367l36 -138q-27 -41 -55 -63.5t-70 -22.5q-45 0 -102 33q-57 34 -115 34q-52 0 -84 -71l-36 138q42 86 125 86q38 0 111 -32q81 -35 102 -35q19 0 36 11.5t27 24t25 35.5z" />
    <glyph glyph-name="uni00A0" unicode="&#xa0;" horiz-adv-x="334" 
 />
    <glyph glyph-name="exclamdown" unicode="&#xa1;" horiz-adv-x="315" 
d="M262 548v-198h-208v198h208zM54 -166v168l56 289h97l55 -289v-168h-208z" />
    <glyph glyph-name="cent" unicode="&#xa2;" horiz-adv-x="668" 
d="M317 -109v96q-116 0 -189 77.5t-73 198.5q0 115 73.5 192t188.5 77v80h52v-80q209 0 234 -210h-181q-4 54 -53 65v-252q53 27 57 72h182q-12 -98 -79 -159t-160 -61v-96h-52zM317 135v252q-74 -14 -72 -123q0 -112 72 -129z" />
    <glyph glyph-name="sterling" unicode="&#xa3;" horiz-adv-x="668" 
d="M619 484h-193q0 33 -14 55q-23 34 -54 34q-64 0 -64 -60q0 -14 6.5 -32t16.5 -38.5t14 -30.5h109v-127h-75q8 -34 -7.5 -69t-46.5 -57l2 -2q29 16 90 3q10 -2 30.5 -7.5t35 -8.5t27.5 -3q18 0 34.5 13.5t22 22.5t16.5 29l79 -142q-73 -81 -174 -81q-45 0 -120 23
q-70 16 -112 16q-49 0 -105 -39l-79 112q53 36 81.5 69.5t28.5 83.5q0 22 -6 37h-117v127h71q-30 41 -30 95q0 88 67.5 156t198.5 68q125 0 193 -62.5t74 -184.5z" />
    <glyph glyph-name="currency" unicode="&#xa4;" horiz-adv-x="668" 
d="M528 79l-59 60q-47 -42 -133 -42q-90 0 -136 40l-60 -58l-75 75l60 58q-40 57 -40 136q-1 80 40 135l-60 57l78 76l57 -56q19 16 57.5 27.5t78.5 11.5q39 0 76 -11.5t57 -27.5l58 56l76 -75l-58 -58q17 -20 29.5 -57.5t12.5 -77.5q0 -39 -12 -77t-30 -59l58 -58zM336 455
q-42 0 -74.5 -28t-32.5 -79t32.5 -79t74.5 -28t74.5 28t32.5 79t-32.5 79t-74.5 28z" />
    <glyph glyph-name="yen" unicode="&#xa5;" horiz-adv-x="668" 
d="M235 0v107h-161v122h161v43l-21 43h-140v122h73l-150 277h225l112 -277l112 277h225l-150 -277h73v-122h-140l-21 -43v-43h161v-122h-161v-107h-198z" />
    <glyph glyph-name="brokenbar" unicode="&#xa6;" horiz-adv-x="222" 
d="M35 411v250h153v-250h-153zM35 -89v250h153v-250h-153z" />
    <glyph glyph-name="section" unicode="&#xa7;" horiz-adv-x="667" 
d="M583 530h-172q-6 57 -65 57q-22 0 -37.5 -11t-15.5 -31q0 -11 9.5 -21.5t29 -20t33.5 -15.5t40 -15.5t32 -11.5q89 -32 122 -54q77 -51 77 -129q0 -72 -33.5 -107t-72.5 -44q52 -43 52 -107q0 -98 -73 -149t-176 -51q-112 0 -181.5 52t-67.5 160h170q10 -68 77 -68
q22 0 41.5 11.5t19.5 32.5q0 26 -14.5 39t-43.5 24l-146 59q-34 15 -57 27.5t-48.5 32.5t-38.5 47t-13 60q0 60 27.5 97t84.5 59q-40 37 -40 95q0 89 70.5 136t163.5 47q105 0 173.5 -51t72.5 -150zM201 326q0 -13 11 -24.5t31.5 -22t39.5 -18t45.5 -17t38.5 -14.5
q3 -1 17.5 -6.5l28 -10.5t17.5 -5q15 1 25.5 10t10.5 23t-6 23t-11 12t-22 12q-25 11 -158 64q-29 11 -34 11q-12 -1 -23 -12t-11 -25z" />
    <glyph glyph-name="dieresis" unicode="&#xa8;" horiz-adv-x="278" 
d="M168 581v130h170v-130h-170zM-59 581v130h170v-130h-170z" />
    <glyph glyph-name="copyright" unicode="&#xa9;" horiz-adv-x="800" 
d="M26 357q0 155 109.5 264.5t264.5 109.5t264.5 -109.5t109.5 -264.5t-109.5 -264.5t-264.5 -109.5t-264.5 109.5t-109.5 264.5zM150 357q0 -106 72.5 -181.5t177.5 -75.5t177.5 75.5t72.5 181.5t-72.5 181.5t-177.5 75.5t-177.5 -75.5t-72.5 -181.5zM483 309h100
q-12 -78 -61 -119.5t-117 -41.5q-89 0 -145 59.5t-56 148.5q0 92 54 150.5t145 58.5q70 0 117 -39.5t59 -115.5h-96q-12 52 -77 52q-44 0 -68 -28t-24 -76t26 -77.5t65 -29.5q71 0 78 58z" />
    <glyph glyph-name="ordfeminine" unicode="&#xaa;" horiz-adv-x="367" 
d="M357 583v-145q0 -30 14 -55h-131q-5 18 -5 31h-1q-34 -39 -108 -39q-51 0 -84 24.5t-33 71.5q0 24 9.5 41.5t22 27.5t35 17t38.5 9.5t43.5 6t39.5 5.5q18 3 27 8t9 19q0 29 -43 29q-19 0 -33 -9t-14 -24h-120q3 103 173 103q65 0 113 -27t48 -94zM233 492v33
q-23 -11 -51 -15q-43 -8 -43 -34q0 -15 10 -23t26 -8q52 0 58 47z" />
    <glyph glyph-name="guillemotleft" unicode="&#xab;" horiz-adv-x="444" 
d="M402 48l-163 129v177l163 129v-154l-78 -64l78 -60v-157zM205 48l-163 129v177l163 129v-154l-78 -64l78 -60v-157z" />
    <glyph glyph-name="logicalnot" unicode="&#xac;" horiz-adv-x="600" 
d="M553 450v-342h-153v189h-352v153h505z" />
    <glyph glyph-name="uni00AD" unicode="&#xad;" horiz-adv-x="407" 
d="M47 185v164h313v-164h-313z" />
    <glyph glyph-name="registered" unicode="&#xae;" horiz-adv-x="800" 
d="M26 357q0 155 109.5 264.5t264.5 109.5t264.5 -109.5t109.5 -264.5t-109.5 -264.5t-264.5 -109.5t-264.5 109.5t-109.5 264.5zM150 357q0 -106 72.5 -181.5t177.5 -75.5t177.5 75.5t72.5 181.5t-72.5 181.5t-177.5 75.5t-177.5 -75.5t-72.5 -181.5zM252 167v379h147
q85 0 126 -26t41 -93q0 -98 -100 -103l85 -157h-97l-76 151h-36v-151h-90zM342 476v-88h75q53 -2 53 49q0 39 -73 39h-55z" />
    <glyph glyph-name="macron" unicode="&#xaf;" horiz-adv-x="278" 
d="M-30 601v91h339v-91h-339z" />
    <glyph glyph-name="degree" unicode="&#xb0;" horiz-adv-x="400" 
d="M51 555q0 65 42.5 107t106.5 42t106.5 -42t42.5 -107t-42.5 -107t-106.5 -42t-106.5 42t-42.5 107zM129 555q0 -30 20.5 -50.5t50.5 -20.5t50.5 20.5t20.5 50.5t-20.5 50.5t-50.5 20.5t-50.5 -20.5t-20.5 -50.5z" />
    <glyph glyph-name="plusminus" unicode="&#xb1;" horiz-adv-x="600" 
d="M48 271v153h176v81h153v-81h176v-153h-176v-81h-153v81h-176zM48 0v153h505v-153h-505z" />
    <glyph glyph-name="twosuperior" unicode="&#xb2;" horiz-adv-x="410" 
d="M384 500v-103h-368q0 78 25 121.5t84 78.5l74 44q45 27 45 58q0 13 -10 22t-25 9q-42 0 -44 -58h-142q0 74 48 115.5t140 41.5q86 0 131 -34.5t45 -94.5q0 -42 -21 -70t-70 -57l-82 -49q-23 -14 -29 -24h199z" />
    <glyph glyph-name="threesuperior" unicode="&#xb3;" horiz-adv-x="410" 
d="M152 572v87h42q48 0 48 37q0 17 -10.5 27.5t-29.5 10.5q-45 0 -48 -46h-131q3 70 50 105.5t133 35.5q79 0 124 -32t45 -87q0 -60 -73 -83v-3q43 -7 64.5 -34.5t21.5 -65.5q0 -62 -52.5 -99t-140.5 -37q-89 0 -136.5 38.5t-47.5 105.5h136q3 -45 53 -45q25 0 39.5 12
t14.5 31q0 23 -13.5 32.5t-44.5 9.5h-44z" />
    <glyph glyph-name="acute" unicode="&#xb4;" horiz-adv-x="278" 
d="M344 721l-172 -149h-136l99 149h209z" />
    <glyph glyph-name="mu" unicode="&#xb5;" horiz-adv-x="648" 
d="M594 519v-519h-191v66h-2q-56 -77 -132 -77q-9 0 -17 2v-159h-198v687h198v-272q0 -52 12 -77t53 -25q79 0 79 100v274h198z" />
    <glyph glyph-name="paragraph" unicode="&#xb6;" horiz-adv-x="620" 
d="M241 -174v539q-108 0 -165.5 44.5t-57.5 126.5q0 100 64.5 139t181.5 39h314v-888h-136v785h-65v-785h-136z" />
    <glyph glyph-name="periodcentered" unicode="&#xb7;" horiz-adv-x="334" 
d="M47 237q0 49 35.5 84.5t84.5 35.5t84.5 -35.5t35.5 -84.5t-35.5 -84.5t-84.5 -35.5t-84.5 35.5t-35.5 84.5z" />
    <glyph glyph-name="cedilla" unicode="&#xb8;" horiz-adv-x="278" 
d="M1 -204l21 46q45 -20 86 -20q52 0 52 37q0 15 -12.5 25t-30.5 10q-20 0 -39 -10l-26 24l56 92h58l-40 -62l2 -2q12 5 42 5q40 0 70 -20.5t30 -60.5q0 -47 -39 -70t-102 -23q-69 0 -128 29z" />
    <glyph glyph-name="onesuperior" unicode="&#xb9;" horiz-adv-x="410" 
d="M297 820v-423h-144v252h-106v95h31q84 0 94 76h125z" />
    <glyph glyph-name="ordmasculine" unicode="&#xba;" horiz-adv-x="378" 
d="M10 541q0 69 47.5 116t137.5 47t137.5 -47t47.5 -116q0 -71 -47.5 -118.5t-137.5 -47.5t-137.5 47.5t-47.5 118.5zM146 541q0 -79 49 -79t49 79q0 76 -49 76t-49 -76z" />
    <glyph glyph-name="guillemotright" unicode="&#xbb;" horiz-adv-x="444" 
d="M239 483l163 -129v-177l-163 -129v157l78 60l-78 61v157zM42 483l163 -129v-177l-163 -129v157l78 60l-78 61v157z" />
    <glyph glyph-name="onequarter" unicode="&#xbc;" horiz-adv-x="1000" 
d="M227 -26l388 748h110l-388 -748h-110zM299 703v-423h-144v252h-106v95h31q84 0 94 76h125zM734 0v74h-196v96l205 253h122v-252h58v-97h-58v-74h-131zM734 171v117l-95 -117h95z" />
    <glyph glyph-name="onehalf" unicode="&#xbd;" horiz-adv-x="1000" 
d="M196 -26l388 748h110l-388 -748h-110zM299 703v-423h-144v252h-106v95h31q84 0 94 76h125zM911 103v-103h-368q0 78 25 121.5t84 78.5l74 44q45 27 45 58q0 13 -10 22t-25 9q-42 0 -44 -58h-142q0 74 48 115.5t140 41.5q86 0 131 -34.5t45 -94.5q0 -42 -21 -70t-70 -57
l-82 -49q-23 -14 -29 -24h199z" />
    <glyph glyph-name="threequarters" unicode="&#xbe;" horiz-adv-x="1000" 
d="M274 -26l388 748h110l-388 -748h-110zM185 455v87h42q48 0 48 37q0 17 -10.5 27.5t-29.5 10.5q-45 0 -48 -46h-131q3 70 50 105.5t133 35.5q79 0 124 -32t45 -87q0 -60 -73 -83v-3q43 -7 64.5 -34.5t21.5 -65.5q0 -62 -52.5 -99t-140.5 -37q-89 0 -136.5 38.5
t-47.5 105.5h136q3 -45 53 -45q25 0 39.5 12t14.5 31q0 23 -13.5 32.5t-44.5 9.5h-44zM740 0v74h-196v96l205 253h122v-252h58v-97h-58v-74h-131zM740 171v117l-95 -117h95z" />
    <glyph glyph-name="questiondown" unicode="&#xbf;" horiz-adv-x="574" 
d="M404 548v-198h-208v198h208zM351 74h208q-6 -123 -80 -189t-197 -66q-67 0 -126 21.5t-100 70.5t-41 117q0 64 24.5 94.5t71.5 53.5q26 13 36 19t28 20.5t25 32.5t7 42h186q0 -83 -22 -122t-60 -59q-8 -5 -36 -17t-37 -23t-9 -34q0 -21 15 -33.5t37 -12.5q41 0 55.5 21
t14.5 64z" />
    <glyph glyph-name="Agrave" unicode="&#xc0;" horiz-adv-x="722" 
d="M-8 0l263 714h215l260 -714h-228l-30 102h-227l-32 -102h-221zM293 255h135l-64 220h-2zM316 766l-171 149h208l100 -149h-137z" />
    <glyph glyph-name="Aacute" unicode="&#xc1;" horiz-adv-x="722" 
d="M-8 0l263 714h215l260 -714h-228l-30 102h-227l-32 -102h-221zM293 255h135l-64 220h-2zM578 915l-172 -149h-136l99 149h209z" />
    <glyph glyph-name="Acircumflex" unicode="&#xc2;" horiz-adv-x="722" 
d="M-8 0l263 714h215l260 -714h-228l-30 102h-227l-32 -102h-221zM293 255h135l-64 220h-2zM161 766l121 149h164l122 -149h-147l-57 76l-56 -76h-147z" />
    <glyph glyph-name="Atilde" unicode="&#xc3;" horiz-adv-x="722" 
d="M-8 0l263 714h215l260 -714h-228l-30 102h-227l-32 -102h-221zM293 255h135l-64 220h-2zM246 768h-79q0 34 9 64t35.5 54t67.5 24q44 0 93 -20t59 -20q36 0 45 43h82q-2 -60 -32.5 -99.5t-83.5 -39.5q-42 0 -89 19q-50 18 -66 18t-27 -13t-14 -30z" />
    <glyph glyph-name="Adieresis" unicode="&#xc4;" horiz-adv-x="722" 
d="M-8 0l263 714h215l260 -714h-228l-30 102h-227l-32 -102h-221zM293 255h135l-64 220h-2zM391 775v130h170v-130h-170zM164 775v130h170v-130h-170z" />
    <glyph glyph-name="Aring" unicode="&#xc5;" horiz-adv-x="722" 
d="M-8 0l263 714h215l260 -714h-228l-30 102h-227l-32 -102h-221zM293 255h135l-64 220h-2zM250 848q0 48 32.5 79.5t80.5 31.5t80 -31.5t32 -79.5q0 -47 -32.5 -78.5t-79.5 -31.5q-48 0 -80.5 31.5t-32.5 78.5zM310 848q0 -24 15 -38.5t38 -14.5t37.5 15t14.5 38t-15 37.5
t-37 14.5t-37.5 -14.5t-15.5 -37.5z" />
    <glyph glyph-name="AE" unicode="&#xc6;" horiz-adv-x="1056" 
d="M-16 0l325 714h690v-183h-324v-89h302v-170h-302v-89h336v-183h-544v105h-211l-43 -105h-229zM467 249v282h-29l-123 -282h152z" />
    <glyph glyph-name="Ccedilla" unicode="&#xc7;" horiz-adv-x="759" 
d="M238 -204l21 46q45 -20 86 -20q52 0 52 37q0 15 -12.5 25t-30.5 10q-20 0 -39 -10l-26 24l48 79q-142 19 -221.5 120.5t-79.5 249.5q0 169 99 271.5t263 102.5q146 -1 227.5 -73.5t95.5 -209.5h-214q-20 105 -115 105q-71 0 -103.5 -56.5t-32.5 -139.5t32.5 -139.5
t103.5 -56.5q52 0 78 31t38 88h216q0 -117 -89 -207t-237 -90h-6l-29 -45l2 -2q12 5 42 5q40 0 70 -20.5t30 -60.5q0 -47 -39 -70t-102 -23q-69 0 -128 29z" />
    <glyph glyph-name="Egrave" unicode="&#xc8;" horiz-adv-x="704" 
d="M57 0v714h591v-183h-371v-89h337v-170h-337v-89h382v-183h-602zM336 766l-171 149h208l100 -149h-137z" />
    <glyph glyph-name="Eacute" unicode="&#xc9;" horiz-adv-x="704" 
d="M57 0v714h591v-183h-371v-89h337v-170h-337v-89h382v-183h-602zM570 915l-172 -149h-136l99 149h209z" />
    <glyph glyph-name="Ecircumflex" unicode="&#xca;" horiz-adv-x="704" 
d="M57 0v714h591v-183h-371v-89h337v-170h-337v-89h382v-183h-602zM147 766l121 149h164l122 -149h-147l-57 76l-56 -76h-147z" />
    <glyph glyph-name="Edieresis" unicode="&#xcb;" horiz-adv-x="704" 
d="M57 0v714h591v-183h-371v-89h337v-170h-337v-89h382v-183h-602zM376 775v130h170v-130h-170zM149 775v130h170v-130h-170z" />
    <glyph glyph-name="Igrave" unicode="&#xcc;" horiz-adv-x="333" 
d="M57 0v714h220v-714h-220zM140 766l-171 149h208l100 -149h-137z" />
    <glyph glyph-name="Iacute" unicode="&#xcd;" horiz-adv-x="333" 
d="M57 0v714h220v-714h-220zM366 915l-172 -149h-136l99 149h209z" />
    <glyph glyph-name="Icircumflex" unicode="&#xce;" horiz-adv-x="333" 
d="M57 0v714h220v-714h-220zM-35 766l121 149h164l122 -149h-147l-57 76l-56 -76h-147z" />
    <glyph glyph-name="Idieresis" unicode="&#xcf;" horiz-adv-x="333" 
d="M57 0v714h220v-714h-220zM196 775v130h170v-130h-170zM-31 775v130h170v-130h-170z" />
    <glyph glyph-name="Eth" unicode="&#xd0;" horiz-adv-x="778" 
d="M57 0v310h-56v122h56v282h361q85 0 149.5 -30t101 -81.5t54 -113t17.5 -132.5q0 -169 -91.5 -263t-273.5 -94h-318zM277 531v-99h136v-122h-136v-127h86q39 0 68.5 12.5t46 30.5t26.5 43.5t13 47t3 44.5q0 18 -2.5 35.5t-12.5 43.5t-27.5 44.5t-51.5 32.5t-79 14h-70z
" />
    <glyph glyph-name="Ntilde" unicode="&#xd1;" horiz-adv-x="759" 
d="M58 0v714h225l208 -382h2v382h208v-714h-214l-219 390h-2v-390h-208zM268 768h-79q0 34 9 64t35.5 54t67.5 24q44 0 93 -20t59 -20q36 0 45 43h82q-2 -60 -32.5 -99.5t-83.5 -39.5q-42 0 -89 19q-50 18 -66 18t-27 -13t-14 -30z" />
    <glyph glyph-name="Ograve" unicode="&#xd2;" horiz-adv-x="796" 
d="M36 357q0 165 100 269.5t262 104.5t262 -104.5t100 -269.5t-100 -269.5t-262 -104.5t-262 104.5t-100 269.5zM256 357q0 -56 14 -97t36.5 -61t45 -29t46.5 -9t46.5 9t45 29t36.5 61t14 97t-14 97t-36.5 61t-45 29t-46.5 9t-46.5 -9t-45 -29t-36.5 -61t-14 -97zM345 766
l-171 149h208l100 -149h-137z" />
    <glyph glyph-name="Oacute" unicode="&#xd3;" horiz-adv-x="796" 
d="M36 357q0 165 100 269.5t262 104.5t262 -104.5t100 -269.5t-100 -269.5t-262 -104.5t-262 104.5t-100 269.5zM256 357q0 -56 14 -97t36.5 -61t45 -29t46.5 -9t46.5 9t45 29t36.5 61t14 97t-14 97t-36.5 61t-45 29t-46.5 9t-46.5 -9t-45 -29t-36.5 -61t-14 -97zM619 915
l-172 -149h-136l99 149h209z" />
    <glyph glyph-name="Ocircumflex" unicode="&#xd4;" horiz-adv-x="796" 
d="M36 357q0 165 100 269.5t262 104.5t262 -104.5t100 -269.5t-100 -269.5t-262 -104.5t-262 104.5t-100 269.5zM256 357q0 -56 14 -97t36.5 -61t45 -29t46.5 -9t46.5 9t45 29t36.5 61t14 97t-14 97t-36.5 61t-45 29t-46.5 9t-46.5 -9t-45 -29t-36.5 -61t-14 -97zM197 766
l121 149h164l122 -149h-147l-57 76l-56 -76h-147z" />
    <glyph glyph-name="Otilde" unicode="&#xd5;" horiz-adv-x="796" 
d="M36 357q0 165 100 269.5t262 104.5t262 -104.5t100 -269.5t-100 -269.5t-262 -104.5t-262 104.5t-100 269.5zM256 357q0 -56 14 -97t36.5 -61t45 -29t46.5 -9t46.5 9t45 29t36.5 61t14 97t-14 97t-36.5 61t-45 29t-46.5 9t-46.5 -9t-45 -29t-36.5 -61t-14 -97zM284 768
h-79q0 34 9 64t35.5 54t67.5 24q44 0 93 -20t59 -20q36 0 45 43h82q-2 -60 -32.5 -99.5t-83.5 -39.5q-42 0 -89 19q-50 18 -66 18t-27 -13t-14 -30z" />
    <glyph glyph-name="Odieresis" unicode="&#xd6;" horiz-adv-x="796" 
d="M36 357q0 165 100 269.5t262 104.5t262 -104.5t100 -269.5t-100 -269.5t-262 -104.5t-262 104.5t-100 269.5zM256 357q0 -56 14 -97t36.5 -61t45 -29t46.5 -9t46.5 9t45 29t36.5 61t14 97t-14 97t-36.5 61t-45 29t-46.5 9t-46.5 -9t-45 -29t-36.5 -61t-14 -97zM427 775
v130h170v-130h-170zM200 775v130h170v-130h-170z" />
    <glyph glyph-name="multiply" unicode="&#xd7;" horiz-adv-x="600" 
d="M159 4l-108 108l141 141l-141 141l108 108l141 -141l141 142l108 -108l-141 -142l141 -141l-109 -108l-140 141z" />
    <glyph glyph-name="Oslash" unicode="&#xd8;" horiz-adv-x="796" 
d="M714 745l46 -39l-87 -95q87 -99 87 -254q0 -165 -100 -269.5t-262 -104.5q-133 0 -227 74l-85 -94l-45 42l86 94q-91 103 -91 258q0 165 100 269.5t262 104.5q139 0 232 -78zM271 258l226 249q-41 46 -99 46q-24 0 -46.5 -9t-45 -29t-36.5 -61t-14 -97q0 -54 15 -99z
M527 450l-224 -247q38 -42 95 -42q24 0 46.5 9t45 29t36.5 61t14 97q0 49 -13 93z" />
    <glyph glyph-name="Ugrave" unicode="&#xd9;" horiz-adv-x="759" 
d="M705 714v-438q0 -149 -80 -221t-245 -72t-245.5 72t-80.5 221v438h220v-389q0 -30 0.5 -45.5t6 -42t16 -40.5t32 -25t52.5 -11q30 0 50.5 11t31 25t16 40t6 42t0.5 46v389h220zM319 766l-171 149h208l100 -149h-137z" />
    <glyph glyph-name="Uacute" unicode="&#xda;" horiz-adv-x="759" 
d="M705 714v-438q0 -149 -80 -221t-245 -72t-245.5 72t-80.5 221v438h220v-389q0 -30 0.5 -45.5t6 -42t16 -40.5t32 -25t52.5 -11q30 0 50.5 11t31 25t16 40t6 42t0.5 46v389h220zM615 915l-172 -149h-136l99 149h209z" />
    <glyph glyph-name="Ucircumflex" unicode="&#xdb;" horiz-adv-x="759" 
d="M705 714v-438q0 -149 -80 -221t-245 -72t-245.5 72t-80.5 221v438h220v-389q0 -30 0.5 -45.5t6 -42t16 -40.5t32 -25t52.5 -11q30 0 50.5 11t31 25t16 40t6 42t0.5 46v389h220zM173 766l121 149h164l122 -149h-147l-57 76l-56 -76h-147z" />
    <glyph glyph-name="Udieresis" unicode="&#xdc;" horiz-adv-x="759" 
d="M705 714v-438q0 -149 -80 -221t-245 -72t-245.5 72t-80.5 221v438h220v-389q0 -30 0.5 -45.5t6 -42t16 -40.5t32 -25t52.5 -11q30 0 50.5 11t31 25t16 40t6 42t0.5 46v389h220zM409 775v130h170v-130h-170zM182 775v130h170v-130h-170z" />
    <glyph glyph-name="Yacute" unicode="&#xdd;" horiz-adv-x="667" 
d="M221 0v263l-251 451h243l119 -263l124 263h241l-256 -451v-263h-220zM573 915l-172 -149h-136l99 149h209z" />
    <glyph glyph-name="Thorn" unicode="&#xde;" horiz-adv-x="704" 
d="M57 0v714h220v-84h148q69 0 122.5 -23.5t82.5 -61t43 -78t14 -81.5q0 -125 -76 -189.5t-204 -64.5h-130v-132h-220zM277 447v-145h85q27 0 43 2t35.5 8.5t29 23t9.5 42.5q0 31 -16.5 47t-35.5 19t-52 3h-98z" />
    <glyph glyph-name="germandbls" unicode="&#xdf;" horiz-adv-x="648" 
d="M58 0v466q0 124 69 194.5t195 70.5q118 0 187.5 -55t69.5 -138q0 -34 -9 -61t-27 -44.5t-25.5 -23.5t-22.5 -14v-2q5 0 16.5 -3.5t31 -15.5t36 -30t28.5 -51.5t12 -75.5q0 -100 -64.5 -161.5t-164.5 -61.5q-53 0 -94 7v152q21 -6 41 -6q38 0 61 26t23 64q0 54 -33.5 74
t-91.5 20v110q23 0 37.5 2t30.5 8t23.5 20.5t7.5 36.5q0 65 -68 65q-71 0 -71 -90v-483h-198z" />
    <glyph glyph-name="agrave" unicode="&#xe0;" horiz-adv-x="611" 
d="M560 329v-213q0 -82 24 -116h-202q-9 26 -7 49h-2q-56 -62 -167 -62q-80 0 -131.5 39.5t-51.5 117.5q0 39 15.5 69t37.5 46t57 28t62 16l65.5 9.5t55.5 8.5q16 3 26.5 7t19 14t8.5 25q0 24 -19 36t-46 12q-40 0 -57 -16t-17 -37h-184q1 42 18 74t42.5 49.5t62 28.5
t70 14.5t74.5 3.5q52 0 92 -6.5t65.5 -15.5t43.5 -27t26.5 -31.5t13 -39.5t5 -39.5t0.5 -43.5zM370 185v48q-20 -10 -78 -25q-37 -9 -52 -20t-15 -36q0 -19 18 -33.5t44 -14.5q35 0 58 20.5t25 60.5zM305 572l-171 149h208l100 -149h-137z" />
    <glyph glyph-name="aacute" unicode="&#xe1;" horiz-adv-x="611" 
d="M560 329v-213q0 -82 24 -116h-202q-9 26 -7 49h-2q-56 -62 -167 -62q-80 0 -131.5 39.5t-51.5 117.5q0 39 15.5 69t37.5 46t57 28t62 16l65.5 9.5t55.5 8.5q16 3 26.5 7t19 14t8.5 25q0 24 -19 36t-46 12q-40 0 -57 -16t-17 -37h-184q1 42 18 74t42.5 49.5t62 28.5
t70 14.5t74.5 3.5q52 0 92 -6.5t65.5 -15.5t43.5 -27t26.5 -31.5t13 -39.5t5 -39.5t0.5 -43.5zM370 185v48q-20 -10 -78 -25q-37 -9 -52 -20t-15 -36q0 -19 18 -33.5t44 -14.5q35 0 58 20.5t25 60.5zM539 721l-172 -149h-136l99 149h209z" />
    <glyph glyph-name="acircumflex" unicode="&#xe2;" horiz-adv-x="611" 
d="M560 329v-213q0 -82 24 -116h-202q-9 26 -7 49h-2q-56 -62 -167 -62q-80 0 -131.5 39.5t-51.5 117.5q0 39 15.5 69t37.5 46t57 28t62 16l65.5 9.5t55.5 8.5q16 3 26.5 7t19 14t8.5 25q0 24 -19 36t-46 12q-40 0 -57 -16t-17 -37h-184q1 42 18 74t42.5 49.5t62 28.5
t70 14.5t74.5 3.5q52 0 92 -6.5t65.5 -15.5t43.5 -27t26.5 -31.5t13 -39.5t5 -39.5t0.5 -43.5zM370 185v48q-20 -10 -78 -25q-37 -9 -52 -20t-15 -36q0 -19 18 -33.5t44 -14.5q35 0 58 20.5t25 60.5zM115 572l121 149h164l122 -149h-147l-57 76l-56 -76h-147z" />
    <glyph glyph-name="atilde" unicode="&#xe3;" horiz-adv-x="611" 
d="M560 329v-213q0 -82 24 -116h-202q-9 26 -7 49h-2q-56 -62 -167 -62q-80 0 -131.5 39.5t-51.5 117.5q0 39 15.5 69t37.5 46t57 28t62 16l65.5 9.5t55.5 8.5q16 3 26.5 7t19 14t8.5 25q0 24 -19 36t-46 12q-40 0 -57 -16t-17 -37h-184q1 42 18 74t42.5 49.5t62 28.5
t70 14.5t74.5 3.5q52 0 92 -6.5t65.5 -15.5t43.5 -27t26.5 -31.5t13 -39.5t5 -39.5t0.5 -43.5zM370 185v48q-20 -10 -78 -25q-37 -9 -52 -20t-15 -36q0 -19 18 -33.5t44 -14.5q35 0 58 20.5t25 60.5zM200 574h-79q0 34 9 64t35.5 54t67.5 24q44 0 93 -20t59 -20q36 0 45 43
h82q-2 -60 -32.5 -99.5t-83.5 -39.5q-42 0 -89 19q-50 18 -66 18t-27 -13t-14 -30z" />
    <glyph glyph-name="adieresis" unicode="&#xe4;" horiz-adv-x="611" 
d="M560 329v-213q0 -82 24 -116h-202q-9 26 -7 49h-2q-56 -62 -167 -62q-80 0 -131.5 39.5t-51.5 117.5q0 39 15.5 69t37.5 46t57 28t62 16l65.5 9.5t55.5 8.5q16 3 26.5 7t19 14t8.5 25q0 24 -19 36t-46 12q-40 0 -57 -16t-17 -37h-184q1 42 18 74t42.5 49.5t62 28.5
t70 14.5t74.5 3.5q52 0 92 -6.5t65.5 -15.5t43.5 -27t26.5 -31.5t13 -39.5t5 -39.5t0.5 -43.5zM370 185v48q-20 -10 -78 -25q-37 -9 -52 -20t-15 -36q0 -19 18 -33.5t44 -14.5q35 0 58 20.5t25 60.5zM346 581v130h170v-130h-170zM119 581v130h170v-130h-170z" />
    <glyph glyph-name="aring" unicode="&#xe5;" horiz-adv-x="611" 
d="M560 329v-213q0 -82 24 -116h-202q-9 26 -7 49h-2q-56 -62 -167 -62q-80 0 -131.5 39.5t-51.5 117.5q0 39 15.5 69t37.5 46t57 28t62 16l65.5 9.5t55.5 8.5q16 3 26.5 7t19 14t8.5 25q0 24 -19 36t-46 12q-40 0 -57 -16t-17 -37h-184q1 42 18 74t42.5 49.5t62 28.5
t70 14.5t74.5 3.5q52 0 92 -6.5t65.5 -15.5t43.5 -27t26.5 -31.5t13 -39.5t5 -39.5t0.5 -43.5zM370 185v48q-20 -10 -78 -25q-37 -9 -52 -20t-15 -36q0 -19 18 -33.5t44 -14.5q35 0 58 20.5t25 60.5zM196 666q0 48 32.5 79.5t80.5 31.5t80 -31.5t32 -79.5q0 -47 -32.5 -78.5
t-79.5 -31.5q-48 0 -80.5 31.5t-32.5 78.5zM256 666q0 -24 15 -38.5t38 -14.5t37.5 15t14.5 38t-15 37.5t-37 14.5t-37.5 -14.5t-15.5 -37.5z" />
    <glyph glyph-name="ae" unicode="&#xe6;" horiz-adv-x="962" 
d="M931 215h-372q5 -101 99 -101q22 0 43 11.5t32 25.5h186q-21 -74 -95 -119t-163 -45q-78 0 -119.5 15t-78.5 54q-82 -69 -248 -69q-36 0 -67 8t-58 25.5t-42.5 49.5t-15.5 77q0 33 10.5 59.5t31 43.5t41.5 28.5t53 18.5t54 10.5t55.5 7.5t47.5 6q64 12 64 46q0 48 -69 48
q-72 0 -79 -53h-186q4 170 259 170q119 0 182 -56q57 56 166 56q94 0 158 -46t89.5 -115.5t21.5 -155.5zM559 318h176q1 39 -23 63t-65 24q-47 0 -67.5 -26.5t-20.5 -60.5zM389 195v42q-23 -13 -88 -29q-33 -6 -50 -18.5t-17 -41.5q0 -18 19 -31t50 -13q42 0 64 26t22 65z
" />
    <glyph glyph-name="ccedilla" unicode="&#xe7;" horiz-adv-x="611" 
d="M165 -204l21 46q45 -20 86 -20q52 0 52 37q0 15 -12.5 25t-30.5 10q-20 0 -39 -10l-26 24l50 82q-103 15 -168.5 88t-65.5 181q0 121 81 197t200 76q109 0 182 -53.5t82 -156.5h-188q-3 33 -22 49q-20 17 -50 17q-51 0 -69 -35.5t-18 -93.5q0 -37 5.5 -62.5t25.5 -45.5
t56 -20q31 0 52.5 22t24.5 54h189q-14 -101 -86 -159.5t-176 -60.5l-31 -49l2 -2q12 5 42 5q40 0 70 -20.5t30 -60.5q0 -47 -39 -70t-102 -23q-69 0 -128 29z" />
    <glyph glyph-name="egrave" unicode="&#xe8;" 
d="M601 215h-380q4 -47 29.5 -74t71.5 -27q59 0 83 37h185q-29 -81 -101.5 -122.5t-165.5 -41.5q-128 0 -209.5 72t-81.5 199q0 116 76.5 195t197.5 79q295 0 295 -317zM222 318h189q0 37 -24.5 62t-62.5 25q-88 0 -102 -87zM253 572l-171 149h208l100 -149h-137z" />
    <glyph glyph-name="eacute" unicode="&#xe9;" 
d="M601 215h-380q4 -47 29.5 -74t71.5 -27q59 0 83 37h185q-29 -81 -101.5 -122.5t-165.5 -41.5q-128 0 -209.5 72t-81.5 199q0 116 76.5 195t197.5 79q295 0 295 -317zM222 318h189q0 37 -24.5 62t-62.5 25q-88 0 -102 -87zM541 721l-172 -149h-136l99 149h209z" />
    <glyph glyph-name="ecircumflex" unicode="&#xea;" 
d="M601 215h-380q4 -47 29.5 -74t71.5 -27q59 0 83 37h185q-29 -81 -101.5 -122.5t-165.5 -41.5q-128 0 -209.5 72t-81.5 199q0 116 76.5 195t197.5 79q295 0 295 -317zM222 318h189q0 37 -24.5 62t-62.5 25q-88 0 -102 -87zM117 572l121 149h164l122 -149h-147l-57 76
l-56 -76h-147z" />
    <glyph glyph-name="edieresis" unicode="&#xeb;" 
d="M601 215h-380q4 -47 29.5 -74t71.5 -27q59 0 83 37h185q-29 -81 -101.5 -122.5t-165.5 -41.5q-128 0 -209.5 72t-81.5 199q0 116 76.5 195t197.5 79q295 0 295 -317zM222 318h189q0 37 -24.5 62t-62.5 25q-88 0 -102 -87zM348 581v130h170v-130h-170zM121 581v130h170
v-130h-170z" />
    <glyph glyph-name="igrave" unicode="&#xec;" horiz-adv-x="315" 
d="M256 0h-198v519h198v-519zM118 572l-171 149h208l100 -149h-137z" />
    <glyph glyph-name="iacute" unicode="&#xed;" horiz-adv-x="315" 
d="M256 0h-198v519h198v-519zM366 721l-172 -149h-136l99 149h209z" />
    <glyph glyph-name="icircumflex" unicode="&#xee;" horiz-adv-x="315" 
d="M256 0h-198v519h198v-519zM-45 572l121 149h164l122 -149h-147l-57 76l-56 -76h-147z" />
    <glyph glyph-name="idieresis" unicode="&#xef;" horiz-adv-x="315" 
d="M256 0h-198v519h198v-519zM188 581v130h170v-130h-170zM-39 581v130h170v-130h-170z" />
    <glyph glyph-name="eth" unicode="&#xf0;" 
d="M291 563l-100 -54l-54 61l82 44q-37 24 -88 45l120 87q55 -19 108 -53l92 50l55 -62l-75 -40q84 -74 125.5 -155.5t41.5 -187.5q0 -45 -7.5 -86t-27.5 -83t-51 -72.5t-82 -50t-116 -19.5q-136 0 -209 69t-73 192q0 55 17 99.5t42.5 71.5t58.5 44.5t62.5 24.5t56.5 7
q58 0 97 -15l2 2q-30 50 -77 81zM314 131q86 0 86 121q0 116 -86 116q-84 0 -84 -116q0 -121 84 -121z" />
    <glyph glyph-name="ntilde" unicode="&#xf1;" horiz-adv-x="648" 
d="M54 0v519h191v-66h2q56 79 169 79q75 0 126.5 -45.5t51.5 -130.5v-356h-198v272q0 52 -12.5 77t-52.5 25q-79 0 -79 -100v-274h-198zM206 574h-79q0 34 9 64t35.5 54t67.5 24q44 0 93 -20t59 -20q36 0 45 43h82q-2 -60 -32.5 -99.5t-83.5 -39.5q-42 0 -89 19
q-50 18 -66 18t-27 -13t-14 -30z" />
    <glyph glyph-name="ograve" unicode="&#xf2;" 
d="M598 260q0 -116 -72.5 -194.5t-210.5 -78.5t-210.5 78.5t-72.5 194.5t72.5 194t210.5 78t210.5 -78t72.5 -194zM400 260q0 128 -85 128t-85 -128q0 -129 85 -129t85 129zM258 572l-171 149h208l100 -149h-137z" />
    <glyph glyph-name="oacute" unicode="&#xf3;" 
d="M598 260q0 -116 -72.5 -194.5t-210.5 -78.5t-210.5 78.5t-72.5 194.5t72.5 194t210.5 78t210.5 -78t72.5 -194zM400 260q0 128 -85 128t-85 -128q0 -129 85 -129t85 129zM542 721l-172 -149h-136l99 149h209z" />
    <glyph glyph-name="ocircumflex" unicode="&#xf4;" 
d="M598 260q0 -116 -72.5 -194.5t-210.5 -78.5t-210.5 78.5t-72.5 194.5t72.5 194t210.5 78t210.5 -78t72.5 -194zM400 260q0 128 -85 128t-85 -128q0 -129 85 -129t85 129zM113 572l121 149h164l122 -149h-147l-57 76l-56 -76h-147z" />
    <glyph glyph-name="otilde" unicode="&#xf5;" 
d="M598 260q0 -116 -72.5 -194.5t-210.5 -78.5t-210.5 78.5t-72.5 194.5t72.5 194t210.5 78t210.5 -78t72.5 -194zM400 260q0 128 -85 128t-85 -128q0 -129 85 -129t85 129zM199 574h-79q0 34 9 64t35.5 54t67.5 24q44 0 93 -20t59 -20q36 0 45 43h82q-2 -60 -32.5 -99.5
t-83.5 -39.5q-42 0 -89 19q-50 18 -66 18t-27 -13t-14 -30z" />
    <glyph glyph-name="odieresis" unicode="&#xf6;" 
d="M598 260q0 -116 -72.5 -194.5t-210.5 -78.5t-210.5 78.5t-72.5 194.5t72.5 194t210.5 78t210.5 -78t72.5 -194zM400 260q0 128 -85 128t-85 -128q0 -129 85 -129t85 129zM343 581v130h170v-130h-170zM116 581v130h170v-130h-170z" />
    <glyph glyph-name="divide" unicode="&#xf7;" horiz-adv-x="600" 
d="M301 358q-42 0 -71.5 29.5t-29.5 71.5t29.5 72t71.5 30t71.5 -30t29.5 -72t-29.5 -71.5t-71.5 -29.5zM48 176v153h505v-153h-505zM301 147q42 0 71.5 -29.5t29.5 -71.5t-29.5 -72t-71.5 -30t-71.5 30t-29.5 72t29.5 71.5t71.5 29.5z" />
    <glyph glyph-name="oslash" unicode="&#xf8;" 
d="M534 546l35 -31l-48 -56q77 -76 77 -199q0 -116 -72.5 -194.5t-210.5 -78.5q-99 0 -166 42l-55 -64l-36 33l53 61q-79 73 -79 201q0 116 72.5 194t210.5 78q100 0 169 -44zM236 202l138 160q-20 26 -59 26q-85 0 -85 -128q0 -35 6 -58zM395 314l-137 -159q20 -24 57 -24
q85 0 85 129q0 30 -5 54z" />
    <glyph glyph-name="ugrave" unicode="&#xf9;" horiz-adv-x="648" 
d="M594 519v-519h-191v66h-2q-56 -79 -169 -79q-75 0 -126.5 45.5t-51.5 130.5v356h198v-272q0 -52 12 -77t53 -25q79 0 79 100v274h198zM254 572l-171 149h208l100 -149h-137z" />
    <glyph glyph-name="uacute" unicode="&#xfa;" horiz-adv-x="648" 
d="M594 519v-519h-191v66h-2q-56 -79 -169 -79q-75 0 -126.5 45.5t-51.5 130.5v356h198v-272q0 -52 12 -77t53 -25q79 0 79 100v274h198zM557 721l-172 -149h-136l99 149h209z" />
    <glyph glyph-name="ucircumflex" unicode="&#xfb;" horiz-adv-x="648" 
d="M594 519v-519h-191v66h-2q-56 -79 -169 -79q-75 0 -126.5 45.5t-51.5 130.5v356h198v-272q0 -52 12 -77t53 -25q79 0 79 100v274h198zM120 572l121 149h164l122 -149h-147l-57 76l-56 -76h-147z" />
    <glyph glyph-name="udieresis" unicode="&#xfc;" horiz-adv-x="648" 
d="M594 519v-519h-191v66h-2q-56 -79 -169 -79q-75 0 -126.5 45.5t-51.5 130.5v356h198v-272q0 -52 12 -77t53 -25q79 0 79 100v274h198zM354 581v130h170v-130h-170zM127 581v130h170v-130h-170z" />
    <glyph glyph-name="yacute" unicode="&#xfd;" horiz-adv-x="556" 
d="M571 519l-188 -526q-33 -93 -81.5 -127t-156.5 -34h-110v158h78q47 0 47 42q0 18 -46 141l-129 346h212l83 -298h2l84 298h205zM522 721l-172 -149h-136l99 149h209z" />
    <glyph glyph-name="thorn" unicode="&#xfe;" horiz-adv-x="648" 
d="M54 -168v882h198v-252h2q49 70 142 70q50 0 89.5 -16.5t63.5 -43t40 -62.5t22 -72.5t6 -75.5q0 -41 -6 -78t-22 -73.5t-40 -63.5t-63.5 -43.5t-89.5 -16.5q-93 0 -142 70h-2v-225h-198zM245 259q0 -128 87 -128t87 128q0 129 -87 129t-87 -129z" />
    <glyph glyph-name="ydieresis" unicode="&#xff;" horiz-adv-x="556" 
d="M571 519l-188 -526q-33 -93 -81.5 -127t-156.5 -34h-110v158h78q47 0 47 42q0 18 -46 141l-129 346h212l83 -298h2l84 298h205zM310 581v130h170v-130h-170zM83 581v130h170v-130h-170z" />
    <glyph glyph-name="Amacron" unicode="&#x100;" horiz-adv-x="722" 
d="M-8 0l263 714h215l260 -714h-228l-30 102h-227l-32 -102h-221zM293 255h135l-64 220h-2zM194 795v91h339v-91h-339z" />
    <glyph glyph-name="amacron" unicode="&#x101;" horiz-adv-x="611" 
d="M560 329v-213q0 -82 24 -116h-202q-9 26 -7 49h-2q-56 -62 -167 -62q-80 0 -131.5 39.5t-51.5 117.5q0 39 15.5 69t37.5 46t57 28t62 16l65.5 9.5t55.5 8.5q16 3 26.5 7t19 14t8.5 25q0 24 -19 36t-46 12q-40 0 -57 -16t-17 -37h-184q1 42 18 74t42.5 49.5t62 28.5
t70 14.5t74.5 3.5q52 0 92 -6.5t65.5 -15.5t43.5 -27t26.5 -31.5t13 -39.5t5 -39.5t0.5 -43.5zM370 185v48q-20 -10 -78 -25q-37 -9 -52 -20t-15 -36q0 -19 18 -33.5t44 -14.5q35 0 58 20.5t25 60.5zM148 601v91h339v-91h-339z" />
    <glyph glyph-name="Abreve" unicode="&#x102;" horiz-adv-x="722" 
d="M-8 0l263 714h215l260 -714h-228l-30 102h-227l-32 -102h-221zM293 255h135l-64 220h-2zM467 917h78q-4 -74 -55.5 -113.5t-127.5 -39.5q-82 0 -130 39t-50 114h78q3 -33 36 -49.5t70 -16.5q36 0 65.5 16.5t35.5 49.5z" />
    <glyph glyph-name="abreve" unicode="&#x103;" horiz-adv-x="611" 
d="M560 329v-213q0 -82 24 -116h-202q-9 26 -7 49h-2q-56 -62 -167 -62q-80 0 -131.5 39.5t-51.5 117.5q0 39 15.5 69t37.5 46t57 28t62 16l65.5 9.5t55.5 8.5q16 3 26.5 7t19 14t8.5 25q0 24 -19 36t-46 12q-40 0 -57 -16t-17 -37h-184q1 42 18 74t42.5 49.5t62 28.5
t70 14.5t74.5 3.5q52 0 92 -6.5t65.5 -15.5t43.5 -27t26.5 -31.5t13 -39.5t5 -39.5t0.5 -43.5zM370 185v48q-20 -10 -78 -25q-37 -9 -52 -20t-15 -36q0 -19 18 -33.5t44 -14.5q35 0 58 20.5t25 60.5zM412 723h78q-4 -74 -55.5 -113.5t-127.5 -39.5q-82 0 -130 39t-50 114h78
q3 -33 36 -49.5t70 -16.5q36 0 65.5 16.5t35.5 49.5z" />
    <glyph glyph-name="Aogonek" unicode="&#x104;" horiz-adv-x="722" 
d="M587 -127l63 -29q-30 -40 -63 -58.5t-82 -18.5q-46 0 -78.5 21t-32.5 64t28 77t80 71l-30 102h-227l-32 -102h-221l263 714h215l260 -714h-155q-74 -78 -74 -124q0 -33 32 -33q24 0 54 30zM293 255h135l-64 220h-2z" />
    <glyph glyph-name="aogonek" unicode="&#x105;" horiz-adv-x="611" 
d="M467 -127l63 -29q-30 -40 -63 -58.5t-82 -18.5q-46 0 -78.5 21t-32.5 64t30 77.5t86 70.5q-12 25 -15 49h-2q-56 -62 -167 -62q-80 0 -131.5 39.5t-51.5 117.5q0 39 15.5 69t37.5 46t57 28t62 16l65.5 9.5t55.5 8.5q16 3 26.5 7t19 14t8.5 25q0 24 -19 36t-46 12
q-40 0 -57 -16t-17 -37h-184q1 42 18 74t42.5 49.5t62 28.5t70 14.5t74.5 3.5q52 0 92 -6.5t65.5 -15.5t43.5 -27t26.5 -31.5t13 -39.5t5 -39.5t0.5 -43.5v-213q0 -82 24 -116h-121q-82 -79 -82 -124q0 -33 32 -33q24 0 54 30zM370 185v48q-20 -10 -78 -25q-37 -9 -52 -20
t-15 -36q0 -19 18 -33.5t44 -14.5q35 0 58 20.5t25 60.5z" />
    <glyph glyph-name="Cacute" unicode="&#x106;" horiz-adv-x="759" 
d="M36 357q0 169 99 271.5t263 102.5q146 -1 227.5 -73.5t95.5 -209.5h-214q-20 105 -115 105q-71 0 -103.5 -56.5t-32.5 -139.5t32.5 -139.5t103.5 -56.5q52 0 78 31t38 88h216q0 -117 -89 -207t-237 -90q-169 0 -265.5 105.5t-96.5 268.5zM635 915l-172 -149h-136l99 149
h209z" />
    <glyph glyph-name="cacute" unicode="&#x107;" horiz-adv-x="611" 
d="M577 322h-188q-3 33 -22 49q-20 17 -50 17q-51 0 -69 -35.5t-18 -93.5q0 -37 5.5 -62.5t25.5 -45.5t56 -20q31 0 52.5 22t24.5 54h189q-14 -103 -88 -161.5t-182 -58.5q-119 0 -200 75.5t-81 196.5t81 197t200 76q109 0 182 -53.5t82 -156.5zM550 721l-172 -149h-136
l99 149h209z" />
    <glyph glyph-name="Ccircumflex" unicode="&#x108;" horiz-adv-x="759" 
d="M36 357q0 169 99 271.5t263 102.5q146 -1 227.5 -73.5t95.5 -209.5h-214q-20 105 -115 105q-71 0 -103.5 -56.5t-32.5 -139.5t32.5 -139.5t103.5 -56.5q52 0 78 31t38 88h216q0 -117 -89 -207t-237 -90q-169 0 -265.5 105.5t-96.5 268.5zM190 766l121 149h164l122 -149
h-147l-57 76l-56 -76h-147z" />
    <glyph glyph-name="ccircumflex" unicode="&#x109;" horiz-adv-x="611" 
d="M577 322h-188q-3 33 -22 49q-20 17 -50 17q-51 0 -69 -35.5t-18 -93.5q0 -37 5.5 -62.5t25.5 -45.5t56 -20q31 0 52.5 22t24.5 54h189q-14 -103 -88 -161.5t-182 -58.5q-119 0 -200 75.5t-81 196.5t81 197t200 76q109 0 182 -53.5t82 -156.5zM112 572l121 149h164
l122 -149h-147l-57 76l-56 -76h-147z" />
    <glyph glyph-name="Cdotaccent" unicode="&#x10a;" horiz-adv-x="759" 
d="M36 357q0 169 99 271.5t263 102.5q146 -1 227.5 -73.5t95.5 -209.5h-214q-20 105 -115 105q-71 0 -103.5 -56.5t-32.5 -139.5t32.5 -139.5t103.5 -56.5q52 0 78 31t38 88h216q0 -117 -89 -207t-237 -90q-169 0 -265.5 105.5t-96.5 268.5zM307 775v130h170v-130h-170z" />
    <glyph glyph-name="cdotaccent" unicode="&#x10b;" horiz-adv-x="611" 
d="M577 322h-188q-3 33 -22 49q-20 17 -50 17q-51 0 -69 -35.5t-18 -93.5q0 -37 5.5 -62.5t25.5 -45.5t56 -20q31 0 52.5 22t24.5 54h189q-14 -103 -88 -161.5t-182 -58.5q-119 0 -200 75.5t-81 196.5t81 197t200 76q109 0 182 -53.5t82 -156.5zM234 581v130h170v-130h-170z
" />
    <glyph glyph-name="Ccaron" unicode="&#x10c;" horiz-adv-x="759" 
d="M36 357q0 169 99 271.5t263 102.5q146 -1 227.5 -73.5t95.5 -209.5h-214q-20 105 -115 105q-71 0 -103.5 -56.5t-32.5 -139.5t32.5 -139.5t103.5 -56.5q52 0 78 31t38 88h216q0 -117 -89 -207t-237 -90q-169 0 -265.5 105.5t-96.5 268.5zM597 915l-122 -149h-164
l-121 149h147l56 -76l57 76h147z" />
    <glyph glyph-name="ccaron" unicode="&#x10d;" horiz-adv-x="611" 
d="M577 322h-188q-3 33 -22 49q-20 17 -50 17q-51 0 -69 -35.5t-18 -93.5q0 -37 5.5 -62.5t25.5 -45.5t56 -20q31 0 52.5 22t24.5 54h189q-14 -103 -88 -161.5t-182 -58.5q-119 0 -200 75.5t-81 196.5t81 197t200 76q109 0 182 -53.5t82 -156.5zM520 721l-122 -149h-164
l-121 149h147l56 -76l57 76h147z" />
    <glyph glyph-name="Dcaron" unicode="&#x10e;" horiz-adv-x="778" 
d="M57 0v714h361q85 0 149.5 -30t101 -81.5t54 -112.5t17.5 -132q0 -170 -91.5 -264t-273.5 -94h-318zM277 183h86q39 0 68.5 12.5t46 30.5t26.5 43.5t13 47t3 44.5q0 18 -2.5 35.5t-12.5 43.5t-27.5 44.5t-51.5 32.5t-79 14h-70v-348zM552 915l-122 -149h-164l-121 149h147
l56 -76l57 76h147z" />
    <glyph glyph-name="dcaron" unicode="&#x10f;" horiz-adv-x="648" 
d="M594 714v-714h-191v57h-2q-16 -21 -29 -33.5t-45.5 -24.5t-77.5 -12q-70 0 -121 42t-74 103t-23 130q0 39 6 75.5t22 72.5t40 62.5t63.5 43t89.5 16.5q93 0 142 -70h2v252h198zM403 260q0 128 -87 128t-87 -128q0 -129 87 -129t87 129zM854 714l-95 -149h-121l37 149h179
z" />
    <glyph glyph-name="Dcroat" unicode="&#x110;" horiz-adv-x="778" 
d="M57 0v310h-56v122h56v282h361q85 0 149.5 -30t101 -81.5t54 -113t17.5 -132.5q0 -169 -91.5 -263t-273.5 -94h-318zM277 531v-99h136v-122h-136v-127h86q39 0 68.5 12.5t46 30.5t26.5 43.5t13 47t3 44.5q0 18 -2.5 35.5t-12.5 43.5t-27.5 44.5t-51.5 32.5t-79 14h-70z
" />
    <glyph glyph-name="dcroat" unicode="&#x111;" horiz-adv-x="648" 
d="M594 714v-62h76v-89h-76v-563h-191v57h-2q-16 -21 -29 -33.5t-45.5 -24.5t-77.5 -12q-70 0 -121 42t-74 103t-23 130q0 39 6 75.5t22 72.5t40 62.5t63.5 43t89.5 16.5q93 0 142 -70h2v101h-149v89h149v62h198zM403 260q0 128 -87 128t-87 -128q0 -129 87 -129t87 129z
" />
    <glyph glyph-name="Emacron" unicode="&#x112;" horiz-adv-x="704" 
d="M57 0v714h591v-183h-371v-89h337v-170h-337v-89h382v-183h-602zM178 795v91h339v-91h-339z" />
    <glyph glyph-name="emacron" unicode="&#x113;" 
d="M601 215h-380q4 -47 29.5 -74t71.5 -27q59 0 83 37h185q-29 -81 -101.5 -122.5t-165.5 -41.5q-128 0 -209.5 72t-81.5 199q0 116 76.5 195t197.5 79q295 0 295 -317zM222 318h189q0 37 -24.5 62t-62.5 25q-88 0 -102 -87zM157 601v91h339v-91h-339z" />
    <glyph glyph-name="Ebreve" unicode="&#x114;" horiz-adv-x="704" 
d="M57 0v714h591v-183h-371v-89h337v-170h-337v-89h382v-183h-602zM451 917h78q-4 -74 -55.5 -113.5t-127.5 -39.5q-82 0 -130 39t-50 114h78q3 -33 36 -49.5t70 -16.5q36 0 65.5 16.5t35.5 49.5z" />
    <glyph glyph-name="ebreve" unicode="&#x115;" 
d="M601 215h-380q4 -47 29.5 -74t71.5 -27q59 0 83 37h185q-29 -81 -101.5 -122.5t-165.5 -41.5q-128 0 -209.5 72t-81.5 199q0 116 76.5 195t197.5 79q295 0 295 -317zM222 318h189q0 37 -24.5 62t-62.5 25q-88 0 -102 -87zM426 723h78q-4 -74 -55.5 -113.5t-127.5 -39.5
q-82 0 -130 39t-50 114h78q3 -33 36 -49.5t70 -16.5q36 0 65.5 16.5t35.5 49.5z" />
    <glyph glyph-name="Edotaccent" unicode="&#x116;" horiz-adv-x="704" 
d="M57 0v714h591v-183h-371v-89h337v-170h-337v-89h382v-183h-602zM271 775v130h170v-130h-170z" />
    <glyph glyph-name="edotaccent" unicode="&#x117;" 
d="M601 215h-380q4 -47 29.5 -74t71.5 -27q59 0 83 37h185q-29 -81 -101.5 -122.5t-165.5 -41.5q-128 0 -209.5 72t-81.5 199q0 116 76.5 195t197.5 79q295 0 295 -317zM222 318h189q0 37 -24.5 62t-62.5 25q-88 0 -102 -87zM239 581v130h170v-130h-170z" />
    <glyph glyph-name="Eogonek" unicode="&#x118;" horiz-adv-x="704" 
d="M57 0v714h591v-183h-371v-89h337v-170h-337v-89h382v-183h-65q-82 -79 -82 -124q0 -33 32 -33q24 0 54 30l63 -29q-30 -40 -63 -58.5t-82 -18.5q-46 0 -78.5 21t-32.5 64t30 77.5t86 70.5h-464z" />
    <glyph glyph-name="eogonek" unicode="&#x119;" 
d="M381 -127l63 -29q-30 -40 -63 -58.5t-82 -18.5q-46 0 -78.5 21t-32.5 64q0 69 98 137q-114 10 -184 81t-70 188q0 116 76.5 195t197.5 79q295 0 295 -317h-380q4 -47 29.5 -74t71.5 -27q59 0 83 37h185q-25 -71 -85 -111.5t-139 -49.5q-71 -71 -71 -114q0 -33 32 -33
q24 0 54 30zM222 318h189q0 37 -24.5 62t-62.5 25q-88 0 -102 -87z" />
    <glyph glyph-name="Ecaron" unicode="&#x11a;" horiz-adv-x="704" 
d="M57 0v714h591v-183h-371v-89h337v-170h-337v-89h382v-183h-602zM553 915l-122 -149h-164l-121 149h147l56 -76l57 76h147z" />
    <glyph glyph-name="ecaron" unicode="&#x11b;" 
d="M601 215h-380q4 -47 29.5 -74t71.5 -27q59 0 83 37h185q-29 -81 -101.5 -122.5t-165.5 -41.5q-128 0 -209.5 72t-81.5 199q0 116 76.5 195t197.5 79q295 0 295 -317zM222 318h189q0 37 -24.5 62t-62.5 25q-88 0 -102 -87zM523 721l-122 -149h-164l-121 149h147l56 -76
l57 76h147z" />
    <glyph glyph-name="Gcircumflex" unicode="&#x11c;" horiz-adv-x="778" 
d="M36 350q0 79 21.5 144t56.5 108t81 73t94.5 43t98.5 13q136 0 220.5 -69.5t108.5 -197.5h-211q-6 39 -35.5 64t-68.5 25q-40 0 -69.5 -15.5t-43.5 -36t-22 -53t-9.5 -53t-1.5 -50.5q0 -23 4 -45.5t15 -48t28 -45t46.5 -32.5t67.5 -13q41 0 73.5 20.5t40.5 58.5h-97v153
h292v-393h-139l-7 73q-69 -90 -203 -90q-154 0 -247.5 105t-93.5 262zM190 766l121 149h164l122 -149h-147l-57 76l-56 -76h-147z" />
    <glyph glyph-name="gcircumflex" unicode="&#x11d;" 
d="M583 519v-452q0 -37 -4.5 -66.5t-21 -65t-44.5 -59.5t-79 -40.5t-121 -16.5q-248 0 -271 173h196q1 -1 5 -7.5t6 -10.5q24 -38 58 -38q30 0 48.5 22t24 46.5t5.5 50.5v48h-2q-49 -72 -139 -72q-109 0 -165.5 71t-56.5 182q0 106 59 177t166 71q103 0 136 -76h2v63h198z
M220 285q0 -53 20.5 -90t68.5 -37q26 0 43 11t25 32t10.5 40t2.5 45q0 45 -22 73.5t-64 28.5q-41 0 -62.5 -29.5t-21.5 -73.5zM120 572l121 149h164l122 -149h-147l-57 76l-56 -76h-147z" />
    <glyph glyph-name="Gbreve" unicode="&#x11e;" horiz-adv-x="778" 
d="M36 350q0 79 21.5 144t56.5 108t81 73t94.5 43t98.5 13q136 0 220.5 -69.5t108.5 -197.5h-211q-6 39 -35.5 64t-68.5 25q-40 0 -69.5 -15.5t-43.5 -36t-22 -53t-9.5 -53t-1.5 -50.5q0 -23 4 -45.5t15 -48t28 -45t46.5 -32.5t67.5 -13q41 0 73.5 20.5t40.5 58.5h-97v153
h292v-393h-139l-7 73q-69 -90 -203 -90q-154 0 -247.5 105t-93.5 262zM495 917h78q-4 -74 -55.5 -113.5t-127.5 -39.5q-82 0 -130 39t-50 114h78q3 -33 36 -49.5t70 -16.5q36 0 65.5 16.5t35.5 49.5z" />
    <glyph glyph-name="gbreve" unicode="&#x11f;" 
d="M583 519v-452q0 -37 -4.5 -66.5t-21 -65t-44.5 -59.5t-79 -40.5t-121 -16.5q-248 0 -271 173h196q1 -1 5 -7.5t6 -10.5q24 -38 58 -38q30 0 48.5 22t24 46.5t5.5 50.5v48h-2q-49 -72 -139 -72q-109 0 -165.5 71t-56.5 182q0 106 59 177t166 71q103 0 136 -76h2v63h198z
M220 285q0 -53 20.5 -90t68.5 -37q26 0 43 11t25 32t10.5 40t2.5 45q0 45 -22 73.5t-64 28.5q-41 0 -62.5 -29.5t-21.5 -73.5zM433 723h78q-4 -74 -55.5 -113.5t-127.5 -39.5q-82 0 -130 39t-50 114h78q3 -33 36 -49.5t70 -16.5q36 0 65.5 16.5t35.5 49.5z" />
    <glyph glyph-name="Gdotaccent" unicode="&#x120;" horiz-adv-x="778" 
d="M36 350q0 79 21.5 144t56.5 108t81 73t94.5 43t98.5 13q136 0 220.5 -69.5t108.5 -197.5h-211q-6 39 -35.5 64t-68.5 25q-40 0 -69.5 -15.5t-43.5 -36t-22 -53t-9.5 -53t-1.5 -50.5q0 -23 4 -45.5t15 -48t28 -45t46.5 -32.5t67.5 -13q41 0 73.5 20.5t40.5 58.5h-97v153
h292v-393h-139l-7 73q-69 -90 -203 -90q-154 0 -247.5 105t-93.5 262zM308 775v130h170v-130h-170z" />
    <glyph glyph-name="gdotaccent" unicode="&#x121;" 
d="M583 519v-452q0 -37 -4.5 -66.5t-21 -65t-44.5 -59.5t-79 -40.5t-121 -16.5q-248 0 -271 173h196q1 -1 5 -7.5t6 -10.5q24 -38 58 -38q30 0 48.5 22t24 46.5t5.5 50.5v48h-2q-49 -72 -139 -72q-109 0 -165.5 71t-56.5 182q0 106 59 177t166 71q103 0 136 -76h2v63h198z
M220 285q0 -53 20.5 -90t68.5 -37q26 0 43 11t25 32t10.5 40t2.5 45q0 45 -22 73.5t-64 28.5q-41 0 -62.5 -29.5t-21.5 -73.5zM246 581v130h170v-130h-170z" />
    <glyph glyph-name="Gcommaaccent" unicode="&#x122;" horiz-adv-x="778" 
d="M36 350q0 79 21.5 144t56.5 108t81 73t94.5 43t98.5 13q136 0 220.5 -69.5t108.5 -197.5h-211q-6 39 -35.5 64t-68.5 25q-40 0 -69.5 -15.5t-43.5 -36t-22 -53t-9.5 -53t-1.5 -50.5q0 -23 4 -45.5t15 -48t28 -45t46.5 -32.5t67.5 -13q41 0 73.5 20.5t40.5 58.5h-97v153
h292v-393h-139l-7 73q-69 -90 -203 -90q-154 0 -247.5 105t-93.5 262zM302 -155v105h170v-74q0 -68 -45 -90q-38 -19 -106 -19v42q50 6 57 36h-76z" />
    <glyph glyph-name="gcommaaccent" unicode="&#x123;" 
d="M583 519v-452q0 -37 -4.5 -66.5t-21 -65t-44.5 -59.5t-79 -40.5t-121 -16.5q-248 0 -271 173h196q1 -1 5 -7.5t6 -10.5q24 -38 58 -38q30 0 48.5 22t24 46.5t5.5 50.5v48h-2q-49 -72 -139 -72q-109 0 -165.5 71t-56.5 182q0 106 59 177t166 71q103 0 136 -76h2v63h198z
M220 285q0 -53 20.5 -90t68.5 -37q26 0 43 11t25 32t10.5 40t2.5 45q0 45 -22 73.5t-64 28.5q-41 0 -62.5 -29.5t-21.5 -73.5zM405 714v-105h-170v74q0 68 44 90q39 19 107 19v-42q-50 -6 -57 -36h76z" />
    <glyph glyph-name="Hcircumflex" unicode="&#x124;" horiz-adv-x="759" 
d="M57 0v714h220v-248h206v248h220v-714h-220v283h-206v-283h-220zM175 766l121 149h164l122 -149h-147l-57 76l-56 -76h-147z" />
    <glyph glyph-name="hcircumflex" unicode="&#x125;" horiz-adv-x="648" 
d="M54 0v714h198v-251h2q57 69 162 69q75 0 126.5 -45.5t51.5 -130.5v-356h-198v272q0 52 -12.5 77t-52.5 25q-79 0 -79 -100v-274h-198zM101 766l121 149h164l122 -149h-147l-57 76l-56 -76h-147z" />
    <glyph glyph-name="Hbar" unicode="&#x126;" horiz-adv-x="759" 
d="M57 0v714h220v-91h206v91h220v-714h-220v255h-206v-255h-220zM277 428h206v90h-206v-90z" />
    <glyph glyph-name="hbar" unicode="&#x127;" horiz-adv-x="648" 
d="M54 0v563h-76v89h76v62h198v-62h149v-89h-149v-100h2q57 69 162 69q75 0 126.5 -45.5t51.5 -130.5v-356h-198v272q0 52 -12.5 77t-52.5 25q-79 0 -79 -100v-274h-198z" />
    <glyph glyph-name="Itilde" unicode="&#x128;" horiz-adv-x="333" 
d="M57 0v714h220v-714h-220zM52 768h-79q0 34 9 64t35.5 54t67.5 24q44 0 93 -20t59 -20q36 0 45 43h82q-2 -60 -32.5 -99.5t-83.5 -39.5q-42 0 -89 19q-50 18 -66 18t-27 -13t-14 -30z" />
    <glyph glyph-name="itilde" unicode="&#x129;" horiz-adv-x="315" 
d="M256 0h-198v519h198v-519zM42 574h-79q0 34 9 64t35.5 54t67.5 24q44 0 93 -20t59 -20q36 0 45 43h82q-2 -60 -32.5 -99.5t-83.5 -39.5q-42 0 -89 19q-50 18 -66 18t-27 -13t-14 -30z" />
    <glyph glyph-name="Imacron" unicode="&#x12a;" horiz-adv-x="333" 
d="M57 0v714h220v-714h-220zM-1 795v91h339v-91h-339z" />
    <glyph glyph-name="imacron" unicode="&#x12b;" horiz-adv-x="315" 
d="M256 0h-198v519h198v-519zM-12 601v91h339v-91h-339z" />
    <glyph glyph-name="Ibreve" unicode="&#x12c;" horiz-adv-x="333" 
d="M57 0v714h220v-714h-220zM272 917h78q-4 -74 -55.5 -113.5t-127.5 -39.5q-82 0 -130 39t-50 114h78q3 -33 36 -49.5t70 -16.5q36 0 65.5 16.5t35.5 49.5z" />
    <glyph glyph-name="ibreve" unicode="&#x12d;" horiz-adv-x="315" 
d="M256 0h-198v519h198v-519zM262 723h78q-4 -74 -55.5 -113.5t-127.5 -39.5q-82 0 -130 39t-50 114h78q3 -33 36 -49.5t70 -16.5q36 0 65.5 16.5t35.5 49.5z" />
    <glyph glyph-name="Iogonek" unicode="&#x12e;" horiz-adv-x="333" 
d="M57 0v714h220v-714h-48q-82 -79 -82 -124q0 -33 32 -33q24 0 54 30l63 -29q-30 -40 -63 -58.5t-82 -18.5q-46 0 -78.5 21t-32.5 64t30 77.5t86 70.5h-99z" />
    <glyph glyph-name="iogonek" unicode="&#x12f;" horiz-adv-x="315" 
d="M256 714v-139h-198v139h198zM58 0v519h198v-519h-37q-82 -79 -82 -124q0 -33 32 -33q24 0 54 30l63 -29q-30 -40 -63 -58.5t-82 -18.5q-46 0 -78.5 21t-32.5 64t30 77.5t86 70.5h-88z" />
    <glyph glyph-name="Idotaccent" unicode="&#x130;" horiz-adv-x="333" 
d="M57 0v714h220v-714h-220zM84 775v130h170v-130h-170z" />
    <glyph glyph-name="dotlessi" unicode="&#x131;" horiz-adv-x="315" 
d="M256 0h-198v519h198v-519z" />
    <glyph glyph-name="Jcircumflex" unicode="&#x134;" horiz-adv-x="611" 
d="M25 240v60h198v-41q0 -22 0.5 -33t3.5 -27.5t9 -24.5t17.5 -14.5t28.5 -6.5q53 0 53 83v478h220v-457q0 -145 -65.5 -209.5t-202.5 -64.5q-132 0 -197 68t-65 189zM236 766l121 149h164l122 -149h-147l-57 76l-56 -76h-147z" />
    <glyph glyph-name="jcircumflex" unicode="&#x135;" horiz-adv-x="315" 
d="M-30 -168v158h33q31 0 43 13.5t12 50.5v465h198v-484q0 -69 -8.5 -106.5t-37.5 -61.5q-40 -35 -147 -35h-93zM-49 572l121 149h164l122 -149h-147l-57 76l-56 -76h-147z" />
    <glyph glyph-name="Kcommaaccent" unicode="&#x136;" horiz-adv-x="778" 
d="M63 0v714h220v-246h2l196 246h271l-259 -279l301 -435h-274l-176 278l-61 -67v-211h-220zM315 -155v105h170v-74q0 -68 -45 -90q-38 -19 -106 -19v42q50 6 57 36h-76z" />
    <glyph glyph-name="kcommaaccent" unicode="&#x137;" horiz-adv-x="611" 
d="M58 0v714h198v-345l126 150h224l-185 -196l214 -323h-238l-106 188l-35 -38v-150h-198zM241 -155v105h170v-74q0 -68 -45 -90q-38 -19 -106 -19v42q50 6 57 36h-76z" />
    <glyph glyph-name="kgreenlandic" unicode="&#x138;" horiz-adv-x="607" 
d="M54 0v519h198v-160l126 160h224l-185 -206l214 -313h-238l-106 178l-35 -38v-140h-198z" />
    <glyph glyph-name="Lacute" unicode="&#x139;" 
d="M57 0v714h220v-531h316v-183h-536zM401 915l-172 -149h-136l99 149h209z" />
    <glyph glyph-name="lacute" unicode="&#x13a;" horiz-adv-x="315" 
d="M58 0v714h198v-714h-198zM369 915l-172 -149h-136l99 149h209z" />
    <glyph glyph-name="Lcommaaccent" unicode="&#x13b;" 
d="M57 0v714h220v-531h316v-183h-536zM233 -155v105h170v-74q0 -68 -45 -90q-38 -19 -106 -19v42q50 6 57 36h-76z" />
    <glyph glyph-name="lcommaaccent" unicode="&#x13c;" horiz-adv-x="315" 
d="M58 0v714h198v-714h-198zM71 -155v105h170v-74q0 -68 -45 -90q-38 -19 -106 -19v42q50 6 57 36h-76z" />
    <glyph glyph-name="Lcaron" unicode="&#x13d;" 
d="M57 0v714h220v-531h316v-183h-536zM538 714l-95 -149h-121l37 149h179z" />
    <glyph glyph-name="lcaron" unicode="&#x13e;" horiz-adv-x="315" 
d="M58 0v714h198v-714h-198zM516 714l-95 -149h-121l37 149h179z" />
    <glyph glyph-name="Ldot" unicode="&#x13f;" 
d="M57 0v714h220v-531h316v-183h-536zM360 334v130h170v-130h-170z" />
    <glyph glyph-name="ldot" unicode="&#x140;" horiz-adv-x="478" 
d="M58 0v714h198v-714h-198zM309 334v130h170v-130h-170z" />
    <glyph glyph-name="Lslash" unicode="&#x141;" 
d="M57 0v201l-82 -57v130l82 57v383h220v-232l183 126v-130l-183 -126v-169h316v-183h-536z" />
    <glyph glyph-name="lslash" unicode="&#x142;" horiz-adv-x="315" 
d="M58 0v265l-60 -46v102l60 46v347h198v-194l60 46v-102l-60 -46v-418h-198z" />
    <glyph glyph-name="Nacute" unicode="&#x143;" horiz-adv-x="759" 
d="M58 0v714h225l208 -382h2v382h208v-714h-214l-219 390h-2v-390h-208zM606 915l-172 -149h-136l99 149h209z" />
    <glyph glyph-name="nacute" unicode="&#x144;" horiz-adv-x="648" 
d="M54 0v519h191v-66h2q56 79 169 79q75 0 126.5 -45.5t51.5 -130.5v-356h-198v272q0 52 -12.5 77t-52.5 25q-79 0 -79 -100v-274h-198zM549 721l-172 -149h-136l99 149h209z" />
    <glyph glyph-name="Ncommaaccent" unicode="&#x145;" horiz-adv-x="759" 
d="M58 0v714h225l208 -382h2v382h208v-714h-214l-219 390h-2v-390h-208zM292 -155v105h170v-74q0 -68 -45 -90q-38 -19 -106 -19v42q50 6 57 36h-76z" />
    <glyph glyph-name="ncommaaccent" unicode="&#x146;" horiz-adv-x="648" 
d="M54 0v519h191v-66h2q56 79 169 79q75 0 126.5 -45.5t51.5 -130.5v-356h-198v272q0 52 -12.5 77t-52.5 25q-79 0 -79 -100v-274h-198zM241 -155v105h170v-74q0 -68 -45 -90q-38 -19 -106 -19v42q50 6 57 36h-76z" />
    <glyph glyph-name="Ncaron" unicode="&#x147;" horiz-adv-x="759" 
d="M58 0v714h225l208 -382h2v382h208v-714h-214l-219 390h-2v-390h-208zM581 915l-122 -149h-164l-121 149h147l56 -76l57 76h147z" />
    <glyph glyph-name="ncaron" unicode="&#x148;" horiz-adv-x="648" 
d="M54 0v519h191v-66h2q56 79 169 79q75 0 126.5 -45.5t51.5 -130.5v-356h-198v272q0 52 -12.5 77t-52.5 25q-79 0 -79 -100v-274h-198zM523 721l-122 -149h-164l-121 149h147l56 -76l57 76h147z" />
    <glyph glyph-name="Eng" unicode="&#x14a;" horiz-adv-x="759" 
d="M501 28l-233 362h-2v-390h-208v714h225l208 -342h2v342h208v-676q0 -69 -9.5 -106.5t-38.5 -62.5q-43 -37 -149 -37h-111v158h51q27 0 40 8.5t17 29.5z" />
    <glyph glyph-name="eng" unicode="&#x14b;" horiz-adv-x="648" 
d="M308 -168v158h33q31 0 43 13.5t12 50.5v218q0 52 -12.5 77t-52.5 25q-79 0 -79 -100v-274h-198v519h191v-66h2q56 79 169 79q75 0 126.5 -45.5t51.5 -130.5v-321q0 -69 -8.5 -106.5t-37.5 -61.5q-40 -35 -147 -35h-93z" />
    <glyph glyph-name="Omacron" unicode="&#x14c;" horiz-adv-x="796" 
d="M36 357q0 165 100 269.5t262 104.5t262 -104.5t100 -269.5t-100 -269.5t-262 -104.5t-262 104.5t-100 269.5zM256 357q0 -56 14 -97t36.5 -61t45 -29t46.5 -9t46.5 9t45 29t36.5 61t14 97t-14 97t-36.5 61t-45 29t-46.5 9t-46.5 -9t-45 -29t-36.5 -61t-14 -97zM228 795
v91h339v-91h-339z" />
    <glyph glyph-name="omacron" unicode="&#x14d;" 
d="M598 260q0 -116 -72.5 -194.5t-210.5 -78.5t-210.5 78.5t-72.5 194.5t72.5 194t210.5 78t210.5 -78t72.5 -194zM400 260q0 128 -85 128t-85 -128q0 -129 85 -129t85 129zM146 601v91h339v-91h-339z" />
    <glyph glyph-name="Obreve" unicode="&#x14e;" horiz-adv-x="796" 
d="M36 357q0 165 100 269.5t262 104.5t262 -104.5t100 -269.5t-100 -269.5t-262 -104.5t-262 104.5t-100 269.5zM256 357q0 -56 14 -97t36.5 -61t45 -29t46.5 -9t46.5 9t45 29t36.5 61t14 97t-14 97t-36.5 61t-45 29t-46.5 9t-46.5 -9t-45 -29t-36.5 -61t-14 -97zM502 917
h78q-4 -74 -55.5 -113.5t-127.5 -39.5q-82 0 -130 39t-50 114h78q3 -33 36 -49.5t70 -16.5q36 0 65.5 16.5t35.5 49.5z" />
    <glyph glyph-name="obreve" unicode="&#x14f;" 
d="M598 260q0 -116 -72.5 -194.5t-210.5 -78.5t-210.5 78.5t-72.5 194.5t72.5 194t210.5 78t210.5 -78t72.5 -194zM400 260q0 128 -85 128t-85 -128q0 -129 85 -129t85 129zM420 723h78q-4 -74 -55.5 -113.5t-127.5 -39.5q-82 0 -130 39t-50 114h78q3 -33 36 -49.5t70 -16.5
q36 0 65.5 16.5t35.5 49.5z" />
    <glyph glyph-name="Ohungarumlaut" unicode="&#x150;" horiz-adv-x="796" 
d="M36 357q0 165 100 269.5t262 104.5t262 -104.5t100 -269.5t-100 -269.5t-262 -104.5t-262 104.5t-100 269.5zM256 357q0 -56 14 -97t36.5 -61t45 -29t46.5 -9t46.5 9t45 29t36.5 61t14 97t-14 97t-36.5 61t-45 29t-46.5 9t-46.5 -9t-45 -29t-36.5 -61t-14 -97zM446 766
l99 149h169l-158 -149h-110zM221 766l99 149h169l-158 -149h-110z" />
    <glyph glyph-name="ohungarumlaut" unicode="&#x151;" 
d="M598 260q0 -116 -72.5 -194.5t-210.5 -78.5t-210.5 78.5t-72.5 194.5t72.5 194t210.5 78t210.5 -78t72.5 -194zM400 260q0 128 -85 128t-85 -128q0 -129 85 -129t85 129zM365 572l99 149h169l-158 -149h-110zM140 572l99 149h169l-158 -149h-110z" />
    <glyph glyph-name="OE" unicode="&#x152;" horiz-adv-x="1130" 
d="M535 0v35q-24 -25 -72.5 -38.5t-91.5 -13.5q-149 0 -242 107.5t-93 259.5q0 158 94.5 269.5t249.5 111.5q100 0 155 -55v38h540v-183h-339v-89h310v-170h-310v-89h349v-183h-550zM534 362q0 54 -13.5 93.5t-30 57.5t-40 28t-33.5 11t-22 1q-11 0 -21 -1t-34 -11
t-40.5 -28t-30 -57.5t-13.5 -93.5q0 -56 13 -96.5t29 -60t39 -30.5t34.5 -12.5t23.5 -1.5t24 1.5t34.5 12.5t38.5 30.5t29 60t13 96.5z" />
    <glyph glyph-name="oe" unicode="&#x153;" horiz-adv-x="981" 
d="M766 151h191q-31 -83 -103.5 -123.5t-172.5 -40.5q-121 0 -190 66q-62 -66 -187 -66q-124 0 -198 71.5t-74 200.5q0 63 20 112.5t50 78.5t70 48.5t75.5 26.5t70.5 7q121 0 183 -63q74 63 179 63q139 0 211.5 -88t68.5 -229h-384q0 -48 28.5 -74.5t76.5 -26.5q52 0 85 37z
M576 318h187q-6 87 -91 87q-41 0 -68 -22t-28 -65zM406 259q0 129 -87 129q-89 0 -89 -129q0 -128 89 -128q87 0 87 128z" />
    <glyph glyph-name="Racute" unicode="&#x154;" horiz-adv-x="741" 
d="M57 0v714h419q99 0 166 -53.5t67 -150.5q0 -60 -27.5 -110t-79.5 -69q45 -17 72 -64t33 -114q0 -6 2 -33t3.5 -45.5t6.5 -41t12 -33.5h-220q-12 40 -18 110q-2 26 -4 41t-8 36.5t-16 33t-28 20t-43 8.5h-117v-249h-220zM277 544v-142h115q97 0 97 71q0 36 -24.5 53.5
t-84.5 17.5h-103zM577 915l-172 -149h-136l99 149h209z" />
    <glyph glyph-name="racute" unicode="&#x155;" horiz-adv-x="444" 
d="M54 0v519h190v-83h2q25 49 59.5 72.5t86.5 23.5q26 0 58 -8v-175q-37 13 -78 13q-61 0 -90.5 -37.5t-29.5 -119.5v-205h-198zM459 721l-172 -149h-136l99 149h209z" />
    <glyph glyph-name="Rcommaaccent" unicode="&#x156;" horiz-adv-x="741" 
d="M57 0v714h419q99 0 166 -53.5t67 -150.5q0 -60 -27.5 -110t-79.5 -69q45 -17 72 -64t33 -114q0 -6 2 -33t3.5 -45.5t6.5 -41t12 -33.5h-220q-12 40 -18 110q-2 26 -4 41t-8 36.5t-16 33t-28 20t-43 8.5h-117v-249h-220zM277 544v-142h115q97 0 97 71q0 36 -24.5 53.5
t-84.5 17.5h-103zM309 -155v105h170v-74q0 -68 -45 -90q-38 -19 -106 -19v42q50 6 57 36h-76z" />
    <glyph glyph-name="rcommaaccent" unicode="&#x157;" horiz-adv-x="444" 
d="M54 0v519h190v-83h2q25 49 59.5 72.5t86.5 23.5q26 0 58 -8v-175q-37 13 -78 13q-61 0 -90.5 -37.5t-29.5 -119.5v-205h-198zM68 -155v105h170v-74q0 -68 -45 -90q-38 -19 -106 -19v42q50 6 57 36h-76z" />
    <glyph glyph-name="Rcaron" unicode="&#x158;" horiz-adv-x="741" 
d="M57 0v714h419q99 0 166 -53.5t67 -150.5q0 -60 -27.5 -110t-79.5 -69q45 -17 72 -64t33 -114q0 -6 2 -33t3.5 -45.5t6.5 -41t12 -33.5h-220q-12 40 -18 110q-2 26 -4 41t-8 36.5t-16 33t-28 20t-43 8.5h-117v-249h-220zM277 544v-142h115q97 0 97 71q0 36 -24.5 53.5
t-84.5 17.5h-103zM560 915l-122 -149h-164l-121 149h147l56 -76l57 76h147z" />
    <glyph glyph-name="rcaron" unicode="&#x159;" horiz-adv-x="444" 
d="M54 0v519h190v-83h2q25 49 59.5 72.5t86.5 23.5q26 0 58 -8v-175q-37 13 -78 13q-61 0 -90.5 -37.5t-29.5 -119.5v-205h-198zM452 721l-122 -149h-164l-121 149h147l56 -76l57 76h147z" />
    <glyph glyph-name="Sacute" unicode="&#x15a;" horiz-adv-x="667" 
d="M12 240h220q0 -25 8 -47q19 -52 105 -52q35 0 63 15t28 50q0 26 -28 40t-126 42q-113 32 -154 56q-88 51 -88 151q0 116 83.5 176t204.5 60q128 0 211 -56t87 -177h-208q5 37 -26 57q-26 18 -65 18q-30 0 -54.5 -10.5t-24.5 -37.5q1 -14 11.5 -25.5t35.5 -21t43 -14.5
t59 -15l58 -14q44 -13 75 -26.5t62.5 -37t47.5 -59.5t16 -83q0 -67 -28.5 -116.5t-77 -76.5t-104.5 -40t-120 -13q-30 0 -64 4.5t-80.5 20.5t-82.5 42.5t-61.5 75.5t-25.5 114zM565 915l-172 -149h-136l99 149h209z" />
    <glyph glyph-name="sacute" unicode="&#x15b;" horiz-adv-x="574" 
d="M534 368h-180q-1 24 -23 39q-18 15 -44 15q-60 0 -60 -40q0 -17 23 -27q15 -6 77 -17.5t97 -22.5q124 -39 124 -145q0 -52 -23 -89t-62.5 -57t-83.5 -28.5t-95 -8.5q-66 0 -121.5 17t-96 60t-41.5 106h189q2 -27 24 -46q16 -15 53 -15q24 0 45.5 10t21.5 30q0 23 -20 33
t-89 22q-113 19 -162.5 57.5t-49.5 105.5q0 47 23 81t61 51t78 25t83 8q46 0 86.5 -7.5t79 -24.5t61.5 -51t25 -81zM516 721l-172 -149h-136l99 149h209z" />
    <glyph glyph-name="Scircumflex" unicode="&#x15c;" horiz-adv-x="667" 
d="M12 240h220q0 -25 8 -47q19 -52 105 -52q35 0 63 15t28 50q0 26 -28 40t-126 42q-113 32 -154 56q-88 51 -88 151q0 116 83.5 176t204.5 60q128 0 211 -56t87 -177h-208q5 37 -26 57q-26 18 -65 18q-30 0 -54.5 -10.5t-24.5 -37.5q1 -14 11.5 -25.5t35.5 -21t43 -14.5
t59 -15l58 -14q44 -13 75 -26.5t62.5 -37t47.5 -59.5t16 -83q0 -67 -28.5 -116.5t-77 -76.5t-104.5 -40t-120 -13q-30 0 -64 4.5t-80.5 20.5t-82.5 42.5t-61.5 75.5t-25.5 114zM134 766l121 149h164l122 -149h-147l-57 76l-56 -76h-147z" />
    <glyph glyph-name="scircumflex" unicode="&#x15d;" horiz-adv-x="574" 
d="M534 368h-180q-1 24 -23 39q-18 15 -44 15q-60 0 -60 -40q0 -17 23 -27q15 -6 77 -17.5t97 -22.5q124 -39 124 -145q0 -52 -23 -89t-62.5 -57t-83.5 -28.5t-95 -8.5q-66 0 -121.5 17t-96 60t-41.5 106h189q2 -27 24 -46q16 -15 53 -15q24 0 45.5 10t21.5 30q0 23 -20 33
t-89 22q-113 19 -162.5 57.5t-49.5 105.5q0 47 23 81t61 51t78 25t83 8q46 0 86.5 -7.5t79 -24.5t61.5 -51t25 -81zM88 572l121 149h164l122 -149h-147l-57 76l-56 -76h-147z" />
    <glyph glyph-name="Scedilla" unicode="&#x15e;" horiz-adv-x="667" 
d="M187 -204l21 46q45 -20 86 -20q52 0 52 37q0 15 -12.5 25t-30.5 10q-20 0 -39 -10l-26 24l47 77q-34 3 -66.5 11t-71.5 26.5t-67.5 45t-48 71.5t-19.5 101h220q0 -25 8 -47q19 -52 105 -52q35 0 63 15t28 50q0 26 -28 40t-126 42q-113 32 -154 56q-88 51 -88 151
q0 116 83.5 176t204.5 60q128 0 211 -56t87 -177h-208q5 37 -26 57q-26 18 -65 18q-30 0 -54.5 -10.5t-24.5 -37.5q1 -14 11.5 -25.5t35.5 -21t43 -14.5t59 -15l58 -14q44 -13 75 -26.5t62.5 -37t47.5 -59.5t16 -83q0 -65 -27 -113.5t-73 -76t-99.5 -41t-115.5 -15.5
l-29 -45l2 -2q12 5 42 5q40 0 70 -20.5t30 -60.5q0 -47 -39 -70t-102 -23q-69 0 -128 29z" />
    <glyph glyph-name="scedilla" unicode="&#x15f;" horiz-adv-x="574" 
d="M145 -204l21 46q45 -20 86 -20q52 0 52 37q0 15 -12.5 25t-30.5 10q-20 0 -39 -10l-26 24l49 81q-92 8 -155.5 52.5t-64.5 128.5h189q2 -27 24 -46q16 -15 53 -15q24 0 45.5 10t21.5 30q0 23 -20 33t-89 22q-113 19 -162.5 57.5t-49.5 105.5q0 47 23 81t61 51t78 25t83 8
q46 0 86.5 -7.5t79 -24.5t61.5 -51t25 -81h-180q-1 24 -23 39q-18 15 -44 15q-60 0 -60 -40q0 -17 23 -27q15 -6 77 -17.5t97 -22.5q124 -39 124 -145q0 -49 -21 -85.5t-57.5 -56.5t-77.5 -29.5t-90 -11.5l-32 -49l2 -2q12 5 42 5q40 0 70 -20.5t30 -60.5q0 -47 -39 -70
t-102 -23q-69 0 -128 29z" />
    <glyph glyph-name="Scaron" unicode="&#x160;" horiz-adv-x="667" 
d="M12 240h220q0 -25 8 -47q19 -52 105 -52q35 0 63 15t28 50q0 26 -28 40t-126 42q-113 32 -154 56q-88 51 -88 151q0 116 83.5 176t204.5 60q128 0 211 -56t87 -177h-208q5 37 -26 57q-26 18 -65 18q-30 0 -54.5 -10.5t-24.5 -37.5q1 -14 11.5 -25.5t35.5 -21t43 -14.5
t59 -15l58 -14q44 -13 75 -26.5t62.5 -37t47.5 -59.5t16 -83q0 -67 -28.5 -116.5t-77 -76.5t-104.5 -40t-120 -13q-30 0 -64 4.5t-80.5 20.5t-82.5 42.5t-61.5 75.5t-25.5 114zM541 915l-122 -149h-164l-121 149h147l56 -76l57 76h147z" />
    <glyph glyph-name="scaron" unicode="&#x161;" horiz-adv-x="574" 
d="M534 368h-180q-1 24 -23 39q-18 15 -44 15q-60 0 -60 -40q0 -17 23 -27q15 -6 77 -17.5t97 -22.5q124 -39 124 -145q0 -52 -23 -89t-62.5 -57t-83.5 -28.5t-95 -8.5q-66 0 -121.5 17t-96 60t-41.5 106h189q2 -27 24 -46q16 -15 53 -15q24 0 45.5 10t21.5 30q0 23 -20 33
t-89 22q-113 19 -162.5 57.5t-49.5 105.5q0 47 23 81t61 51t78 25t83 8q46 0 86.5 -7.5t79 -24.5t61.5 -51t25 -81zM495 721l-122 -149h-164l-121 149h147l56 -76l57 76h147z" />
    <glyph glyph-name="Tcommaaccent" unicode="&#x162;" horiz-adv-x="668" 
d="M224 0v531h-200v183h620v-183h-200v-531h-220zM248 -155v105h170v-74q0 -68 -45 -90q-38 -19 -106 -19v42q50 6 57 36h-76z" />
    <glyph glyph-name="tcommaaccent" unicode="&#x163;" horiz-adv-x="407" 
d="M292 677v-158h106v-122h-106v-181q0 -38 12 -53.5t49 -15.5q23 0 45 3v-150q-20 0 -62.5 -3t-64.5 -3q-38 0 -64.5 4.5t-54.5 19t-43 47.5t-15 84v248h-88v122h88v158h198zM160 -155v105h170v-74q0 -68 -45 -90q-38 -19 -106 -19v42q50 6 57 36h-76z" />
    <glyph glyph-name="Tcaron" unicode="&#x164;" horiz-adv-x="668" 
d="M224 0v531h-200v183h620v-183h-200v-531h-220zM541 915l-122 -149h-164l-121 149h147l56 -76l57 76h147z" />
    <glyph glyph-name="tcaron" unicode="&#x165;" horiz-adv-x="407" 
d="M562 714l-95 -149h-121l37 149h179zM292 677v-158h106v-122h-106v-181q0 -38 12 -53.5t49 -15.5q23 0 45 3v-150q-20 0 -62.5 -3t-64.5 -3q-38 0 -64.5 4.5t-54.5 19t-43 47.5t-15 84v248h-88v122h88v158h198z" />
    <glyph glyph-name="Tbar" unicode="&#x166;" horiz-adv-x="668" 
d="M224 0v312h-135v122h135v97h-200v183h620v-183h-200v-97h135v-122h-135v-312h-220z" />
    <glyph glyph-name="tbar" unicode="&#x167;" horiz-adv-x="407" 
d="M292 677v-158h106v-122h-106v-63h92v-89h-92v-29q0 -38 12 -53.5t49 -15.5q23 0 45 3v-150q-76 -6 -127 -6q-38 0 -64.5 4.5t-54.5 19t-43 47.5t-15 84v96h-80v89h80v63h-88v122h88v158h198z" />
    <glyph glyph-name="Utilde" unicode="&#x168;" horiz-adv-x="759" 
d="M705 714v-438q0 -149 -80 -221t-245 -72t-245.5 72t-80.5 221v438h220v-389q0 -30 0.5 -45.5t6 -42t16 -40.5t32 -25t52.5 -11q30 0 50.5 11t31 25t16 40t6 42t0.5 46v389h220zM264 768h-79q0 34 9 64t35.5 54t67.5 24q44 0 93 -20t59 -20q36 0 45 43h82
q-2 -60 -32.5 -99.5t-83.5 -39.5q-42 0 -89 19q-50 18 -66 18t-27 -13t-14 -30z" />
    <glyph glyph-name="utilde" unicode="&#x169;" horiz-adv-x="648" 
d="M594 519v-519h-191v66h-2q-56 -79 -169 -79q-75 0 -126.5 45.5t-51.5 130.5v356h198v-272q0 -52 12 -77t53 -25q79 0 79 100v274h198zM212 574h-79q0 34 9 64t35.5 54t67.5 24q44 0 93 -20t59 -20q36 0 45 43h82q-2 -60 -32.5 -99.5t-83.5 -39.5q-42 0 -89 19
q-50 18 -66 18t-27 -13t-14 -30z" />
    <glyph glyph-name="Umacron" unicode="&#x16a;" horiz-adv-x="759" 
d="M705 714v-438q0 -149 -80 -221t-245 -72t-245.5 72t-80.5 221v438h220v-389q0 -30 0.5 -45.5t6 -42t16 -40.5t32 -25t52.5 -11q30 0 50.5 11t31 25t16 40t6 42t0.5 46v389h220zM210 795v91h339v-91h-339z" />
    <glyph glyph-name="umacron" unicode="&#x16b;" horiz-adv-x="648" 
d="M594 519v-519h-191v66h-2q-56 -79 -169 -79q-75 0 -126.5 45.5t-51.5 130.5v356h198v-272q0 -52 12 -77t53 -25q79 0 79 100v274h198zM159 601v91h339v-91h-339z" />
    <glyph glyph-name="Ubreve" unicode="&#x16c;" horiz-adv-x="759" 
d="M705 714v-438q0 -149 -80 -221t-245 -72t-245.5 72t-80.5 221v438h220v-389q0 -30 0.5 -45.5t6 -42t16 -40.5t32 -25t52.5 -11q30 0 50.5 11t31 25t16 40t6 42t0.5 46v389h220zM484 917h78q-4 -74 -55.5 -113.5t-127.5 -39.5q-82 0 -130 39t-50 114h78q3 -33 36 -49.5
t70 -16.5q36 0 65.5 16.5t35.5 49.5z" />
    <glyph glyph-name="ubreve" unicode="&#x16d;" horiz-adv-x="648" 
d="M594 519v-519h-191v66h-2q-56 -79 -169 -79q-75 0 -126.5 45.5t-51.5 130.5v356h198v-272q0 -52 12 -77t53 -25q79 0 79 100v274h198zM428 723h78q-4 -74 -55.5 -113.5t-127.5 -39.5q-82 0 -130 39t-50 114h78q3 -33 36 -49.5t70 -16.5q36 0 65.5 16.5t35.5 49.5z" />
    <glyph glyph-name="Uring" unicode="&#x16e;" horiz-adv-x="759" 
d="M705 714v-438q0 -149 -80 -221t-245 -72t-245.5 72t-80.5 221v438h220v-389q0 -30 0.5 -45.5t6 -42t16 -40.5t32 -25t52.5 -11q30 0 50.5 11t31 25t16 40t6 42t0.5 46v389h220zM265 848q0 48 32.5 79.5t80.5 31.5t80 -31.5t32 -79.5q0 -47 -32.5 -78.5t-79.5 -31.5
q-48 0 -80.5 31.5t-32.5 78.5zM325 848q0 -24 15 -38.5t38 -14.5t37.5 15t14.5 38t-15 37.5t-37 14.5t-37.5 -14.5t-15.5 -37.5z" />
    <glyph glyph-name="uring" unicode="&#x16f;" horiz-adv-x="648" 
d="M594 519v-519h-191v66h-2q-56 -79 -169 -79q-75 0 -126.5 45.5t-51.5 130.5v356h198v-272q0 -52 12 -77t53 -25q79 0 79 100v274h198zM216 666q0 48 32.5 79.5t80.5 31.5t80 -31.5t32 -79.5q0 -47 -32.5 -78.5t-79.5 -31.5q-48 0 -80.5 31.5t-32.5 78.5zM276 666
q0 -24 15 -38.5t38 -14.5t37.5 15t14.5 38t-15 37.5t-37 14.5t-37.5 -14.5t-15.5 -37.5z" />
    <glyph glyph-name="Uhungarumlaut" unicode="&#x170;" horiz-adv-x="759" 
d="M705 714v-438q0 -149 -80 -221t-245 -72t-245.5 72t-80.5 221v438h220v-389q0 -30 0.5 -45.5t6 -42t16 -40.5t32 -25t52.5 -11q30 0 50.5 11t31 25t16 40t6 42t0.5 46v389h220zM428 766l99 149h169l-158 -149h-110zM203 766l99 149h169l-158 -149h-110z" />
    <glyph glyph-name="uhungarumlaut" unicode="&#x171;" horiz-adv-x="648" 
d="M594 519v-519h-191v66h-2q-56 -79 -169 -79q-75 0 -126.5 45.5t-51.5 130.5v356h198v-272q0 -52 12 -77t53 -25q79 0 79 100v274h198zM380 572l99 149h169l-158 -149h-110zM155 572l99 149h169l-158 -149h-110z" />
    <glyph glyph-name="Uogonek" unicode="&#x172;" horiz-adv-x="759" 
d="M448 -127l63 -29q-30 -40 -63 -58.5t-82 -18.5q-46 0 -78.5 21t-32.5 64q0 66 91 132q-148 7 -220 78.5t-72 213.5v438h220v-389q0 -30 0.5 -45.5t6 -42t16 -40.5t32 -25t52.5 -11q30 0 50.5 11t31 25t16 40t6 42t0.5 46v389h220v-438q0 -138 -68.5 -209.5t-208.5 -81.5
q-66 -67 -66 -109q0 -33 32 -33q24 0 54 30z" />
    <glyph glyph-name="uogonek" unicode="&#x173;" horiz-adv-x="648" 
d="M491 -127l63 -29q-30 -40 -63 -58.5t-82 -18.5q-46 0 -78.5 21t-32.5 64t30 77.5t86 70.5h-11v66h-2q-56 -79 -169 -79q-75 0 -126.5 45.5t-51.5 130.5v356h198v-272q0 -52 12 -77t53 -25q79 0 79 100v274h198v-519h-107q-82 -79 -82 -124q0 -33 32 -33q24 0 54 30z" />
    <glyph glyph-name="Wcircumflex" unicode="&#x174;" horiz-adv-x="963" 
d="M970 714l-200 -714h-214l-77 435h-2l-75 -435h-215l-194 714h216l87 -441h2l86 441h194l84 -447h2l89 447h217zM277 766l121 149h164l122 -149h-147l-57 76l-56 -76h-147z" />
    <glyph glyph-name="wcircumflex" unicode="&#x175;" horiz-adv-x="870" 
d="M878 519l-165 -519h-203l-75 319h-2l-77 -319h-203l-162 519h206l77 -321h2l66 321h185l69 -321h4l72 321h206zM230 572l121 149h164l122 -149h-147l-57 76l-56 -76h-147z" />
    <glyph glyph-name="Ycircumflex" unicode="&#x176;" horiz-adv-x="667" 
d="M221 0v263l-251 451h243l119 -263l124 263h241l-256 -451v-263h-220zM129 766l121 149h164l122 -149h-147l-57 76l-56 -76h-147z" />
    <glyph glyph-name="ycircumflex" unicode="&#x177;" horiz-adv-x="556" 
d="M571 519l-188 -526q-33 -93 -81.5 -127t-156.5 -34h-110v158h78q47 0 47 42q0 18 -46 141l-129 346h212l83 -298h2l84 298h205zM78 572l121 149h164l122 -149h-147l-57 76l-56 -76h-147z" />
    <glyph glyph-name="Ydieresis" unicode="&#x178;" horiz-adv-x="667" 
d="M221 0v263l-251 451h243l119 -263l124 263h241l-256 -451v-263h-220zM361 775v130h170v-130h-170zM134 775v130h170v-130h-170z" />
    <glyph glyph-name="Zacute" unicode="&#x179;" horiz-adv-x="685" 
d="M24 0v172l332 359h-313v183h603v-160l-335 -371h351v-183h-638zM566 915l-172 -149h-136l99 149h209z" />
    <glyph glyph-name="zacute" unicode="&#x17a;" horiz-adv-x="556" 
d="M17 0v153l243 222h-221v144h475v-152l-237 -223h258v-144h-518zM503 721l-172 -149h-136l99 149h209z" />
    <glyph glyph-name="Zdotaccent" unicode="&#x17b;" horiz-adv-x="685" 
d="M24 0v172l332 359h-313v183h603v-160l-335 -371h351v-183h-638zM264 775v130h170v-130h-170z" />
    <glyph glyph-name="zdotaccent" unicode="&#x17c;" horiz-adv-x="556" 
d="M17 0v153l243 222h-221v144h475v-152l-237 -223h258v-144h-518zM188 581v130h170v-130h-170z" />
    <glyph glyph-name="Zcaron" unicode="&#x17d;" horiz-adv-x="685" 
d="M24 0v172l332 359h-313v183h603v-160l-335 -371h351v-183h-638zM548 915l-122 -149h-164l-121 149h147l56 -76l57 76h147z" />
    <glyph glyph-name="zcaron" unicode="&#x17e;" horiz-adv-x="556" 
d="M17 0v153l243 222h-221v144h475v-152l-237 -223h258v-144h-518zM486 721l-122 -149h-164l-121 149h147l56 -76l57 76h147z" />
    <glyph glyph-name="florin" unicode="&#x192;" horiz-adv-x="668" 
d="M3 -176l39 142q12 -3 22 -3q39 0 55.5 18t28.5 61l64 237h-95l34 122h95l32 119q28 104 82 157.5t153 53.5q55 0 112 -6l-38 -141q-21 3 -41 3q-49 0 -63 -47l-34 -139h95l-34 -122h-94l-73 -268q-30 -110 -87.5 -151t-174.5 -41q-33 0 -78 5z" />
    <glyph glyph-name="Aringacute" unicode="&#x1fa;" horiz-adv-x="722" 
d="M552 959l-143 -119h-127l79 119h191zM-8 0l270 692q-4 12 -4 30q0 43 29.5 72t72.5 29t72.5 -29t29.5 -72q0 -12 -3 -22l271 -700h-228l-30 102h-227l-32 -102h-221zM315 722q0 -20 12.5 -32.5t32.5 -12.5q19 0 31.5 12.5t12.5 32.5q0 19 -13 32t-31 13q-19 0 -32 -12.5
t-13 -32.5zM293 255h135l-64 220h-2z" />
    <glyph glyph-name="aringacute" unicode="&#x1fb;" horiz-adv-x="611" 
d="M523 915l-162 -137h-133l90 137h205zM202 655q0 45 31 75t76 30t75.5 -30t30.5 -75t-30.5 -74.5t-75.5 -29.5t-76 29.5t-31 74.5zM259 655q0 -22 14 -36t36 -14t35.5 14t13.5 36t-14 35.5t-35 13.5t-35.5 -13.5t-14.5 -35.5zM560 329v-213q0 -82 24 -116h-202
q-9 26 -7 49h-2q-56 -62 -167 -62q-80 0 -131.5 39.5t-51.5 117.5q0 39 15.5 69t37.5 46t57 28t62 16l65.5 9.5t55.5 8.5q16 3 26.5 7t19 14t8.5 25q0 24 -19 36t-46 12q-40 0 -57 -16t-17 -37h-184q1 42 18 74t42.5 49.5t62 28.5t70 14.5t74.5 3.5q52 0 92 -6.5t65.5 -15.5
t43.5 -27t26.5 -31.5t13 -39.5t5 -39.5t0.5 -43.5zM370 185v48q-20 -10 -78 -25q-37 -9 -52 -20t-15 -36q0 -19 18 -33.5t44 -14.5q35 0 58 20.5t25 60.5z" />
    <glyph glyph-name="AEacute" unicode="&#x1fc;" horiz-adv-x="1056" 
d="M-16 0l325 714h690v-183h-324v-89h302v-170h-302v-89h336v-183h-544v105h-211l-43 -105h-229zM467 249v282h-29l-123 -282h152zM832 915l-172 -149h-136l99 149h209z" />
    <glyph glyph-name="aeacute" unicode="&#x1fd;" horiz-adv-x="962" 
d="M931 215h-372q5 -101 99 -101q22 0 43 11.5t32 25.5h186q-21 -74 -95 -119t-163 -45q-78 0 -119.5 15t-78.5 54q-82 -69 -248 -69q-36 0 -67 8t-58 25.5t-42.5 49.5t-15.5 77q0 33 10.5 59.5t31 43.5t41.5 28.5t53 18.5t54 10.5t55.5 7.5t47.5 6q64 12 64 46q0 48 -69 48
q-72 0 -79 -53h-186q4 170 259 170q119 0 182 -56q57 56 166 56q94 0 158 -46t89.5 -115.5t21.5 -155.5zM559 318h176q1 39 -23 63t-65 24q-47 0 -67.5 -26.5t-20.5 -60.5zM389 195v42q-23 -13 -88 -29q-33 -6 -50 -18.5t-17 -41.5q0 -18 19 -31t50 -13q42 0 64 26t22 65z
M711 721l-172 -149h-136l99 149h209z" />
    <glyph glyph-name="Oslashacute" unicode="&#x1fe;" horiz-adv-x="796" 
d="M714 745l46 -39l-87 -95q87 -99 87 -254q0 -165 -100 -269.5t-262 -104.5q-133 0 -227 74l-85 -94l-45 42l86 94q-91 103 -91 258q0 165 100 269.5t262 104.5q139 0 232 -78zM271 258l226 249q-41 46 -99 46q-24 0 -46.5 -9t-45 -29t-36.5 -61t-14 -97q0 -54 15 -99z
M527 450l-224 -247q38 -42 95 -42q24 0 46.5 9t45 29t36.5 61t14 97q0 49 -13 93zM619 915l-172 -149h-136l99 149h209z" />
    <glyph glyph-name="oslashacute" unicode="&#x1ff;" 
d="M534 546l35 -31l-48 -56q77 -76 77 -199q0 -116 -72.5 -194.5t-210.5 -78.5q-99 0 -166 42l-55 -64l-36 33l53 61q-79 73 -79 201q0 116 72.5 194t210.5 78q100 0 169 -44zM236 202l138 160q-20 26 -59 26q-85 0 -85 -128q0 -35 6 -58zM395 314l-137 -159q20 -24 57 -24
q85 0 85 129q0 30 -5 54zM542 721l-172 -149h-136l99 149h209z" />
    <glyph glyph-name="Scommaaccent" unicode="&#x218;" horiz-adv-x="667" 
d="M12 240h220q0 -25 8 -47q19 -52 105 -52q35 0 63 15t28 50q0 26 -28 40t-126 42q-113 32 -154 56q-88 51 -88 151q0 116 83.5 176t204.5 60q128 0 211 -56t87 -177h-208q5 37 -26 57q-26 18 -65 18q-30 0 -54.5 -10.5t-24.5 -37.5q1 -14 11.5 -25.5t35.5 -21t43 -14.5
t59 -15l58 -14q44 -13 75 -26.5t62.5 -37t47.5 -59.5t16 -83q0 -67 -28.5 -116.5t-77 -76.5t-104.5 -40t-120 -13q-30 0 -64 4.5t-80.5 20.5t-82.5 42.5t-61.5 75.5t-25.5 114zM245 -155v105h170v-74q0 -68 -45 -90q-38 -19 -106 -19v42q50 6 57 36h-76z" />
    <glyph glyph-name="scommaaccent" unicode="&#x219;" horiz-adv-x="574" 
d="M534 368h-180q-1 24 -23 39q-18 15 -44 15q-60 0 -60 -40q0 -17 23 -27q15 -6 77 -17.5t97 -22.5q124 -39 124 -145q0 -52 -23 -89t-62.5 -57t-83.5 -28.5t-95 -8.5q-66 0 -121.5 17t-96 60t-41.5 106h189q2 -27 24 -46q16 -15 53 -15q24 0 45.5 10t21.5 30q0 23 -20 33
t-89 22q-113 19 -162.5 57.5t-49.5 105.5q0 47 23 81t61 51t78 25t83 8q46 0 86.5 -7.5t79 -24.5t61.5 -51t25 -81zM203 -155v105h170v-74q0 -68 -45 -90q-38 -19 -106 -19v42q50 6 57 36h-76z" />
    <glyph glyph-name="uni021A" unicode="&#x21a;" horiz-adv-x="668" 
d="M224 0v531h-200v183h620v-183h-200v-531h-220zM248 -155v105h170v-74q0 -68 -45 -90q-38 -19 -106 -19v42q50 6 57 36h-76z" />
    <glyph glyph-name="uni021B" unicode="&#x21b;" horiz-adv-x="407" 
d="M292 677v-158h106v-122h-106v-181q0 -38 12 -53.5t49 -15.5q23 0 45 3v-150q-20 0 -62.5 -3t-64.5 -3q-38 0 -64.5 4.5t-54.5 19t-43 47.5t-15 84v248h-88v122h88v158h198zM160 -155v105h170v-74q0 -68 -45 -90q-38 -19 -106 -19v42q50 6 57 36h-76z" />
    <glyph glyph-name="dotlessj" unicode="&#x237;" horiz-adv-x="315" 
d="M-30 -168v158h33q31 0 43 13.5t12 50.5v465h198v-484q0 -69 -8.5 -106.5t-37.5 -61.5q-40 -35 -147 -35h-93z" />
    <glyph glyph-name="circumflex" unicode="&#x2c6;" horiz-adv-x="278" 
d="M-65 572l121 149h164l122 -149h-147l-57 76l-56 -76h-147z" />
    <glyph glyph-name="caron" unicode="&#x2c7;" horiz-adv-x="278" 
d="M343 721l-122 -149h-164l-121 149h147l56 -76l57 76h147z" />
    <glyph glyph-name="uni02C9" unicode="&#x2c9;" horiz-adv-x="278" 
d="M-30 601v91h339v-91h-339z" />
    <glyph glyph-name="breve" unicode="&#x2d8;" horiz-adv-x="278" 
d="M243 723h78q-4 -74 -55.5 -113.5t-127.5 -39.5q-82 0 -130 39t-50 114h78q3 -33 36 -49.5t70 -16.5q36 0 65.5 16.5t35.5 49.5z" />
    <glyph glyph-name="dotaccent" unicode="&#x2d9;" horiz-adv-x="278" 
d="M54 581v130h170v-130h-170z" />
    <glyph glyph-name="ring" unicode="&#x2da;" horiz-adv-x="278" 
d="M26 666q0 48 32.5 79.5t80.5 31.5t80 -31.5t32 -79.5q0 -47 -32.5 -78.5t-79.5 -31.5q-48 0 -80.5 31.5t-32.5 78.5zM86 666q0 -24 15 -38.5t38 -14.5t37.5 15t14.5 38t-15 37.5t-37 14.5t-37.5 -14.5t-15.5 -37.5z" />
    <glyph glyph-name="ogonek" unicode="&#x2db;" horiz-adv-x="278" 
d="M183 -127l63 -29q-30 -40 -63 -58.5t-82 -18.5q-46 0 -78.5 21t-32.5 64t30 77.5t86 70.5h73q-82 -79 -82 -124q0 -33 32 -33q24 0 54 30z" />
    <glyph glyph-name="tilde" unicode="&#x2dc;" horiz-adv-x="278" 
d="M22 574h-79q0 34 9 64t35.5 54t67.5 24q44 0 93 -20t59 -20q36 0 45 43h82q-2 -60 -32.5 -99.5t-83.5 -39.5q-42 0 -89 19q-50 18 -66 18t-27 -13t-14 -30z" />
    <glyph glyph-name="hungarumlaut" unicode="&#x2dd;" horiz-adv-x="278" 
d="M155 572l99 149h169l-158 -149h-110zM-70 572l99 149h169l-158 -149h-110z" />
    <glyph glyph-name="uni0374" unicode="&#x374;" horiz-adv-x="278" 
d="M275 732l-94 -181h-154l43 181h205z" />
    <glyph glyph-name="uni0375" unicode="&#x375;" horiz-adv-x="278" 
d="M-2 -213l89 181h154l-38 -181h-205z" />
    <glyph glyph-name="uni037E" unicode="&#x37e;" horiz-adv-x="334" 
d="M271 519v-198h-208v198h208zM63 0v198h208v-157q0 -169 -122 -210q-36 -12 -86 -12v87q37 2 62 30t27 64h-89z" />
    <glyph glyph-name="tonos" unicode="&#x384;" horiz-adv-x="241" 
d="M31 572l35 149h214l-82 -149h-167z" />
    <glyph glyph-name="dieresistonos" unicode="&#x385;" horiz-adv-x="693" 
d="M216 572l35 149h208l-82 -149h-161zM477 581v130h162v-130h-162zM32 581v130h162v-130h-162z" />
    <glyph glyph-name="Alphatonos" unicode="&#x386;" horiz-adv-x="820" 
d="M90 0l263 714h215l260 -714h-228l-30 102h-227l-32 -102h-221zM391 255h135l-64 220h-2zM5 565l35 149h214l-82 -149h-167z" />
    <glyph glyph-name="anoteleia" unicode="&#x387;" horiz-adv-x="334" 
d="M63 321v198h208v-198h-208z" />
    <glyph glyph-name="Epsilontonos" unicode="&#x388;" horiz-adv-x="945" 
d="M298 0v714h591v-183h-371v-89h337v-170h-337v-89h382v-183h-602zM5 565l35 149h214l-82 -149h-167z" />
    <glyph glyph-name="Etatonos" unicode="&#x389;" horiz-adv-x="1000" 
d="M298 0v714h220v-248h206v248h220v-714h-220v283h-206v-283h-220zM5 565l35 149h214l-82 -149h-167z" />
    <glyph glyph-name="Iotatonos" unicode="&#x38a;" horiz-adv-x="574" 
d="M5 565l35 149h214l-82 -149h-167zM298 0v714h220v-714h-220z" />
    <glyph glyph-name="Omicrontonos" unicode="&#x38c;" horiz-adv-x="1000" 
d="M240 357q0 165 100 269.5t262 104.5t262 -104.5t100 -269.5t-100 -269.5t-262 -104.5t-262 104.5t-100 269.5zM460 357q0 -56 14 -97t36.5 -61t45 -29t46.5 -9t46.5 9t45 29t36.5 61t14 97t-14 97t-36.5 61t-45 29t-46.5 9t-46.5 -9t-45 -29t-36.5 -61t-14 -97zM5 565
l35 149h214l-82 -149h-167z" />
    <glyph glyph-name="Upsilontonos" unicode="&#x38e;" horiz-adv-x="975" 
d="M529 0v263l-251 451h243l119 -263l124 263h241l-256 -451v-263h-220zM5 565l35 149h214l-82 -149h-167z" />
    <glyph glyph-name="Omegatonos" unicode="&#x38f;" horiz-adv-x="1000" 
d="M602 553q-68 0 -105 -49t-37 -126q0 -84 23 -136.5t87 -77.5v-164h-337v183h106v6q-99 70 -99 210q0 134 100.5 233t261.5 99q163 0 262.5 -97.5t99.5 -232.5q0 -139 -103 -212v-6h110v-183h-337v164q65 24 87.5 77t22.5 137q0 75 -37.5 125t-104.5 50zM5 565l35 149h214
l-82 -149h-167z" />
    <glyph glyph-name="iotadieresistonos" unicode="&#x390;" horiz-adv-x="321" 
d="M252 519v-357q0 -35 32 -35q15 0 29 5v-116q-57 -29 -119 -29q-65 0 -102.5 32.5t-37.5 90.5v409h198zM64 572l35 149h208l-82 -149h-161zM325 581v130h162v-130h-162zM-120 581v130h162v-130h-162z" />
    <glyph glyph-name="Alpha" unicode="&#x391;" horiz-adv-x="722" 
d="M-8 0l263 714h215l260 -714h-228l-30 102h-227l-32 -102h-221zM293 255h135l-64 220h-2z" />
    <glyph glyph-name="Beta" unicode="&#x392;" horiz-adv-x="741" 
d="M57 0v714h391q67 0 114.5 -17t70.5 -45.5t33 -57t10 -59.5q0 -92 -88 -140q124 -41 124 -178q0 -101 -74.5 -159t-175.5 -58h-405zM277 436h116q38 0 56.5 13t18.5 46q0 49 -75 49h-116v-108zM277 170h129q86 0 86 68q0 65 -77 65h-138v-133z" />
    <glyph glyph-name="Gamma" unicode="&#x393;" horiz-adv-x="675" 
d="M57 0v714h573v-183h-353v-531h-220z" />
    <glyph glyph-name="uni0394" unicode="&#x394;" horiz-adv-x="746" 
d="M-8 0l273 714h215l274 -714h-762zM371 478l-100 -301h198z" />
    <glyph glyph-name="Epsilon" unicode="&#x395;" horiz-adv-x="704" 
d="M57 0v714h591v-183h-371v-89h337v-170h-337v-89h382v-183h-602z" />
    <glyph glyph-name="Zeta" unicode="&#x396;" horiz-adv-x="685" 
d="M24 0v172l332 359h-313v183h603v-160l-335 -371h351v-183h-638z" />
    <glyph glyph-name="Eta" unicode="&#x397;" horiz-adv-x="759" 
d="M57 0v714h220v-248h206v248h220v-714h-220v283h-206v-283h-220z" />
    <glyph glyph-name="Theta" unicode="&#x398;" horiz-adv-x="796" 
d="M36 357q0 165 100 269.5t262 104.5t262 -104.5t100 -269.5t-100 -269.5t-262 -104.5t-262 104.5t-100 269.5zM256 357q0 -56 14 -97t36.5 -61t45 -29t46.5 -9t46.5 9t45 29t36.5 61t14 97t-14 97t-36.5 61t-45 29t-46.5 9t-46.5 -9t-45 -29t-36.5 -61t-14 -97zM317 281
v163h162v-163h-162z" />
    <glyph glyph-name="Iota" unicode="&#x399;" horiz-adv-x="333" 
d="M57 0v714h220v-714h-220z" />
    <glyph glyph-name="Kappa" unicode="&#x39a;" horiz-adv-x="778" 
d="M63 0v714h220v-246h2l196 246h271l-259 -279l301 -435h-274l-176 278l-61 -67v-211h-220z" />
    <glyph glyph-name="Lambda" unicode="&#x39b;" horiz-adv-x="766" 
d="M-8 0l283 714h215l284 -714h-227l-166 472l-169 -472h-220z" />
    <glyph glyph-name="Mu" unicode="&#x39c;" horiz-adv-x="944" 
d="M56 0v714h313l102 -420h2l102 420h313v-714h-208v458h-2l-124 -458h-164l-124 458h-2v-458h-208z" />
    <glyph glyph-name="Nu" unicode="&#x39d;" horiz-adv-x="759" 
d="M58 0v714h225l208 -382h2v382h208v-714h-214l-219 390h-2v-390h-208z" />
    <glyph glyph-name="Xi" unicode="&#x39e;" horiz-adv-x="677" 
d="M54 530v184h569v-184h-569zM117 270v183h443v-183h-443zM45 0v184h587v-184h-587z" />
    <glyph glyph-name="Omicron" unicode="&#x39f;" horiz-adv-x="796" 
d="M36 357q0 165 100 269.5t262 104.5t262 -104.5t100 -269.5t-100 -269.5t-262 -104.5t-262 104.5t-100 269.5zM256 357q0 -56 14 -97t36.5 -61t45 -29t46.5 -9t46.5 9t45 29t36.5 61t14 97t-14 97t-36.5 61t-45 29t-46.5 9t-46.5 -9t-45 -29t-36.5 -61t-14 -97z" />
    <glyph glyph-name="Pi" unicode="&#x3a0;" horiz-adv-x="780" 
d="M54 0v714h672v-714h-220v531h-232v-531h-220z" />
    <glyph glyph-name="Rho" unicode="&#x3a1;" horiz-adv-x="704" 
d="M57 0v714h368q69 0 122.5 -23.5t82.5 -61t43 -78t14 -81.5q0 -125 -76 -189.5t-204 -64.5h-130v-216h-220zM277 531v-145h85q27 0 43 2t35.5 8.5t29 23t9.5 42.5q0 31 -16.5 47t-35.5 19t-52 3h-98z" />
    <glyph glyph-name="Sigma" unicode="&#x3a3;" horiz-adv-x="687" 
d="M655 0h-623v183l175 187l-163 162v182h595v-181h-321l161 -160l-174 -189h350v-184z" />
    <glyph glyph-name="Tau" unicode="&#x3a4;" horiz-adv-x="668" 
d="M224 0v531h-200v183h620v-183h-200v-531h-220z" />
    <glyph glyph-name="Upsilon" unicode="&#x3a5;" horiz-adv-x="667" 
d="M221 0v263l-251 451h243l119 -263l124 263h241l-256 -451v-263h-220z" />
    <glyph glyph-name="Phi" unicode="&#x3a6;" horiz-adv-x="853" 
d="M322 764h208v-70q134 -8 210.5 -84t76.5 -218q0 -141 -77.5 -224.5t-209.5 -91.5v-76h-208v76q-135 8 -210.5 88t-75.5 224q0 140 77 219t209 87v70zM529 542v-313q38 0 53.5 38t15.5 125q0 81 -15 115.5t-54 34.5zM323 228v313q-41 1 -55.5 -32.5t-14.5 -120.5
q0 -84 15 -122t55 -38z" />
    <glyph glyph-name="Chi" unicode="&#x3a7;" horiz-adv-x="741" 
d="M-12 0l258 380l-235 334h258l108 -194l106 194h244l-229 -336l255 -378h-265l-122 213l-126 -213h-252z" />
    <glyph glyph-name="Psi" unicode="&#x3a8;" horiz-adv-x="856" 
d="M318 303v411h219v-410q41 -1 53.5 28.5t12.5 104.5v277h221v-279q0 -253 -287 -283v-152h-219v152q-149 12 -217.5 82t-68.5 201v279h220v-277q0 -73 13 -103t53 -31z" />
    <glyph glyph-name="uni03A9" unicode="&#x3a9;" horiz-adv-x="796" 
d="M398 553q-68 0 -105 -49t-37 -126q0 -84 23 -136.5t87 -77.5v-164h-337v183h106v6q-99 70 -99 210q0 134 100.5 233t261.5 99q163 0 262.5 -97.5t99.5 -232.5q0 -139 -103 -212v-6h110v-183h-337v164q65 24 87.5 77t22.5 137q0 75 -37.5 125t-104.5 50z" />
    <glyph glyph-name="Iotadieresis" unicode="&#x3aa;" horiz-adv-x="333" 
d="M196 775v130h170v-130h-170zM-31 775v130h170v-130h-170zM57 0v714h220v-714h-220z" />
    <glyph glyph-name="Upsilondieresis" unicode="&#x3ab;" horiz-adv-x="667" 
d="M361 775v130h170v-130h-170zM134 775v130h170v-130h-170zM221 0v263l-251 451h243l119 -263l124 263h241l-256 -451v-263h-220z" />
    <glyph glyph-name="alphatonos" unicode="&#x3ac;" horiz-adv-x="646" 
d="M227 572l35 149h214l-82 -149h-167zM376 519h198v-357q0 -35 31 -35q15 0 29 5v-116q-55 -29 -112 -29q-42 0 -82.5 17t-56.5 53h-3q-44 -70 -138 -70q-70 0 -121 42t-74 103t-23 130q0 39 6 75.5t22 72.5t40 62.5t63.5 43t89.5 16.5q36 0 72 -18t57 -52h2v57zM382 260
q0 128 -73 128q-87 0 -87 -128q0 -129 87 -129q73 0 73 129z" />
    <glyph glyph-name="epsilontonos" unicode="&#x3ad;" horiz-adv-x="546" 
d="M521 351h-187q-5 32 -17.5 44t-34.5 12q-46 0 -46 -41q0 -45 35 -45h50v-105h-58q-41 0 -41 -53q0 -51 62 -51q58 0 69 77h187q-16 -106 -83 -154t-189 -48q-64 0 -117 15.5t-91 54.5t-38 97q0 39 24 70t72 42v5q-80 21 -80 97q0 80 69.5 122t174.5 42q213 0 239 -181z
M192 572l35 149h214l-82 -149h-167z" />
    <glyph glyph-name="etatonos" unicode="&#x3ae;" horiz-adv-x="648" 
d="M218 572l35 149h214l-82 -149h-167zM54 0v519h191v-66h2q56 79 169 79q75 0 126.5 -45.5t51.5 -130.5v-524h-198v440q0 52 -12.5 77t-52.5 25q-79 0 -79 -100v-274h-198z" />
    <glyph glyph-name="iotatonos" unicode="&#x3af;" horiz-adv-x="321" 
d="M252 519v-357q0 -35 32 -35q15 0 29 5v-116q-57 -29 -119 -29q-65 0 -102.5 32.5t-37.5 90.5v409h198zM64 572l35 149h214l-82 -149h-167z" />
    <glyph glyph-name="upsilondieresistonos" unicode="&#x3b0;" horiz-adv-x="610" 
d="M54 519h199v-323q0 -29 14 -48t37 -19q40 0 57.5 31t17.5 113q0 55 -16.5 122.5t-49.5 123.5h205q60 -105 60 -244q0 -132 -72 -210t-202 -78q-122 0 -186 51t-64 149v332zM189 572l35 149h208l-82 -149h-161zM450 581v130h162v-130h-162zM5 581v130h162v-130h-162z" />
    <glyph glyph-name="alpha" unicode="&#x3b1;" horiz-adv-x="646" 
d="M376 519h198v-357q0 -35 31 -35q15 0 29 5v-116q-55 -29 -112 -29q-42 0 -82.5 17t-56.5 53h-3q-44 -70 -138 -70q-70 0 -121 42t-74 103t-23 130q0 39 6 75.5t22 72.5t40 62.5t63.5 43t89.5 16.5q36 0 72 -18t57 -52h2v57zM382 260q0 128 -73 128q-87 0 -87 -128
q0 -129 87 -129q73 0 73 129z" />
    <glyph glyph-name="beta" unicode="&#x3b2;" horiz-adv-x="632" 
d="M54 -168v666q0 229 252 229q125 0 186.5 -49.5t61.5 -127.5q0 -45 -19.5 -85t-58.5 -52q124 -37 124 -190q0 -120 -52.5 -178t-147.5 -58q-98 0 -147 70h-2v-225h-197zM339 330h-49v111h26q22 0 30 16t8 50q0 32 -12.5 54t-35.5 22q-55 0 -55 -97v-228q0 -71 16.5 -98
t58.5 -27q76 0 76 91q0 63 -15 84.5t-48 21.5z" />
    <glyph glyph-name="gamma" unicode="&#x3b3;" horiz-adv-x="528" 
d="M336 519h202q-24 -159 -79 -292t-115 -220q0 -28 0.5 -87t0.5 -88h-198v138q0 108 -50 277t-107 272h208q24 -40 45.5 -133t28.5 -173h5q22 43 39 136.5t20 169.5z" />
    <glyph glyph-name="delta" unicode="&#x3b4;" horiz-adv-x="626" 
d="M32 250q0 78 43 135.5t126 87.5q-92 52 -92 122q0 134 222 134q117 0 199 -36v-136q-106 51 -193 51q-22 0 -22 -21q0 -20 40 -45q3 -1 10 -5q4 -3 6 -4q45 -27 78 -51t69.5 -60t56 -80.5t19.5 -93.5q0 -112 -70 -186.5t-205 -74.5q-144 0 -215.5 73t-71.5 190zM230 250
q0 -67 23 -93t66 -26q77 0 77 117q0 103 -90 159q-76 -27 -76 -157z" />
    <glyph glyph-name="epsilon" unicode="&#x3b5;" horiz-adv-x="546" 
d="M521 351h-187q-5 32 -17.5 44t-34.5 12q-46 0 -46 -41q0 -45 35 -45h50v-105h-58q-41 0 -41 -53q0 -51 62 -51q58 0 69 77h187q-16 -106 -83 -154t-189 -48q-64 0 -117 15.5t-91 54.5t-38 97q0 39 24 70t72 42v5q-80 21 -80 97q0 80 69.5 122t174.5 42q213 0 239 -181z
" />
    <glyph glyph-name="zeta" unicode="&#x3b6;" horiz-adv-x="514" 
d="M341 -66q0 66 -43 66h-30q-113 0 -174.5 69.5t-61.5 192.5q0 205 197 308h-153v144h438v-122q-152 -60 -217 -137.5t-67 -191.5q-1 -57 22 -82t72 -25h34q58 0 94.5 -29.5t48.5 -68t12 -87.5q0 -68 -18 -125h-166q12 43 12 88z" />
    <glyph glyph-name="eta" unicode="&#x3b7;" horiz-adv-x="648" 
d="M54 0v519h191v-66h2q56 79 169 79q75 0 126.5 -45.5t51.5 -130.5v-524h-198v440q0 52 -12.5 77t-52.5 25q-79 0 -79 -100v-274h-198z" />
    <glyph glyph-name="theta" unicode="&#x3b8;" horiz-adv-x="600" 
d="M300 729q272 0 272 -377q0 -174 -63.5 -269.5t-208.5 -95.5q-272 0 -272 365q0 83 14.5 149.5t45.5 118.5t84.5 80.5t127.5 28.5zM229 428h142q-5 84 -20.5 120.5t-50.5 36.5q-36 0 -51 -36.5t-20 -120.5zM300 131q38 0 52.5 31.5t19.5 126.5h-144q4 -96 18.5 -127
t53.5 -31z" />
    <glyph glyph-name="iota" unicode="&#x3b9;" horiz-adv-x="321" 
d="M252 519v-357q0 -35 32 -35q15 0 29 5v-116q-57 -29 -119 -29q-65 0 -102.5 32.5t-37.5 90.5v409h198z" />
    <glyph glyph-name="kappa" unicode="&#x3ba;" horiz-adv-x="607" 
d="M54 0v519h198v-170l126 170h224l-185 -216l214 -303h-238l-106 168l-35 -38v-130h-198z" />
    <glyph glyph-name="lambda" unicode="&#x3bb;" horiz-adv-x="580" 
d="M555 127q17 0 31 5v-116q-50 -29 -107 -29q-111 0 -137 91l-52 188h-4l-82 -266h-210l207 470l-32 77q-16 41 -69 41q-27 0 -50 -8v136q46 12 117 12q80 0 117 -29t72 -110l170 -429q9 -21 14.5 -27t14.5 -6z" />
    <glyph glyph-name="uni03BC" unicode="&#x3bc;" horiz-adv-x="648" 
d="M594 519v-519h-191v66h-2q-56 -77 -132 -77q-9 0 -17 2v-159h-198v687h198v-272q0 -52 12 -77t53 -25q79 0 79 100v274h198z" />
    <glyph glyph-name="nu" unicode="&#x3bd;" horiz-adv-x="556" 
d="M364 519h202q-37 -249 -172 -519h-234l-170 519h209l81 -316h2q67 139 82 316z" />
    <glyph glyph-name="xi" unicode="&#x3be;" horiz-adv-x="506" 
d="M334 -66q0 66 -43 66h-30q-112 0 -170.5 52t-58.5 150q0 136 139 171q-119 27 -119 138q0 96 72 156.5t183 60.5q105 0 184 -32v-146q-104 36 -165 36q-34 0 -55 -19.5t-21 -55.5t15.5 -52t59.5 -16h124v-146h-127q-52 0 -72 -12.5t-20 -49.5q0 -38 19.5 -58.5
t67.5 -20.5h34q58 0 94.5 -29.5t48.5 -68t12 -87.5q0 -68 -18 -125h-166q12 43 12 88z" />
    <glyph glyph-name="omicron" unicode="&#x3bf;" 
d="M598 260q0 -116 -72.5 -194.5t-210.5 -78.5t-210.5 78.5t-72.5 194.5t72.5 194t210.5 78t210.5 -78t72.5 -194zM400 260q0 128 -85 128t-85 -128q0 -129 85 -129t85 129z" />
    <glyph glyph-name="pi" unicode="&#x3c0;" horiz-adv-x="701" 
d="M99 0v375h-93v144h686v-144h-92v-213q0 -35 32 -35q18 0 34 5v-116q-57 -29 -124 -29q-65 0 -102.5 32.5t-37.5 90.5v265h-105v-375h-198z" />
    <glyph glyph-name="rho" unicode="&#x3c1;" horiz-adv-x="636" 
d="M54 -168v425q0 275 264 275q137 0 211.5 -81t74.5 -194q0 -51 -11 -96t-35.5 -85.5t-70.5 -64.5t-109 -24q-86 0 -124 70h-2v-225h-198zM406 263q0 61 -22.5 93t-62.5 32q-76 0 -76 -129q0 -61 20 -94.5t56 -33.5q46 0 65.5 39.5t19.5 92.5z" />
    <glyph glyph-name="sigma1" unicode="&#x3c2;" horiz-adv-x="582" 
d="M345 -66q0 66 -43 66h-40q-99 0 -164.5 65t-65.5 197q0 50 17.5 96.5t51 86t89.5 63.5t127 24q97 0 166 -50t89 -144h-187q-13 50 -68 50q-48 0 -67 -31t-19 -95q0 -106 87 -106h44q58 0 94.5 -29.5t48.5 -68t12 -87.5q0 -68 -18 -125h-166q12 43 12 88z" />
    <glyph glyph-name="sigma" unicode="&#x3c3;" horiz-adv-x="632" 
d="M32 258q0 116 79.5 188.5t218.5 72.5h298v-144h-111q31 -13 48 -45t17 -72q0 -50 -14.5 -95.5t-45 -86t-85.5 -65t-128 -24.5q-133 0 -205 76.5t-72 194.5zM230 258q0 -127 79 -127q38 0 56.5 29.5t18.5 97.5q0 90 -33 118h-14q-56 0 -81.5 -23t-25.5 -95z" />
    <glyph glyph-name="tau" unicode="&#x3c4;" horiz-adv-x="547" 
d="M362 375v-211q0 -35 45 -35q27 0 41 5v-116q-61 -31 -134 -31q-76 0 -113 29.5t-37 93.5v265h-156v144h533v-144h-179z" />
    <glyph glyph-name="upsilon" unicode="&#x3c5;" horiz-adv-x="610" 
d="M54 519h199v-323q0 -29 14 -48t37 -19q40 0 57.5 31t17.5 113q0 55 -16.5 122.5t-49.5 123.5h205q60 -105 60 -244q0 -132 -72 -210t-202 -78q-122 0 -186 51t-64 149v332z" />
    <glyph glyph-name="phi" unicode="&#x3c6;" horiz-adv-x="784" 
d="M490 655v-123q118 0 190 -76.5t72 -192.5q0 -125 -71 -200t-190 -75v-156h-196v155q-116 0 -189.5 75t-73.5 199q0 116 73 193.5t190 77.5v123h195zM490 388v-257q37 0 50.5 33.5t13.5 98.5q0 125 -64 125zM295 130v256q-31 1 -47.5 -35t-16.5 -90q0 -128 64 -131z" />
    <glyph glyph-name="chi" unicode="&#x3c7;" horiz-adv-x="562" 
d="M380 206l196 -374h-216l-81 204l-76 -204h-217l196 369l-181 318h217l65 -154l65 154h210z" />
    <glyph glyph-name="psi" unicode="&#x3c8;" horiz-adv-x="790" 
d="M516 519h203q39 -92 39 -244q0 -126 -71 -207t-193 -81v-155h-194v155q-126 0 -186 63t-60 193v276h198v-269q0 -26 1 -40.5t5 -35.5t14.5 -31.5t27.5 -11.5v523h194v-523q67 0 67 142q0 126 -45 246z" />
    <glyph glyph-name="omega" unicode="&#x3c9;" horiz-adv-x="801" 
d="M315 221v140h171v-141q0 -47 8 -68t27 -21q29 0 39.5 25.5t10.5 88.5q0 148 -96 274h204q90 -120 90 -280q0 -110 -54 -181t-174 -71q-102 0 -144 66q-35 -66 -143 -66q-222 0 -222 251q0 155 90 281h204q-96 -128 -96 -275q0 -64 11 -88.5t39 -24.5q35 0 35 90z" />
    <glyph glyph-name="iotadieresis" unicode="&#x3ca;" horiz-adv-x="321" 
d="M252 519v-357q0 -35 32 -35q15 0 29 5v-116q-57 -29 -119 -29q-65 0 -102.5 32.5t-37.5 90.5v409h198zM183 581v130h170v-130h-170zM-44 581v130h170v-130h-170z" />
    <glyph glyph-name="upsilondieresis" unicode="&#x3cb;" horiz-adv-x="610" 
d="M54 519h199v-323q0 -29 14 -48t37 -19q40 0 57.5 31t17.5 113q0 55 -16.5 122.5t-49.5 123.5h205q60 -105 60 -244q0 -132 -72 -210t-202 -78q-122 0 -186 51t-64 149v332zM311 581v130h170v-130h-170zM84 581v130h170v-130h-170z" />
    <glyph glyph-name="omicrontonos" unicode="&#x3cc;" 
d="M224 572l35 149h214l-82 -149h-167zM598 260q0 -116 -72.5 -194.5t-210.5 -78.5t-210.5 78.5t-72.5 194.5t72.5 194t210.5 78t210.5 -78t72.5 -194zM400 260q0 128 -85 128t-85 -128q0 -129 85 -129t85 129z" />
    <glyph glyph-name="upsilontonos" unicode="&#x3cd;" horiz-adv-x="610" 
d="M54 519h199v-323q0 -29 14 -48t37 -19q40 0 57.5 31t17.5 113q0 55 -16.5 122.5t-49.5 123.5h205q60 -105 60 -244q0 -132 -72 -210t-202 -78q-122 0 -186 51t-64 149v332zM209 572l35 149h214l-82 -149h-167z" />
    <glyph glyph-name="omegatonos" unicode="&#x3ce;" horiz-adv-x="801" 
d="M324 572l35 149h214l-82 -149h-167zM315 221v140h171v-141q0 -47 8 -68t27 -21q29 0 39.5 25.5t10.5 88.5q0 148 -96 274h204q90 -120 90 -280q0 -110 -54 -181t-174 -71q-102 0 -144 66q-35 -66 -143 -66q-222 0 -222 251q0 155 90 281h204q-96 -128 -96 -275
q0 -64 11 -88.5t39 -24.5q35 0 35 90z" />
    <glyph glyph-name="uni0400" unicode="&#x400;" horiz-adv-x="704" 
d="M336 766l-171 149h208l100 -149h-137zM57 0v714h591v-183h-371v-89h337v-170h-337v-89h382v-183h-602z" />
    <glyph glyph-name="afii10023" unicode="&#x401;" horiz-adv-x="704" 
d="M376 775v130h170v-130h-170zM149 775v130h170v-130h-170zM57 0v714h591v-183h-371v-89h337v-170h-337v-89h382v-183h-602z" />
    <glyph glyph-name="afii10051" unicode="&#x402;" horiz-adv-x="862" 
d="M505 21q114 0 114 137q0 128 -94 128q-48 0 -72.5 -32t-24.5 -88v-166h-220v531h-184v183h617v-183h-213v-145q57 65 159 65q111 0 178 -80t67 -205q0 -136 -76.5 -223t-217.5 -87h-33v165z" />
    <glyph glyph-name="afii10052" unicode="&#x403;" horiz-adv-x="634" 
d="M57 0v714h553v-183h-333v-531h-220zM517 915l-172 -149h-136l99 149h209z" />
    <glyph glyph-name="afii10053" unicode="&#x404;" horiz-adv-x="759" 
d="M721 456h-209q-7 40 -34.5 71.5t-85.5 31.5q-54 0 -87 -32t-43 -85h199v-160h-201q9 -58 42 -92.5t90 -34.5q104 0 121 111h211q-2 -52 -24 -101t-61 -90.5t-102 -66.5t-139 -25q-172 0 -267 104.5t-95 269.5q0 171 97 272.5t265 101.5q145 0 227 -73.5t96 -201.5z" />
    <glyph glyph-name="afii10054" unicode="&#x405;" horiz-adv-x="667" 
d="M12 240h220q0 -25 8 -47q19 -52 105 -52q35 0 63 15t28 50q0 26 -28 40t-126 42q-113 32 -154 56q-88 51 -88 151q0 116 83.5 176t204.5 60q128 0 211 -56t87 -177h-208q5 37 -26 57q-26 18 -65 18q-30 0 -54.5 -10.5t-24.5 -37.5q1 -14 11.5 -25.5t35.5 -21t43 -14.5
t59 -15l58 -14q44 -13 75 -26.5t62.5 -37t47.5 -59.5t16 -83q0 -67 -28.5 -116.5t-77 -76.5t-104.5 -40t-120 -13q-30 0 -64 4.5t-80.5 20.5t-82.5 42.5t-61.5 75.5t-25.5 114z" />
    <glyph glyph-name="afii10055" unicode="&#x406;" horiz-adv-x="333" 
d="M57 0v714h220v-714h-220z" />
    <glyph glyph-name="afii10056" unicode="&#x407;" horiz-adv-x="333" 
d="M196 775v130h170v-130h-170zM-31 775v130h170v-130h-170zM57 0v714h220v-714h-220z" />
    <glyph glyph-name="afii10057" unicode="&#x408;" horiz-adv-x="611" 
d="M555 714v-457q0 -145 -65.5 -209.5t-202.5 -64.5q-132 0 -197 68t-65 189v60h198v-41q0 -22 0.5 -33t3.5 -27.5t9 -24.5t17.5 -14.5t28.5 -6.5q13 0 23 4.5t15.5 15.5l9 17.5t4.5 24t1 20.5v19v460h220z" />
    <glyph glyph-name="afii10058" unicode="&#x409;" horiz-adv-x="1100" 
d="M139 714h557v-243h114q131 0 197.5 -60.5t66.5 -169.5q0 -114 -69.5 -177.5t-202.5 -63.5h-323v531h-128v-196q0 -175 -58.5 -263.5t-187.5 -88.5q-47 0 -86 13v171q24 -6 42 -6q39 0 58.5 38t19.5 139v376zM696 307v-141h87q39 0 61.5 18.5t22.5 52.5q0 32 -21.5 51
t-62.5 19h-87z" />
    <glyph glyph-name="afii10059" unicode="&#x40a;" horiz-adv-x="1100" 
d="M476 0v298h-198v-298h-220v714h220v-243h198v243h220v-243h114q131 0 197.5 -60.5t66.5 -169.5q0 -114 -69.5 -177.5t-202.5 -63.5h-326zM696 307v-141h87q39 0 61.5 18.5t22.5 52.5q0 32 -21.5 51t-62.5 19h-87z" />
    <glyph glyph-name="afii10060" unicode="&#x40b;" horiz-adv-x="862" 
d="M428 0h-220v531h-184v183h617v-183h-213v-107q77 24 147 24q259 0 259 -259v-189h-220v165q0 56 -25.5 86t-74.5 30q-43 0 -86 -13v-268z" />
    <glyph glyph-name="afii10061" unicode="&#x40c;" horiz-adv-x="778" 
d="M63 0v714h220v-246h2l196 246h271l-259 -279l301 -435h-274l-176 278l-61 -67v-211h-220zM580 915l-172 -149h-136l99 149h209z" />
    <glyph glyph-name="uni040D" unicode="&#x40d;" horiz-adv-x="759" 
d="M703 714v-714h-208v423h-2l-203 -423h-233v714h208v-415h2l201 415h235zM329 766l-171 149h208l100 -149h-137z" />
    <glyph glyph-name="afii10062" unicode="&#x40e;" horiz-adv-x="667" 
d="M211 245l-228 469h241l111 -315l111 315h237l-281 -603q-30 -64 -82.5 -96t-118.5 -32q-77 0 -124 19v177q43 -18 83 -18q61 0 61 46q0 17 -10 38zM439 917h78q-4 -74 -55.5 -113.5t-127.5 -39.5q-82 0 -130 39t-50 114h78q3 -33 36 -49.5t70 -16.5q36 0 65.5 16.5
t35.5 49.5z" />
    <glyph glyph-name="afii10145" unicode="&#x40f;" horiz-adv-x="759" 
d="M57 0v714h220v-531h206v531h220v-714h-221v-167h-204v167h-221z" />
    <glyph glyph-name="afii10017" unicode="&#x410;" horiz-adv-x="722" 
d="M-8 0l263 714h215l260 -714h-228l-30 102h-227l-32 -102h-221zM293 255h135l-64 220h-2z" />
    <glyph glyph-name="afii10018" unicode="&#x411;" horiz-adv-x="738" 
d="M57 0v714h592v-178h-372v-85h161q133 0 200.5 -56.5t67.5 -163.5q0 -113 -70.5 -172t-205.5 -59h-373zM277 292v-131h142q77 0 77 66q0 65 -77 65h-142z" />
    <glyph glyph-name="afii10019" unicode="&#x412;" horiz-adv-x="741" 
d="M57 0v714h391q67 0 114.5 -17t70.5 -45.5t33 -57t10 -59.5q0 -92 -88 -140q124 -41 124 -178q0 -101 -74.5 -159t-175.5 -58h-405zM277 436h116q38 0 56.5 13t18.5 46q0 49 -75 49h-116v-108zM277 170h129q86 0 86 68q0 65 -77 65h-138v-133z" />
    <glyph glyph-name="afii10020" unicode="&#x413;" horiz-adv-x="634" 
d="M57 0v714h553v-183h-333v-531h-220z" />
    <glyph glyph-name="afii10021" unicode="&#x414;" horiz-adv-x="804" 
d="M171 713h549v-530h76v-350h-203v167h-376v-167h-204v350h73q41 77 63 202t22 264v64zM504 183v351h-136v-24q0 -72 -17 -164t-48 -163h201z" />
    <glyph glyph-name="afii10022" unicode="&#x415;" horiz-adv-x="704" 
d="M57 0v714h591v-183h-371v-89h337v-170h-337v-89h382v-183h-602z" />
    <glyph glyph-name="afii10024" unicode="&#x416;" horiz-adv-x="1130" 
d="M455 196l-52 66l-136 -262h-264l251 428l-224 286h251l174 -245v245h220v-250l174 250h251l-223 -279l249 -435h-266l-135 266l-50 -65v-201h-220v196z" />
    <glyph glyph-name="afii10025" unicode="&#x417;" horiz-adv-x="682" 
d="M653 225q0 -122 -90 -182t-226 -60q-149 0 -235 69t-88 188h219q5 -90 100 -90q50 0 77.5 22.5t27.5 60.5q0 71 -95 71h-65v135h45q60 0 86 15t26 50q0 30 -25.5 48t-68.5 18t-70.5 -19t-28.5 -51h-205q1 109 84 170t224 61q131 0 208.5 -51t77.5 -148q0 -46 -27.5 -86
t-77.5 -60q58 -15 92.5 -57.5t34.5 -103.5z" />
    <glyph glyph-name="afii10026" unicode="&#x418;" horiz-adv-x="759" 
d="M703 714v-714h-208v423h-2l-203 -423h-233v714h208v-415h2l201 415h235z" />
    <glyph glyph-name="afii10027" unicode="&#x419;" horiz-adv-x="759" 
d="M703 714v-714h-208v423h-2l-203 -423h-233v714h208v-415h2l201 415h235zM483 917h78q-4 -74 -55.5 -113.5t-127.5 -39.5q-82 0 -130 39t-50 114h78q3 -33 36 -49.5t70 -16.5q36 0 65.5 16.5t35.5 49.5z" />
    <glyph glyph-name="afii10028" unicode="&#x41a;" horiz-adv-x="778" 
d="M63 0v714h220v-246h2l196 246h271l-259 -279l301 -435h-274l-176 278l-61 -67v-211h-220z" />
    <glyph glyph-name="afii10029" unicode="&#x41b;" horiz-adv-x="779" 
d="M144 714h579v-714h-220v531h-144v-196q0 -176 -60 -264t-194 -88q-47 0 -86 13v171q24 -6 42 -6q42 0 62.5 37.5t20.5 139.5v376z" />
    <glyph glyph-name="afii10030" unicode="&#x41c;" horiz-adv-x="944" 
d="M56 0v714h313l102 -420h2l102 420h313v-714h-208v458h-2l-124 -458h-164l-124 458h-2v-458h-208z" />
    <glyph glyph-name="afii10031" unicode="&#x41d;" horiz-adv-x="759" 
d="M57 0v714h220v-248h206v248h220v-714h-220v283h-206v-283h-220z" />
    <glyph glyph-name="afii10032" unicode="&#x41e;" horiz-adv-x="796" 
d="M36 357q0 165 100 269.5t262 104.5t262 -104.5t100 -269.5t-100 -269.5t-262 -104.5t-262 104.5t-100 269.5zM256 357q0 -56 14 -97t36.5 -61t45 -29t46.5 -9t46.5 9t45 29t36.5 61t14 97t-14 97t-36.5 61t-45 29t-46.5 9t-46.5 -9t-45 -29t-36.5 -61t-14 -97z" />
    <glyph glyph-name="afii10033" unicode="&#x41f;" horiz-adv-x="759" 
d="M703 714v-714h-220v531h-206v-531h-220v714h646z" />
    <glyph glyph-name="afii10034" unicode="&#x420;" horiz-adv-x="704" 
d="M57 0v714h368q69 0 122.5 -23.5t82.5 -61t43 -78t14 -81.5q0 -125 -76 -189.5t-204 -64.5h-130v-216h-220zM277 531v-145h85q27 0 43 2t35.5 8.5t29 23t9.5 42.5q0 31 -16.5 47t-35.5 19t-52 3h-98z" />
    <glyph glyph-name="afii10035" unicode="&#x421;" horiz-adv-x="759" 
d="M36 357q0 169 99 271.5t263 102.5q146 -1 227.5 -73.5t95.5 -209.5h-214q-20 105 -115 105q-71 0 -103.5 -56.5t-32.5 -139.5t32.5 -139.5t103.5 -56.5q52 0 78 31t38 88h216q0 -117 -89 -207t-237 -90q-169 0 -265.5 105.5t-96.5 268.5z" />
    <glyph glyph-name="afii10036" unicode="&#x422;" horiz-adv-x="668" 
d="M224 0v531h-200v183h620v-183h-200v-531h-220z" />
    <glyph glyph-name="afii10037" unicode="&#x423;" horiz-adv-x="667" 
d="M211 245l-228 469h241l111 -315l111 315h237l-281 -603q-30 -64 -82.5 -96t-118.5 -32q-77 0 -124 19v177q43 -18 83 -18q61 0 61 46q0 17 -10 38z" />
    <glyph glyph-name="afii10038" unicode="&#x424;" horiz-adv-x="938" 
d="M579 0h-220v70q-149 0 -236.5 80t-87.5 210q0 52 18.5 100t55.5 89.5t101.5 66.5t148.5 26v72h220v-72q84 0 148.5 -24.5t101.5 -65.5t55.5 -89.5t18.5 -102.5q0 -127 -87.5 -208t-236.5 -82v-70zM574 488v-263q59 0 85 38.5t26 96.5q0 49 -26.5 88.5t-84.5 39.5z
M364 225v263q-59 0 -85 -38t-26 -90q0 -55 26.5 -95t84.5 -40z" />
    <glyph glyph-name="afii10039" unicode="&#x425;" horiz-adv-x="741" 
d="M-12 0l258 380l-235 334h258l108 -194l106 194h244l-229 -336l255 -378h-265l-122 213l-126 -213h-252z" />
    <glyph glyph-name="afii10040" unicode="&#x426;" horiz-adv-x="787" 
d="M779 183v-350h-204v167h-518v714h220v-531h206v531h220v-531h76z" />
    <glyph glyph-name="afii10041" unicode="&#x427;" horiz-adv-x="722" 
d="M446 714h220v-714h-220v284q-78 -26 -161 -26q-128 0 -187 58.5t-59 200.5v197h220v-170q0 -59 22.5 -87.5t74.5 -28.5q46 0 90 14v272z" />
    <glyph glyph-name="afii10042" unicode="&#x428;" horiz-adv-x="1096" 
d="M1040 0h-983v714h213v-531h172v531h213v-531h172v531h213v-714z" />
    <glyph glyph-name="afii10043" unicode="&#x429;" horiz-adv-x="1124" 
d="M1116 183v-350h-204v167h-855v714h213v-531h172v531h213v-531h172v531h213v-531h76z" />
    <glyph glyph-name="afii10044" unicode="&#x42a;" horiz-adv-x="840" 
d="M413 714v-224h133q131 0 199.5 -64t68.5 -176q0 -117 -71.5 -183.5t-204.5 -66.5h-345v531h-169v183h389zM413 321v-150h105q40 0 63 19t23 56q0 35 -22.5 55t-63.5 20h-105z" />
    <glyph glyph-name="afii10045" unicode="&#x42b;" horiz-adv-x="1006" 
d="M730 714h220v-714h-220v714zM277 714v-224h103q131 0 199.5 -64t68.5 -176q0 -117 -71.5 -183.5t-204.5 -66.5h-315v714h220zM277 321v-150h75q40 0 63 19t23 56q0 35 -22.5 55t-63.5 20h-75z" />
    <glyph glyph-name="afii10046" unicode="&#x42c;" horiz-adv-x="704" 
d="M277 714v-224h133q131 0 199.5 -64t68.5 -176q0 -117 -71.5 -183.5t-204.5 -66.5h-345v714h220zM277 321v-150h105q40 0 63 19t23 56q0 35 -22.5 55t-63.5 20h-105z" />
    <glyph glyph-name="afii10047" unicode="&#x42d;" horiz-adv-x="759" 
d="M247 456h-209q17 122 104.5 198.5t227.5 76.5q167 0 260 -100.5t93 -270.5q0 -167 -95 -272t-266 -105q-152 0 -237.5 84.5t-89.5 198.5h211q17 -111 123 -111q58 0 91.5 35.5t38.5 91.5h-201v160h199q-7 52 -38 84.5t-85 32.5q-103 0 -127 -103z" />
    <glyph glyph-name="afii10048" unicode="&#x42e;" horiz-adv-x="1094" 
d="M57 0v714h220v-248h115q25 122 109 193.5t215 71.5q160 0 251 -103.5t91 -270.5t-91 -270.5t-251 -103.5q-141 0 -227 81t-103 219h-109v-283h-220zM594 357q0 -199 122 -199t122 199t-122 199t-122 -199z" />
    <glyph glyph-name="afii10049" unicode="&#x42f;" horiz-adv-x="720" 
d="M664 0h-220v255h-56l-147 -255h-260l198 282q-59 22 -96.5 76.5t-37.5 123.5q0 103 70 167.5t223 64.5h326v-714zM444 411v136h-101q-83 0 -83 -68t83 -68h101z" />
    <glyph glyph-name="afii10065" unicode="&#x430;" horiz-adv-x="611" 
d="M560 329v-213q0 -82 24 -116h-202q-9 26 -7 49h-2q-56 -62 -167 -62q-80 0 -131.5 39.5t-51.5 117.5q0 39 15.5 69t37.5 46t57 28t62 16l65.5 9.5t55.5 8.5q16 3 26.5 7t19 14t8.5 25q0 24 -19 36t-46 12q-40 0 -57 -16t-17 -37h-184q1 42 18 74t42.5 49.5t62 28.5
t70 14.5t74.5 3.5q52 0 92 -6.5t65.5 -15.5t43.5 -27t26.5 -31.5t13 -39.5t5 -39.5t0.5 -43.5zM370 185v48q-20 -10 -78 -25q-37 -9 -52 -20t-15 -36q0 -19 18 -33.5t44 -14.5q35 0 58 20.5t25 60.5z" />
    <glyph glyph-name="afii10066" unicode="&#x431;" 
d="M598 251q0 -121 -78 -192.5t-202 -71.5q-141 0 -210.5 90t-69.5 247q0 135 55 228t175 117l65 13q37 7 48 33h192q-11 -65 -43 -100.5t-92 -45.5l-117 -21q-66 -12 -99.5 -42.5t-41.5 -85.5h3q63 91 184 91q104 0 167.5 -71.5t63.5 -188.5zM400 249q0 121 -83 121
q-82 0 -82 -121t82 -121q83 0 83 121z" />
    <glyph glyph-name="afii10067" unicode="&#x432;" horiz-adv-x="619" 
d="M378 0h-324v519h326q94 0 142 -34.5t48 -97.5q0 -76 -75 -107v-2q95 -26 95 -119q0 -159 -212 -159zM249 408v-88h74q57 0 57 46q0 42 -54 42h-77zM249 112h82q25 0 41.5 14t16.5 39q0 50 -67 50h-73v-103z" />
    <glyph glyph-name="afii10068" unicode="&#x433;" horiz-adv-x="500" 
d="M54 519h431v-148h-233v-371h-198v519z" />
    <glyph glyph-name="afii10069" unicode="&#x434;" horiz-adv-x="656" 
d="M648 -137h-182v137h-276v-137h-182v285h57q30 47 46.5 125t16.5 163v83h453v-371h67v-285zM393 148v228h-93q0 -54 -11 -119t-33 -109h137z" />
    <glyph glyph-name="afii10070" unicode="&#x435;" 
d="M601 215h-380q4 -47 29.5 -74t71.5 -27q59 0 83 37h185q-29 -81 -101.5 -122.5t-165.5 -41.5q-128 0 -209.5 72t-81.5 199q0 116 76.5 195t197.5 79q295 0 295 -317zM222 318h189q0 37 -24.5 62t-62.5 25q-88 0 -102 -87z" />
    <glyph glyph-name="afii10072" unicode="&#x436;" horiz-adv-x="900" 
d="M354 0v137l-29 38l-100 -175h-236l213 297l-190 222h228l112 -159h2v159h193v-163h2l115 163h225l-190 -217l213 -302h-236l-100 182l-29 -40v-142h-193z" />
    <glyph glyph-name="afii10073" unicode="&#x437;" horiz-adv-x="583" 
d="M286 413q-23 0 -42.5 -12.5t-23.5 -38.5h-186q0 86 71.5 128t189.5 42q117 0 180.5 -39t63.5 -107q0 -35 -21 -62.5t-55 -41.5q44 -9 70 -40t26 -70q0 -90 -74.5 -137.5t-210.5 -47.5q-119 0 -188 47t-69 143h187q0 -66 79 -66q35 0 55 15.5t20 38.5q0 51 -80 51h-38v103
h32q73 0 73 49q0 21 -17 33t-42 12z" />
    <glyph glyph-name="afii10074" unicode="&#x438;" horiz-adv-x="648" 
d="M396 519h198v-519h-190v278h-3l-149 -278h-198v519h190v-271h3z" />
    <glyph glyph-name="afii10075" unicode="&#x439;" horiz-adv-x="648" 
d="M396 519h198v-519h-190v278h-3l-149 -278h-198v519h190v-271h3zM428 723h78q-4 -74 -55.5 -113.5t-127.5 -39.5q-82 0 -130 39t-50 114h78q3 -33 36 -49.5t70 -16.5q36 0 65.5 16.5t35.5 49.5z" />
    <glyph glyph-name="afii10076" unicode="&#x43a;" horiz-adv-x="607" 
d="M54 0v519h198v-160l126 160h224l-185 -206l214 -313h-238l-106 178l-35 -38v-140h-198z" />
    <glyph glyph-name="afii10077" unicode="&#x43b;" 
d="M576 0h-195v371h-102l-4 -161q-6 -223 -195 -223q-41 0 -80 14v135q17 -5 35 -5q28 0 41 21t14 76l4 291h482v-519z" />
    <glyph glyph-name="afii10078" unicode="&#x43c;" horiz-adv-x="802" 
d="M237 326h-3v-326h-180v519h251l97 -304h1l98 304h247v-519h-180v326h-3l-107 -326h-116z" />
    <glyph glyph-name="afii10079" unicode="&#x43d;" horiz-adv-x="648" 
d="M396 347v172h198v-519h-198v199h-144v-199h-198v519h198v-172h144z" />
    <glyph glyph-name="afii10080" unicode="&#x43e;" 
d="M598 260q0 -116 -72.5 -194.5t-210.5 -78.5t-210.5 78.5t-72.5 194.5t72.5 194t210.5 78t210.5 -78t72.5 -194zM400 260q0 128 -85 128t-85 -128q0 -129 85 -129t85 129z" />
    <glyph glyph-name="afii10081" unicode="&#x43f;" horiz-adv-x="648" 
d="M594 519v-519h-198v371h-144v-371h-198v519h540z" />
    <glyph glyph-name="afii10082" unicode="&#x440;" horiz-adv-x="648" 
d="M54 -168v687h191v-57h2q16 21 29 33.5t45.5 24.5t77.5 12q70 0 121 -42t74 -103t23 -130q0 -39 -6 -75.5t-22 -72.5t-40 -62.5t-63.5 -43t-89.5 -16.5q-93 0 -142 70h-2v-225h-198zM245 259q0 -128 87 -128t87 128q0 129 -87 129t-87 -129z" />
    <glyph glyph-name="afii10083" unicode="&#x441;" horiz-adv-x="611" 
d="M577 322h-188q-3 33 -22 49q-20 17 -50 17q-51 0 -69 -35.5t-18 -93.5q0 -37 5.5 -62.5t25.5 -45.5t56 -20q31 0 52.5 22t24.5 54h189q-14 -103 -88 -161.5t-182 -58.5q-119 0 -200 75.5t-81 196.5t81 197t200 76q109 0 182 -53.5t82 -156.5z" />
    <glyph glyph-name="afii10084" unicode="&#x442;" horiz-adv-x="556" 
d="M179 371h-164v148h526v-148h-164v-371h-198v371z" />
    <glyph glyph-name="afii10085" unicode="&#x443;" horiz-adv-x="556" 
d="M571 519l-188 -526q-33 -93 -81.5 -127t-156.5 -34h-110v158h78q47 0 47 42q0 18 -46 141l-129 346h212l83 -298h2l84 298h205z" />
    <glyph glyph-name="afii10086" unicode="&#x444;" horiz-adv-x="906" 
d="M551 485h3q45 47 120 47q94 0 148.5 -73t54.5 -204q0 -116 -55 -192t-152 -76q-78 0 -116 53h-3v-209h-196v203h-3q-45 -47 -120 -47q-94 0 -148.5 73t-54.5 204q0 116 55 192t152 76q78 0 116 -53h3v235h196v-229zM682 269q0 54 -19.5 86t-57.5 32q-35 0 -54 -30v-196
q6 -12 20.5 -21t29.5 -9q81 0 81 138zM224 249q0 -54 19.5 -86t57.5 -32q35 0 54 30v196q-6 12 -20.5 21t-29.5 9q-81 0 -81 -138z" />
    <glyph glyph-name="afii10087" unicode="&#x445;" horiz-adv-x="556" 
d="M-14 0l181 273l-163 246h218l57 -103l58 103h212l-163 -246l184 -273h-218l-76 127l-73 -127h-217z" />
    <glyph glyph-name="afii10088" unicode="&#x446;" horiz-adv-x="669" 
d="M54 0v519h198v-371h144v371h198v-371h67v-285h-182v137h-425z" />
    <glyph glyph-name="afii10089" unicode="&#x447;" horiz-adv-x="610" 
d="M556 519v-519h-198v198q-64 -25 -134 -25q-95 0 -142 49t-47 157v140h198v-126q0 -45 17 -63.5t53 -18.5q29 0 55 11v197h198z" />
    <glyph glyph-name="afii10090" unicode="&#x448;" horiz-adv-x="921" 
d="M867 0h-813v519h189v-371h123v371h189v-371h123v371h189v-519z" />
    <glyph glyph-name="afii10091" unicode="&#x449;" horiz-adv-x="942" 
d="M54 0v519h189v-371h123v371h189v-371h123v371h189v-371h67v-285h-182v137h-698z" />
    <glyph glyph-name="afii10092" unicode="&#x44a;" horiz-adv-x="686" 
d="M664 181q0 -86 -53 -133.5t-157 -47.5h-314v371h-125v148h323v-164h120q104 0 155 -45.5t51 -128.5zM471 177q0 58 -68 58h-65v-115h65q68 0 68 57z" />
    <glyph glyph-name="afii10093" unicode="&#x44b;" horiz-adv-x="870" 
d="M618 0v519h198v-519h-198zM553 181q0 -86 -53 -133.5t-157 -47.5h-289v519h198v-164h95q104 0 155 -45.5t51 -128.5zM360 177q0 58 -68 58h-40v-115h40q68 0 68 57z" />
    <glyph glyph-name="afii10094" unicode="&#x44c;" horiz-adv-x="600" 
d="M578 181q0 -86 -53 -133.5t-157 -47.5h-314v519h198v-164h120q104 0 155 -45.5t51 -128.5zM385 177q0 58 -68 58h-65v-115h65q68 0 68 57z" />
    <glyph glyph-name="afii10095" unicode="&#x44d;" horiz-adv-x="611" 
d="M216 330h-178q18 97 91 149.5t182 52.5q126 0 200.5 -73.5t74.5 -194.5q0 -125 -80 -201t-208 -76q-109 0 -183 55.5t-83 155.5h180q4 -34 27.5 -55.5t59.5 -21.5q87 0 93 94h-137v103h135q-10 81 -85 81q-74 0 -89 -69z" />
    <glyph glyph-name="afii10096" unicode="&#x44e;" horiz-adv-x="890" 
d="M858 260q0 -116 -69.5 -194.5t-201.5 -78.5q-116 0 -181 58.5t-80 153.5h-74v-199h-198v519h198v-172h80q22 84 85 134.5t170 50.5q132 0 201.5 -78.5t69.5 -193.5zM664 260q0 131 -77 131t-77 -131q0 -132 77 -132t77 132z" />
    <glyph glyph-name="afii10097" unicode="&#x44f;" horiz-adv-x="614" 
d="M327 178l-91 -178h-231l133 194q-52 21 -77.5 61t-25.5 87q0 83 54.5 130t167.5 47h303v-519h-195v178h-38zM365 292v111h-67q-70 0 -70 -55q0 -56 69 -56h68z" />
    <glyph glyph-name="uni0450" unicode="&#x450;" 
d="M253 572l-171 149h208l100 -149h-137zM601 215h-380q4 -47 29.5 -74t71.5 -27q59 0 83 37h185q-29 -81 -101.5 -122.5t-165.5 -41.5q-128 0 -209.5 72t-81.5 199q0 116 76.5 195t197.5 79q295 0 295 -317zM222 318h189q0 37 -24.5 62t-62.5 25q-88 0 -102 -87z" />
    <glyph glyph-name="afii10071" unicode="&#x451;" 
d="M348 581v130h170v-130h-170zM121 581v130h170v-130h-170zM601 215h-380q4 -47 29.5 -74t71.5 -27q59 0 83 37h185q-29 -81 -101.5 -122.5t-165.5 -41.5q-128 0 -209.5 72t-81.5 199q0 116 76.5 195t197.5 79q295 0 295 -317zM222 318h189q0 37 -24.5 62t-62.5 25
q-88 0 -102 -87z" />
    <glyph glyph-name="afii10099" unicode="&#x452;" horiz-adv-x="648" 
d="M396 84v168q0 52 -12.5 77t-52.5 25q-79 0 -79 -100v-254h-198v544h-82v116h82v54h198v-54h155v-116h-155v-104h2q57 69 162 69q75 0 126.5 -45.5t51.5 -130.5v-250q0 -134 -70.5 -192.5t-230.5 -58.5v158q64 1 83.5 17.5t19.5 76.5z" />
    <glyph glyph-name="afii10100" unicode="&#x453;" horiz-adv-x="500" 
d="M54 519h431v-148h-233v-371h-198v519zM464 721l-172 -149h-136l99 149h209z" />
    <glyph glyph-name="afii10101" unicode="&#x454;" horiz-adv-x="611" 
d="M580 330h-181q-2 31 -23 50t-57 19q-81 0 -91 -81h135v-103h-137q6 -94 93 -94q71 0 87 77h180q-17 -99 -90.5 -155t-180.5 -56q-126 0 -204.5 74.5t-78.5 197.5q0 122 79.5 197.5t203.5 75.5q111 0 181.5 -51.5t83.5 -150.5z" />
    <glyph glyph-name="afii10102" unicode="&#x455;" horiz-adv-x="574" 
d="M534 368h-180q-1 24 -23 39q-18 15 -44 15q-60 0 -60 -40q0 -17 23 -27q15 -6 77 -17.5t97 -22.5q124 -39 124 -145q0 -52 -23 -89t-62.5 -57t-83.5 -28.5t-95 -8.5q-66 0 -121.5 17t-96 60t-41.5 106h189q2 -27 24 -46q16 -15 53 -15q24 0 45.5 10t21.5 30q0 23 -20 33
t-89 22q-113 19 -162.5 57.5t-49.5 105.5q0 47 23 81t61 51t78 25t83 8q46 0 86.5 -7.5t79 -24.5t61.5 -51t25 -81z" />
    <glyph glyph-name="afii10103" unicode="&#x456;" horiz-adv-x="315" 
d="M256 714v-139h-198v139h198zM58 0v519h198v-519h-198z" />
    <glyph glyph-name="afii10104" unicode="&#x457;" horiz-adv-x="315" 
d="M188 581v130h170v-130h-170zM-39 581v130h170v-130h-170zM256 0h-198v519h198v-519z" />
    <glyph glyph-name="afii10105" unicode="&#x458;" horiz-adv-x="315" 
d="M256 714v-139h-198v139h198zM-30 -168v158h33q31 0 43 13.5t12 50.5v465h198v-484q0 -69 -8.5 -106.5t-37.5 -61.5q-40 -35 -147 -35h-93z" />
    <glyph glyph-name="afii10106" unicode="&#x459;" horiz-adv-x="902" 
d="M880 176q0 -83 -53 -129.5t-157 -46.5h-289v371h-102l-4 -161q-6 -223 -195 -223q-41 0 -80 14v135q17 -5 35 -5q28 0 41 21t14 76l4 291h482v-174h98q103 0 154.5 -45t51.5 -124zM690 172q0 53 -66 53h-48v-105h48q66 0 66 52z" />
    <glyph glyph-name="afii10107" unicode="&#x45a;" horiz-adv-x="902" 
d="M378 345v174h198v-174h98q103 0 154.5 -45t51.5 -124q0 -83 -53 -129.5t-157 -46.5h-292v210h-126v-210h-198v519h198v-174h126zM690 172q0 53 -66 53h-48v-105h48q66 0 66 52z" />
    <glyph glyph-name="afii10108" unicode="&#x45b;" horiz-adv-x="648" 
d="M396 0v252q0 52 -12.5 77t-52.5 25q-79 0 -79 -100v-254h-198v544h-82v116h82v54h198v-54h155v-116h-155v-104h2q57 69 162 69q75 0 126.5 -45.5t51.5 -130.5v-333h-198z" />
    <glyph glyph-name="afii10109" unicode="&#x45c;" horiz-adv-x="607" 
d="M54 0v519h198v-160l126 160h224l-185 -206l214 -313h-238l-106 178l-35 -38v-140h-198zM506 721l-172 -149h-136l99 149h209z" />
    <glyph glyph-name="uni045D" unicode="&#x45d;" horiz-adv-x="648" 
d="M396 519h198v-519h-190v278h-3l-149 -278h-198v519h190v-271h3zM287 572l-171 149h208l100 -149h-137z" />
    <glyph glyph-name="afii10110" unicode="&#x45e;" horiz-adv-x="556" 
d="M386 723h78q-4 -74 -55.5 -113.5t-127.5 -39.5q-82 0 -130 39t-50 114h78q3 -33 36 -49.5t70 -16.5q36 0 65.5 16.5t35.5 49.5zM571 519l-188 -526q-33 -93 -81.5 -127t-156.5 -34h-110v158h78q47 0 47 42q0 18 -46 141l-129 346h212l83 -298h2l84 298h205z" />
    <glyph glyph-name="afii10193" unicode="&#x45f;" horiz-adv-x="648" 
d="M54 0v519h198v-371h144v371h198v-519h-179v-137h-182v137h-179z" />
    <glyph glyph-name="afii10146" unicode="&#x462;" horiz-adv-x="780" 
d="M539 506h-182v-62h134q131 0 197 -55.5t66 -161.5q0 -110 -69.5 -168.5t-201.5 -58.5h-346v506h-113v148h113v60h220v-60h182v-148zM357 287v-128h115q76 0 76 64t-76 64h-115z" />
    <glyph glyph-name="afii10194" unicode="&#x463;" horiz-adv-x="680" 
d="M541 371h-203v-54h120q200 0 200 -155q0 -162 -204 -162h-314v371h-125v148h125v195h198v-195h203v-148zM476 158q0 46 -56 46h-82v-91h82q56 0 56 45z" />
    <glyph glyph-name="afii10147" unicode="&#x472;" horiz-adv-x="796" 
d="M36 357q0 165 100 269.5t262 104.5t262 -104.5t100 -269.5t-100 -269.5t-262 -104.5t-262 104.5t-100 269.5zM398 559q-45 0 -83 -27t-53 -89h271q-14 62 -52 89t-83 27zM398 155q47 0 86 29.5t52 97.5h-276q13 -68 51.5 -97.5t86.5 -29.5z" />
    <glyph glyph-name="afii10195" unicode="&#x473;" 
d="M598 260q0 -116 -72.5 -194.5t-210.5 -78.5t-210.5 78.5t-72.5 194.5t72.5 194t210.5 78t210.5 -78t72.5 -194zM315 401q-76 0 -93 -87h185q-15 87 -92 87zM315 117q79 0 93 94h-187q15 -94 94 -94z" />
    <glyph glyph-name="afii10148" unicode="&#x474;" horiz-adv-x="684" 
d="M576 509l-134 -509h-246l-213 714h222l117 -433h2l70 295q37 155 187 155q51 0 88 -9v-175q-22 6 -40 6q-41 0 -53 -44z" />
    <glyph glyph-name="afii10196" unicode="&#x475;" horiz-adv-x="556" 
d="M496 367l-102 -367h-234l-170 519h209l81 -316h2l47 204q16 69 54 98t102 29q45 0 79 -9v-124q-14 3 -29 3q-28 0 -39 -37z" />
    <glyph glyph-name="afii10050" unicode="&#x490;" horiz-adv-x="634" 
d="M57 0v714h353v158h192v-341h-325v-531h-220z" />
    <glyph glyph-name="afii10098" unicode="&#x491;" horiz-adv-x="500" 
d="M54 519h261v128h165v-276h-228v-371h-198v519z" />
    <glyph glyph-name="Wgrave" unicode="&#x1e80;" horiz-adv-x="963" 
d="M970 714l-200 -714h-214l-77 435h-2l-75 -435h-215l-194 714h216l87 -441h2l86 441h194l84 -447h2l89 447h217zM452 766l-171 149h208l100 -149h-137z" />
    <glyph glyph-name="wgrave" unicode="&#x1e81;" horiz-adv-x="870" 
d="M878 519l-165 -519h-203l-75 319h-2l-77 -319h-203l-162 519h206l77 -321h2l66 321h185l69 -321h4l72 321h206zM400 572l-171 149h208l100 -149h-137z" />
    <glyph glyph-name="Wacute" unicode="&#x1e82;" horiz-adv-x="963" 
d="M970 714l-200 -714h-214l-77 435h-2l-75 -435h-215l-194 714h216l87 -441h2l86 441h194l84 -447h2l89 447h217zM681 915l-172 -149h-136l99 149h209z" />
    <glyph glyph-name="wacute" unicode="&#x1e83;" horiz-adv-x="870" 
d="M878 519l-165 -519h-203l-75 319h-2l-77 -319h-203l-162 519h206l77 -321h2l66 321h185l69 -321h4l72 321h206zM639 721l-172 -149h-136l99 149h209z" />
    <glyph glyph-name="Wdieresis" unicode="&#x1e84;" horiz-adv-x="963" 
d="M970 714l-200 -714h-214l-77 435h-2l-75 -435h-215l-194 714h216l87 -441h2l86 441h194l84 -447h2l89 447h217zM510 775v130h170v-130h-170zM283 775v130h170v-130h-170z" />
    <glyph glyph-name="wdieresis" unicode="&#x1e85;" horiz-adv-x="870" 
d="M878 519l-165 -519h-203l-75 319h-2l-77 -319h-203l-162 519h206l77 -321h2l66 321h185l69 -321h4l72 321h206zM463 581v130h170v-130h-170zM236 581v130h170v-130h-170z" />
    <glyph glyph-name="Ygrave" unicode="&#x1ef2;" horiz-adv-x="667" 
d="M221 0v263l-251 451h243l119 -263l124 263h241l-256 -451v-263h-220zM303 766l-171 149h208l100 -149h-137z" />
    <glyph glyph-name="ygrave" unicode="&#x1ef3;" horiz-adv-x="556" 
d="M571 519l-188 -526q-33 -93 -81.5 -127t-156.5 -34h-110v158h78q47 0 47 42q0 18 -46 141l-129 346h212l83 -298h2l84 298h205zM247 572l-171 149h208l100 -149h-137z" />
    <glyph glyph-name="uni2010" unicode="&#x2010;" horiz-adv-x="407" 
d="M47 185v164h313v-164h-313z" />
    <glyph glyph-name="endash" unicode="&#x2013;" horiz-adv-x="500" 
d="M0 188v158h500v-158h-500z" />
    <glyph glyph-name="emdash" unicode="&#x2014;" horiz-adv-x="1000" 
d="M130 188v158h740v-158h-740z" />
    <glyph glyph-name="afii00208" unicode="&#x2015;" horiz-adv-x="1000" 
d="M70 188v158h860v-158h-860z" />
    <glyph glyph-name="quoteleft" unicode="&#x2018;" horiz-adv-x="296" 
d="M56 335v164q0 45 6.5 76.5t25 61.5t56.5 49t96 28v-87q-80 -9 -82 -94h82v-198h-184z" />
    <glyph glyph-name="quoteright" unicode="&#x2019;" horiz-adv-x="296" 
d="M240 714v-164q0 -92 -37 -145t-147 -70v87q80 9 82 94h-82v198h184z" />
    <glyph glyph-name="quotesinglbase" unicode="&#x201a;" horiz-adv-x="296" 
d="M240 198v-164q0 -92 -37 -145t-147 -70v87q80 9 82 94h-82v198h184z" />
    <glyph glyph-name="quotedblleft" unicode="&#x201c;" horiz-adv-x="519" 
d="M290 335v164q0 45 6.5 76.5t25 61.5t56.5 49t96 28v-87q-80 -9 -82 -94h82v-198h-184zM46 335v164q0 45 6.5 76.5t25 61.5t56.5 49t96 28v-87q-80 -9 -82 -94h82v-198h-184z" />
    <glyph glyph-name="quotedblright" unicode="&#x201d;" horiz-adv-x="519" 
d="M474 714v-164q0 -92 -37 -145t-147 -70v87q80 9 82 94h-82v198h184zM230 714v-164q0 -92 -37 -145t-147 -70v87q80 9 82 94h-82v198h184z" />
    <glyph glyph-name="quotedblbase" unicode="&#x201e;" horiz-adv-x="519" 
d="M474 198v-164q0 -92 -37 -145t-147 -70v87q80 9 82 94h-82v198h184zM230 198v-164q0 -92 -37 -145t-147 -70v87q80 9 82 94h-82v198h184z" />
    <glyph glyph-name="dagger" unicode="&#x2020;" horiz-adv-x="667" 
d="M235 -174v545h-175v158h175v185h198v-185h175v-158h-175v-545h-198z" />
    <glyph glyph-name="daggerdbl" unicode="&#x2021;" horiz-adv-x="667" 
d="M235 -174v187h-175v158h175v200h-175v158h175v185h198v-185h175v-158h-175v-200h175v-158h-175v-187h-198z" />
    <glyph glyph-name="bullet" unicode="&#x2022;" horiz-adv-x="500" 
d="M72 357q0 74 52 126t126 52t126.5 -52t52.5 -126t-52.5 -126.5t-126.5 -52.5t-126 52.5t-52 126.5z" />
    <glyph glyph-name="ellipsis" unicode="&#x2026;" horiz-adv-x="1000" 
d="M937 0h-208v198h208v-198zM604 0h-208v198h208v-198zM271 0h-208v198h208v-198z" />
    <glyph glyph-name="perthousand" unicode="&#x2030;" horiz-adv-x="1167" 
d="M149 -26l410 748h110l-410 -748h-110zM65 531q0 77 36.5 125t108.5 48t108.5 -48t36.5 -125q0 -78 -36.5 -126t-108.5 -48t-108.5 48t-36.5 126zM169 530v-4q0 -24 1 -37.5t11 -29t29 -15.5q15 0 24 8t12.5 24t4 26t0.5 28q0 19 -0.5 28.5t-4 26t-12.5 24.5t-24 8
t-24.5 -8t-12.5 -25t-3.5 -25.5t-0.5 -28.5zM811 166q0 77 36.5 125t108.5 48t108.5 -48t36.5 -125q0 -78 -36.5 -126t-108.5 -48t-108.5 48t-36.5 126zM466 166q0 77 36.5 125t108.5 48t108.5 -48t36.5 -125q0 -78 -36.5 -126t-108.5 -48t-108.5 48t-36.5 126zM915 165v-4
q0 -24 1 -37.5t11 -29t29 -15.5q15 0 24 8t12.5 24t4 26t0.5 28q0 19 -0.5 28.5t-4 26t-12.5 24.5t-24 8t-24.5 -8t-12.5 -25t-3.5 -25.5t-0.5 -28.5zM570 165v-4q0 -24 1 -37.5t11 -29t29 -15.5q15 0 24 8t12.5 24t4 26t0.5 28q0 19 -0.5 28.5t-4 26t-12.5 24.5t-24 8
t-24.5 -8t-12.5 -25t-3.5 -25.5t-0.5 -28.5z" />
    <glyph glyph-name="guilsinglleft" unicode="&#x2039;" horiz-adv-x="241" 
d="M202 48l-163 129v177l163 129v-157l-77 -61l77 -60v-157z" />
    <glyph glyph-name="guilsinglright" unicode="&#x203a;" horiz-adv-x="241" 
d="M39 483l163 -129v-177l-163 -129v157l77 60l-77 61v157z" />
    <glyph glyph-name="interrobang" unicode="&#x203d;" horiz-adv-x="574" 
d="M356 714v-45q103 -8 153 -51.5t50 -112.5q0 -48 -30 -85t-106 -84q-56 -34 -56 -80h-165l-9 280q-21 -18 -24 -50h-159q5 59 50 106t130 67v55h166zM390 500q0 46 -47 57l-19 -149q66 42 66 92zM170 0v198h208v-198h-208z" />
    <glyph glyph-name="fraction" unicode="&#x2044;" horiz-adv-x="167" 
d="M-165 -26l388 748h110l-388 -748h-110z" />
    <glyph glyph-name="zero.superior" unicode="&#x2070;" horiz-adv-x="410" 
d="M205 829q189 0 189 -218q0 -223 -189 -223t-189 218q0 223 189 223zM205 730q-25 0 -36.5 -27.5t-11.5 -96.5q0 -66 11.5 -92.5t36.5 -26.5t36.5 27.5t11.5 96.5q0 67 -11.5 93t-36.5 26z" />
    <glyph glyph-name="four.superior" unicode="&#x2074;" horiz-adv-x="410" 
d="M203 397v74h-196v96l205 253h122v-252h58v-97h-58v-74h-131zM203 568v117l-95 -117h95z" />
    <glyph glyph-name="five.superior" unicode="&#x2075;" horiz-adv-x="410" 
d="M364 820v-97h-196l-11 -61q29 23 81 23q69 0 108 -38t39 -101q0 -73 -50.5 -115.5t-137.5 -42.5q-85 0 -132.5 35t-49.5 98h135q8 -33 48 -33q24 0 37.5 15t13.5 40q0 24 -12.5 38t-37.5 14q-32 0 -45 -20h-131l41 245h300z" />
    <glyph glyph-name="six.superior" unicode="&#x2076;" horiz-adv-x="410" 
d="M386 712h-134q-6 23 -37 23q-26 0 -42 -24t-18 -61q35 32 92 32q64 0 105.5 -37t41.5 -102q0 -69 -50.5 -112t-128.5 -43q-194 0 -194 208q0 105 49.5 169t149.5 64q149 0 166 -117zM211 594q-24 0 -38 -14.5t-14 -41.5q0 -25 14.5 -39.5t36.5 -14.5q23 0 37 14t14 39
q0 26 -13 41.5t-37 15.5z" />
    <glyph glyph-name="seven.superior" unicode="&#x2077;" horiz-adv-x="410" 
d="M370 820v-95q-65 -55 -97.5 -144.5t-34.5 -183.5h-151q9 98 41 171t95 148h-191v104h338z" />
    <glyph glyph-name="eight.superior" unicode="&#x2078;" horiz-adv-x="410" 
d="M34 708q0 54 46 87.5t123 33.5q84 0 127 -32.5t43 -84.5q0 -62 -62 -87v-3q82 -24 82 -100q0 -64 -52 -99t-137 -35q-88 0 -139.5 33.5t-51.5 99.5q0 36 22 63t59 36v3q-60 23 -60 85zM158 701q0 -17 12 -28t33 -11t33 10.5t12 28.5q0 39 -45 39t-45 -39zM145 527
q0 -48 59 -48q57 0 57 48q0 23 -15.5 36.5t-42.5 13.5q-58 0 -58 -50z" />
    <glyph glyph-name="nine.superior" unicode="&#x2079;" horiz-adv-x="410" 
d="M255 570q-35 -32 -92 -32q-64 0 -105.5 36t-41.5 101q0 68 50.5 111t128.5 43q98 0 146 -54.5t48 -153.5q0 -108 -48 -170.5t-149 -62.5q-151 0 -168 117h134q6 -23 40 -23q28 0 42.5 24.5t14.5 63.5zM199 626q24 0 38 14.5t14 40.5q0 24 -14 38.5t-36 14.5
q-23 0 -38 -14t-15 -38q0 -25 13.5 -40.5t37.5 -15.5z" />
    <glyph glyph-name="plus.superior" unicode="&#x207a;" horiz-adv-x="420" 
d="M273 709v-106h115v-100h-115v-106h-126v106h-115v100h115v106h126z" />
    <glyph glyph-name="minus.superior" unicode="&#x207b;" horiz-adv-x="284" 
d="M28 509v106h228v-106h-228z" />
    <glyph glyph-name="equal.superior" unicode="&#x207c;" horiz-adv-x="420" 
d="M388 673v-99h-356v99h356zM388 529v-99h-356v99h356z" />
    <glyph glyph-name="parenleft.superior" unicode="&#x207d;" horiz-adv-x="236" 
d="M122 876h116q-72 -137 -72 -277q0 -129 72 -281h-118q-97 114 -97 275q0 73 24.5 151.5t74.5 131.5z" />
    <glyph glyph-name="parenright.superior" unicode="&#x207e;" horiz-adv-x="236" 
d="M113 318h-116q72 137 72 277q0 129 -72 281h118q97 -114 97 -275q0 -73 -24.5 -151.5t-74.5 -131.5z" />
    <glyph glyph-name="n.superior" unicode="&#x207f;" horiz-adv-x="410" 
d="M27 397v319h134v-37q34 46 102 46q61 0 91 -32.5t30 -89.5v-206h-144v185q0 42 -29 42q-18 0 -29.5 -13.5t-11.5 -37.5v-176h-143z" />
    <glyph glyph-name="zero.inferior" unicode="&#x2080;" horiz-adv-x="410" 
d="M205 263q189 0 189 -218q0 -223 -189 -223t-189 218q0 223 189 223zM205 164q-25 0 -36.5 -27.5t-11.5 -96.5q0 -67 11.5 -93t36.5 -26t36.5 27.5t11.5 96.5q0 67 -11.5 93t-36.5 26z" />
    <glyph glyph-name="one.inferior" unicode="&#x2081;" horiz-adv-x="410" 
d="M297 254v-423h-144v252h-106v95h31q84 0 94 76h125z" />
    <glyph glyph-name="two.inferior" unicode="&#x2082;" horiz-adv-x="410" 
d="M384 -66v-103h-368q0 78 25 121.5t84 78.5l74 44q45 27 45 58q0 13 -10 22t-25 9q-42 0 -44 -58h-142q0 74 48 115.5t140 41.5q86 0 131 -34.5t45 -94.5q0 -42 -21 -70t-70 -57l-82 -49q-23 -14 -29 -24h199z" />
    <glyph glyph-name="three.inferior" unicode="&#x2083;" horiz-adv-x="410" 
d="M152 6v87h42q48 0 48 37q0 17 -10.5 27.5t-29.5 10.5q-45 0 -48 -46h-131q3 70 50 105.5t133 35.5q79 0 124 -32t45 -87q0 -60 -73 -83v-3q43 -7 64.5 -34.5t21.5 -65.5q0 -62 -52.5 -99t-140.5 -37q-89 0 -136.5 38.5t-47.5 105.5h136q3 -45 53 -45q25 0 39.5 12
t14.5 31q0 23 -13.5 32.5t-44.5 9.5h-44z" />
    <glyph glyph-name="four.inferior" unicode="&#x2084;" horiz-adv-x="410" 
d="M203 -169v74h-196v96l205 253h122v-252h58v-97h-58v-74h-131zM203 2v117l-95 -117h95z" />
    <glyph glyph-name="five.inferior" unicode="&#x2085;" horiz-adv-x="410" 
d="M364 254v-97h-196l-11 -61q29 23 81 23q69 0 108 -38t39 -101q0 -73 -50.5 -115.5t-137.5 -42.5q-85 0 -132.5 35t-49.5 98h135q8 -33 48 -33q24 0 37.5 15t13.5 40q0 24 -12.5 38t-37.5 14q-32 0 -45 -20h-131l41 245h300z" />
    <glyph glyph-name="six.inferior" unicode="&#x2086;" horiz-adv-x="410" 
d="M386 146h-134q-6 23 -37 23q-26 0 -42 -24t-18 -61q35 32 92 32q64 0 105.5 -37t41.5 -102q0 -69 -50.5 -112t-128.5 -43q-194 0 -194 208q0 105 49.5 169t149.5 64q149 0 166 -117zM211 28q-24 0 -38 -14.5t-14 -41.5q0 -25 14.5 -39.5t36.5 -14.5q23 0 37 14t14 39
q0 26 -13 41.5t-37 15.5z" />
    <glyph glyph-name="seven.inferior" unicode="&#x2087;" horiz-adv-x="410" 
d="M370 254v-95q-65 -55 -97.5 -144.5t-34.5 -183.5h-151q9 98 41 171t95 148h-191v104h338z" />
    <glyph glyph-name="eight.inferior" unicode="&#x2088;" horiz-adv-x="410" 
d="M34 142q0 54 46 87.5t123 33.5q84 0 127 -32.5t43 -84.5q0 -62 -62 -87v-3q82 -24 82 -100q0 -64 -52 -99t-137 -35q-88 0 -139.5 33.5t-51.5 99.5q0 36 22 63t59 36v3q-60 23 -60 85zM158 135q0 -17 12 -28t33 -11t33 10.5t12 28.5q0 39 -45 39t-45 -39zM145 -39
q0 -48 59 -48q57 0 57 48q0 23 -15.5 36.5t-42.5 13.5q-58 0 -58 -50z" />
    <glyph glyph-name="nine.inferior" unicode="&#x2089;" horiz-adv-x="410" 
d="M255 4q-35 -32 -92 -32q-64 0 -105.5 36t-41.5 101q0 68 50.5 111t128.5 43q98 0 146 -54.5t48 -153.5q0 -108 -48 -170.5t-149 -62.5q-151 0 -168 117h134q6 -23 40 -23q28 0 42.5 24.5t14.5 63.5zM199 60q24 0 38 14.5t14 40.5q0 24 -14 38.5t-36 14.5q-23 0 -38 -14
t-15 -38q0 -25 13.5 -40.5t37.5 -15.5z" />
    <glyph glyph-name="plus.inferior" unicode="&#x208a;" horiz-adv-x="420" 
d="M273 143v-106h115v-100h-115v-106h-126v106h-115v100h115v106h126z" />
    <glyph glyph-name="minus.inferior" unicode="&#x208b;" horiz-adv-x="284" 
d="M28 -57v106h228v-106h-228z" />
    <glyph glyph-name="equal.inferior" unicode="&#x208c;" horiz-adv-x="420" 
d="M388 107v-99h-356v99h356zM388 -37v-99h-356v99h356z" />
    <glyph glyph-name="parenleft.inferior" unicode="&#x208d;" horiz-adv-x="236" 
d="M122 310h116q-72 -137 -72 -277q0 -129 72 -281h-118q-97 114 -97 275q0 73 24.5 151.5t74.5 131.5z" />
    <glyph glyph-name="parenright.inferior" unicode="&#x208e;" horiz-adv-x="236" 
d="M113 -248h-116q72 137 72 277q0 129 -72 281h118q97 -114 97 -275q0 -73 -24.5 -151.5t-74.5 -131.5z" />
    <glyph glyph-name="Euro" unicode="&#x20ac;" horiz-adv-x="668" 
d="M654 666l-71 -151q-60 39 -117 39q-87 0 -125 -92h227l-37 -89h-206q-1 -3 -1 -10v-11v-13q0 -7 1 -10h189l-37 -89h-134q37 -90 132 -90q62 0 139 50v-186q-68 -31 -165 -31q-120 0 -204 69q-82 70 -114 188h-78l37 89h28q-1 3 -1 9v13v12q0 7 1 10h-67l37 89h43
q31 119 116 189q86 71 206 71q94 0 201 -56z" />
    <glyph glyph-name="afii61248" unicode="&#x2105;" horiz-adv-x="876" 
d="M185 -26l388 748h110l-388 -748h-110zM378 559h-138q-2 49 -36 49q-24 0 -34.5 -26t-10.5 -96q0 -65 10.5 -91.5t32.5 -26.5q19 0 28 14t12 46h138q-21 -160 -177 -160q-188 0 -188 217q0 224 191 224q162 0 172 -150zM673 427q189 0 189 -218q0 -223 -189 -223t-189 218
q0 223 189 223zM673 328q-25 0 -36.5 -27.5t-11.5 -96.5q0 -66 11.5 -92.5t36.5 -26.5t36.5 27.5t11.5 96.5q0 67 -11.5 93t-36.5 26z" />
    <glyph glyph-name="afii61289" unicode="&#x2113;" horiz-adv-x="500" 
d="M465 56q-85 -70 -181 -70q-82 0 -127.5 42.5t-45.5 108.5v25l-54 -45h-2l-54 84l109 86v233q0 85 54 143t138 58q73 0 116.5 -42.5t43.5 -112.5q0 -77 -47 -149t-149 -154v-101q0 -33 16.5 -48t40.5 -15q36 0 88 37h2zM336 557q0 26 -9.5 44t-25.5 18q-15 0 -25 -19.5
t-10 -49.5v-157q70 71 70 164z" />
    <glyph glyph-name="afii61352" unicode="&#x2116;" horiz-adv-x="1167" 
d="M58 0v696h225l203 -377h2v377h208v-696h-214l-214 377h-2v-377h-208zM752 303q0 79 49.5 122.5t132.5 43.5q86 0 135.5 -43.5t49.5 -116.5q0 -81 -51.5 -123.5t-132.5 -42.5t-132 41.5t-51 118.5zM884 309q0 -79 51 -79t51 79q0 33 -14 52.5t-36 19.5q-26 0 -39 -21
t-13 -51zM1109 0h-348v113h348v-113z" />
    <glyph glyph-name="published" unicode="&#x2117;" horiz-adv-x="800" 
d="M26 357q0 155 109.5 264.5t264.5 109.5t264.5 -109.5t109.5 -264.5t-109.5 -264.5t-264.5 -109.5t-264.5 109.5t-109.5 264.5zM150 357q0 -106 72.5 -181.5t177.5 -75.5t177.5 75.5t72.5 181.5t-72.5 181.5t-177.5 75.5t-177.5 -75.5t-72.5 -181.5zM352 304v-137h-90v379
h166q71 0 109.5 -30.5t38.5 -90.5q0 -59 -39 -90t-109 -31h-76zM352 376h73q56 0 56 49t-56 49h-73v-98z" />
    <glyph glyph-name="trademark" unicode="&#x2122;" horiz-adv-x="1000" 
d="M968 714v-412h-124v230h-2l-75 -230h-104l-75 230h-2v-230h-124v412h172l80 -239h2l80 239h172zM376 714v-94h-104v-318h-136v318h-104v94h344z" />
    <glyph glyph-name="Omega" unicode="&#x2126;" horiz-adv-x="796" 
d="M398 553q-68 0 -105 -49t-37 -126q0 -84 23 -136.5t87 -77.5v-164h-337v183h106v6q-99 70 -99 210q0 134 100.5 233t261.5 99q163 0 262.5 -97.5t99.5 -232.5q0 -139 -103 -212v-6h110v-183h-337v164q65 24 87.5 77t22.5 137q0 75 -37.5 125t-104.5 50z" />
    <glyph glyph-name="estimated" unicode="&#x212e;" horiz-adv-x="770" 
d="M726 349h-533v-238q80 -78 191 -78q82 0 144 38t111 121l46 -28q-62 -95 -130 -136.5t-171 -41.5q-152 0 -246 104t-94 259q0 157 94 261t246 104t246.5 -101.5t95.5 -263.5zM193 398h384v191q-84 79 -194 79q-109 0 -190 -79v-191z" />
    <glyph glyph-name="onethird" unicode="&#x2153;" horiz-adv-x="1000" 
d="M196 -26l388 748h110l-388 -748h-110zM299 703v-423h-144v252h-106v95h31q84 0 94 76h125zM685 175v87h42q48 0 48 37q0 17 -10.5 27.5t-29.5 10.5q-45 0 -48 -46h-131q3 70 50 105.5t133 35.5q79 0 124 -32t45 -87q0 -60 -73 -83v-3q43 -7 64.5 -34.5t21.5 -65.5
q0 -62 -52.5 -99t-140.5 -37q-89 0 -136.5 38.5t-47.5 105.5h136q3 -45 53 -45q25 0 39.5 12t14.5 31q0 23 -13.5 32.5t-44.5 9.5h-44z" />
    <glyph glyph-name="twothirds" unicode="&#x2154;" horiz-adv-x="1000" 
d="M262 -26l388 748h110l-388 -748h-110zM401 383v-103h-364q0 78 25 121.5t84 78.5l74 44q45 27 45 58q0 13 -10 22t-25 9q-42 0 -44 -58h-142q0 74 48 115.5t140 41.5q86 0 131 -34.5t45 -94.5q0 -42 -21 -70t-70 -57l-82 -49q-23 -14 -29 -24h195zM722 175v87h42
q48 0 48 37q0 17 -10.5 27.5t-29.5 10.5q-45 0 -48 -46h-131q3 70 50 105.5t133 35.5q79 0 124 -32t45 -87q0 -60 -73 -83v-3q43 -7 64.5 -34.5t21.5 -65.5q0 -62 -52.5 -99t-140.5 -37q-89 0 -136.5 38.5t-47.5 105.5h136q3 -45 53 -45q25 0 39.5 12t14.5 31
q0 23 -13.5 32.5t-44.5 9.5h-44z" />
    <glyph glyph-name="oneeighth" unicode="&#x215b;" horiz-adv-x="1000" 
d="M196 -26l388 748h110l-388 -748h-110zM299 703v-423h-144v252h-106v95h31q84 0 94 76h125zM563 311q0 54 46 87.5t123 33.5q84 0 127 -32.5t43 -84.5q0 -62 -62 -87v-3q82 -24 82 -100q0 -64 -52 -99t-137 -35q-88 0 -139.5 33.5t-51.5 99.5q0 36 22 63t59 36v3
q-60 23 -60 85zM687 304q0 -17 12 -28t33 -11t33 10.5t12 28.5q0 39 -45 39t-45 -39zM674 130q0 -48 59 -48q57 0 57 48q0 23 -15.5 36.5t-42.5 13.5q-58 0 -58 -50z" />
    <glyph glyph-name="threeeighths" unicode="&#x215c;" horiz-adv-x="1000" 
d="M247 -26l388 748h110l-388 -748h-110zM176 455v87h42q48 0 48 37q0 17 -10.5 27.5t-29.5 10.5q-45 0 -48 -46h-131q3 70 50 105.5t133 35.5q79 0 124 -32t45 -87q0 -60 -73 -83v-3q43 -7 64.5 -34.5t21.5 -65.5q0 -62 -52.5 -99t-140.5 -37q-89 0 -136.5 38.5
t-47.5 105.5h136q3 -45 53 -45q25 0 39.5 12t14.5 31q0 23 -13.5 32.5t-44.5 9.5h-44zM588 311q0 54 46 87.5t123 33.5q84 0 127 -32.5t43 -84.5q0 -62 -62 -87v-3q82 -24 82 -100q0 -64 -52 -99t-137 -35q-88 0 -139.5 33.5t-51.5 99.5q0 36 22 63t59 36v3q-60 23 -60 85z
M712 304q0 -17 12 -28t33 -11t33 10.5t12 28.5q0 39 -45 39t-45 -39zM699 130q0 -48 59 -48q57 0 57 48q0 23 -15.5 36.5t-42.5 13.5q-58 0 -58 -50z" />
    <glyph glyph-name="fiveeighths" unicode="&#x215d;" horiz-adv-x="1000" 
d="M247 -26l388 748h110l-388 -748h-110zM394 703v-97h-196l-11 -61q29 23 81 23q69 0 108 -38t39 -101q0 -73 -50.5 -115.5t-137.5 -42.5q-85 0 -132.5 35t-49.5 98h135q8 -33 48 -33q24 0 37.5 15t13.5 40q0 24 -12.5 38t-37.5 14q-32 0 -45 -20h-131l41 245h300zM588 311
q0 54 46 87.5t123 33.5q84 0 127 -32.5t43 -84.5q0 -62 -62 -87v-3q82 -24 82 -100q0 -64 -52 -99t-137 -35q-88 0 -139.5 33.5t-51.5 99.5q0 36 22 63t59 36v3q-60 23 -60 85zM712 304q0 -17 12 -28t33 -11t33 10.5t12 28.5q0 39 -45 39t-45 -39zM699 130q0 -48 59 -48
q57 0 57 48q0 23 -15.5 36.5t-42.5 13.5q-58 0 -58 -50z" />
    <glyph glyph-name="seveneighths" unicode="&#x215e;" horiz-adv-x="1000" 
d="M199 -26l388 748h110l-388 -748h-110zM414 703v-95q-65 -55 -97.5 -144.5t-34.5 -183.5h-151q9 98 41 171t95 148h-191v104h338zM578 311q0 54 46 87.5t123 33.5q84 0 127 -32.5t43 -84.5q0 -62 -62 -87v-3q82 -24 82 -100q0 -64 -52 -99t-137 -35q-88 0 -139.5 33.5
t-51.5 99.5q0 36 22 63t59 36v3q-60 23 -60 85zM702 304q0 -17 12 -28t33 -11t33 10.5t12 28.5q0 39 -45 39t-45 -39zM689 130q0 -48 59 -48q57 0 57 48q0 23 -15.5 36.5t-42.5 13.5q-58 0 -58 -50z" />
    <glyph glyph-name="partialdiff" unicode="&#x2202;" horiz-adv-x="593" 
d="M548 358q0 -71 -11.5 -131.5t-39 -117.5t-81 -90t-129.5 -33q-107 0 -174.5 65t-67.5 172q0 97 63.5 163.5t161.5 66.5q67 0 123 -41q0 32 -5.5 62.5t-17.5 61t-37 49t-60 18.5q-58 0 -120 -58l-84 93q46 43 92.5 63t107.5 20q62 0 110.5 -20.5t79.5 -55t51.5 -82t29 -98
t8.5 -107.5zM391 273v21q-43 43 -95 43q-48 0 -74.5 -36t-26.5 -85q0 -46 24 -81t68 -35q29 0 51 17.5t32.5 45.5t15.5 55.5t5 54.5z" />
    <glyph glyph-name="Delta" unicode="&#x2206;" horiz-adv-x="746" 
d="M-8 0l273 714h215l274 -714h-762zM371 478l-100 -301h198z" />
    <glyph glyph-name="product" unicode="&#x220f;" horiz-adv-x="759" 
d="M711 -214h-156v845h-350v-845h-157v1000h663v-1000z" />
    <glyph glyph-name="summation" unicode="&#x2211;" horiz-adv-x="704" 
d="M674 -214h-644v135l286 372l-275 356v137h621v-156h-413l251 -337l-266 -351h440v-156z" />
    <glyph glyph-name="minus" unicode="&#x2212;" horiz-adv-x="600" 
d="M48 176v153h505v-153h-505z" />
    <glyph glyph-name="uni2215" unicode="&#x2215;" horiz-adv-x="167" 
d="M-165 -26l388 748h110l-388 -748h-110z" />
    <glyph glyph-name="uni2219" unicode="&#x2219;" horiz-adv-x="334" 
d="M47 237q0 49 35.5 84.5t84.5 35.5t84.5 -35.5t35.5 -84.5t-35.5 -84.5t-84.5 -35.5t-84.5 35.5t-35.5 84.5z" />
    <glyph glyph-name="radical" unicode="&#x221a;" horiz-adv-x="611" 
d="M617 786l-225 -1000h-142l-140 286l-58 -27l-58 122l198 91l104 -232l155 760h166z" />
    <glyph glyph-name="infinity" unicode="&#x221e;" horiz-adv-x="889" 
d="M844 276q0 -96 -54 -158.5t-149 -62.5q-111 0 -197 118q-41 -57 -85.5 -87t-105.5 -30q-96 0 -152 61.5t-56 158.5q0 95 54 154.5t149 59.5q65 0 107 -31t89 -95q44 63 87.5 94.5t109.5 31.5q95 0 149 -59.5t54 -154.5zM712 273q0 35 -20.5 57.5t-55.5 22.5
q-57 0 -113 -82q55 -78 116 -78q35 0 54 22.5t19 57.5zM365 271q-22 32 -53.5 57t-62.5 25q-33 0 -52.5 -23.5t-19.5 -57.5q0 -35 19.5 -56.5t53.5 -21.5q62 0 115 77z" />
    <glyph glyph-name="integral" unicode="&#x222b;" horiz-adv-x="667" 
d="M573 684q0 -32 -20 -52.5t-52 -20.5q-33 0 -49 17t-17 37.5t-5.5 37.5t-17.5 17q-20 0 -20 -40q0 -34 4 -101t4 -101l1 -302v-32q1 -45 0.5 -69t-4 -67.5t-10.5 -69t-21.5 -58.5t-35.5 -51t-53.5 -31t-74.5 -13q-52 0 -97 26.5t-45 75.5q0 32 19.5 52.5t51.5 20.5
t48.5 -17t18 -37t6.5 -37t17 -17q20 0 20 42q0 30 -4.5 87t-4.5 86v389v49t2 48.5t5.5 52.5t11.5 46t19 46t29 36t41 32q36 20 90 20q53 0 98 -26t45 -76z" />
    <glyph glyph-name="approxequal" unicode="&#x2248;" horiz-adv-x="600" 
d="M570 495q-7 -105 -46 -156t-120 -51q-42 0 -110.5 29t-91.5 29q-38 0 -49 -49h-123q7 104 46 154t120 50q42 0 110.5 -29t91.5 -29q37 0 49 52h123zM570 250q-7 -104 -46 -154t-120 -50q-42 0 -110.5 29t-91.5 29q-37 0 -49 -52h-123q7 105 46 156t120 51q42 0 110.5 -29
t91.5 -29q38 0 49 49h123z" />
    <glyph glyph-name="notequal" unicode="&#x2260;" horiz-adv-x="600" 
d="M553 56h-275l-70 -135l-128 62l38 73h-70v148h150l45 98h-195v148h275l70 135l128 -62l-38 -73h70v-148h-149l-46 -98h195v-148z" />
    <glyph glyph-name="lessequal" unicode="&#x2264;" horiz-adv-x="600" 
d="M553 613v-154l-302 -66l302 -67v-154l-505 142v156zM48 0v153h505v-153h-505z" />
    <glyph glyph-name="greaterequal" unicode="&#x2265;" horiz-adv-x="600" 
d="M48 459v154l505 -143v-156l-505 -142v154l302 65zM553 153v-153h-505v153h505z" />
    <glyph glyph-name="lozenge" unicode="&#x25ca;" horiz-adv-x="593" 
d="M562 356l-196 -391h-142l-194 391l196 391h140zM400 356l-104 231l-105 -231l105 -231z" />
    <glyph glyph-name="grave.cap" unicode="&#xe000;" horiz-adv-x="278" 
d="M105 766l-171 149h208l100 -149h-137z" />
    <glyph glyph-name="acute.cap" unicode="&#xe002;" horiz-adv-x="278" 
d="M344 915l-172 -149h-136l99 149h209z" />
    <glyph glyph-name="circumflex.cap" unicode="&#xe004;" horiz-adv-x="278" 
d="M-65 766l121 149h164l122 -149h-147l-57 76l-56 -76h-147z" />
    <glyph glyph-name="caron.cap" unicode="&#xe006;" horiz-adv-x="278" 
d="M343 915l-122 -149h-164l-121 149h147l56 -76l57 76h147z" />
    <glyph glyph-name="caron.alt" unicode="&#xe008;" horiz-adv-x="278" 
d="M312 714l-95 -149h-121l37 149h179z" />
    <glyph glyph-name="tilde.cap" unicode="&#xe009;" horiz-adv-x="278" 
d="M22 768h-79q0 34 9 64t35.5 54t67.5 24q44 0 93 -20t59 -20q36 0 45 43h82q-2 -60 -32.5 -99.5t-83.5 -39.5q-42 0 -89 19q-50 18 -66 18t-27 -13t-14 -30z" />
    <glyph glyph-name="dieresis.cap" unicode="&#xe00b;" horiz-adv-x="278" 
d="M168 775v130h170v-130h-170zM-59 775v130h170v-130h-170z" />
    <glyph glyph-name="macron.cap" unicode="&#xe00d;" horiz-adv-x="278" 
d="M-30 795v91h339v-91h-339z" />
    <glyph glyph-name="breve.cap" unicode="&#xe00f;" horiz-adv-x="278" 
d="M243 917h78q-4 -74 -55.5 -113.5t-127.5 -39.5q-82 0 -130 39t-50 114h78q3 -33 36 -49.5t70 -16.5q36 0 65.5 16.5t35.5 49.5z" />
    <glyph glyph-name="ring.cap" unicode="&#xe011;" horiz-adv-x="278" 
d="M26 848q0 48 32.5 79.5t80.5 31.5t80 -31.5t32 -79.5q0 -47 -32.5 -78.5t-79.5 -31.5q-48 0 -80.5 31.5t-32.5 78.5zM86 848q0 -24 15 -38.5t38 -14.5t37.5 15t14.5 38t-15 37.5t-37 14.5t-37.5 -14.5t-15.5 -37.5z" />
    <glyph glyph-name="hungarumlaut.cap" unicode="&#xe013;" horiz-adv-x="278" 
d="M155 766l99 149h169l-158 -149h-110zM-70 766l99 149h169l-158 -149h-110z" />
    <glyph glyph-name="dotaccent.cap" unicode="&#xe015;" horiz-adv-x="278" 
d="M54 775v130h170v-130h-170z" />
    <glyph glyph-name="commaaccent" unicode="&#xe017;" horiz-adv-x="334" 
d="M81 -155v105h170v-74q0 -68 -45 -90q-38 -19 -106 -19v42q50 6 57 36h-76z" />
    <glyph glyph-name="commaaccent.alt" unicode="&#xe01a;" horiz-adv-x="334" 
d="M242 714v-105h-170v74q0 68 44 90q39 19 107 19v-42q-50 -6 -57 -36h76z" />
    <glyph glyph-name="tonos.cap" unicode="&#xe01b;" horiz-adv-x="241" 
d="M31 565l35 149h214l-82 -149h-167z" />
    <glyph glyph-name="f_i" unicode="&#xf001;" horiz-adv-x="704" 
d="M645 714v-139h-198v139h198zM87 0v397h-81v122h81q-6 99 41 146q30 30 68.5 39.5t104.5 9.5q18 0 48 -2t41 -2v-136q-37 7 -48 7q-36 0 -49.5 -13t-11.5 -49h104v-122h-100v-397h-198zM447 0v519h198v-519h-198z" />
    <glyph glyph-name="f_l" unicode="&#xf002;" horiz-adv-x="704" 
d="M447 0v714h198v-714h-198zM87 0v397h-81v122h81q-6 99 41 146q30 30 68.5 39.5t104.5 9.5q18 0 48 -2t41 -2v-136q-21 7 -48 7q-36 0 -49.5 -13t-11.5 -49h104v-122h-100v-397h-198z" />
    <glyph glyph-name="uniF8FF" unicode="&#xf8ff;" horiz-adv-x="512" 
d="M0 718h512v-718h-512v718zM50 50h412v617h-412v-617zM271 234h-46l-2 17q0 56 13 81q15 28 46 59q31 29 40.5 46t9.5 37q0 36 -22.5 60.5t-53.5 24.5q-71 0 -82 -95l-50 8q7 69 43 103t92 34q54 0 89 -36t35 -95q0 -34 -13 -60t-50 -60q-37 -33 -43 -52q-6 -20 -6 -72z
M278 117h-56v67h56v-67z" />
    </font>
</defs>
</svg>
